<svg width="115" height="1675" viewBox="0 0 115 1675" fill="none" xmlns="http://www.w3.org/2000/svg">
<path d="M114.941 56.7179L0 57.5284L56.8784 0L114.941 56.7179Z" fill="#2500FF"/>
<path d="M114.941 133.718L0 134.528L56.8706 77L114.941 133.718Z" fill="#2500FF"/>
<path d="M114.941 210.718L0 211.528L56.8706 154L114.941 210.718Z" fill="#2500FF"/>
<path d="M114.949 287.726L0 288.528L56.8784 231L114.949 287.726Z" fill="#2500FF"/>
<path d="M114.949 364.726L0 365.528L56.8784 308L114.949 364.726Z" fill="#2500FF"/>
<path d="M114.941 441.718L0 442.528L56.8784 385L114.941 441.718Z" fill="#2500FF"/>
<path d="M114.949 518.718L0 519.528L56.8784 462L114.949 518.718Z" fill="#2500FF"/>
<path d="M114.941 595.718L0 596.528L56.8706 539L114.941 595.718Z" fill="#2500FF"/>
<path d="M114.949 672.726L0 673.528L56.8784 616L114.949 672.726Z" fill="#2500FF"/>
<path d="M114.949 749.726L0 750.536L56.8784 693L114.949 749.726Z" fill="#2500FF"/>
<path d="M114.949 826.718L0 827.528L56.8784 770L114.949 826.718Z" fill="#2500FF"/>
<path d="M114.941 903.718L0 904.528L56.8784 847L114.941 903.718Z" fill="#2500FF"/>
<path d="M114.941 980.718L0 981.528L56.8706 924L114.941 980.718Z" fill="#2500FF"/>
<path d="M114.941 1057.72L0 1058.53L56.8706 1001L114.941 1057.72Z" fill="#2500FF"/>
<path d="M114.949 1134.73L0 1135.53L56.8784 1078L114.949 1134.73Z" fill="#2500FF"/>
<path d="M114.949 1211.73L0 1212.53L56.8784 1155L114.949 1211.73Z" fill="#2500FF"/>
<path d="M114.941 1288.72L0 1289.53L56.8784 1232L114.941 1288.72Z" fill="#2500FF"/>
<path d="M114.949 1365.72L0 1366.53L56.8784 1309L114.949 1365.72Z" fill="#2500FF"/>
<path d="M114.941 1442.72L0 1443.53L56.8706 1386L114.941 1442.72Z" fill="#2500FF"/>
<path d="M114.949 1519.73L0 1520.53L56.8784 1463L114.949 1519.73Z" fill="#2500FF"/>
<path d="M114.949 1596.73L0 1597.54L56.8784 1540L114.949 1596.73Z" fill="#2500FF"/>
<path d="M114.949 1673.72L0 1674.53L56.8784 1617L114.949 1673.72Z" fill="#2500FF"/>
</svg>
