<svg width="115" height="1675" viewBox="0 0 115 1675" fill="none" xmlns="http://www.w3.org/2000/svg">
<path d="M0.00814127 1617.81L114.949 1617L58.0708 1674.53L0.00814127 1617.81Z" fill="#2500FF"/>
<path d="M0.00814127 1540.81L114.949 1540L58.0786 1597.53L0.00814127 1540.81Z" fill="#2500FF"/>
<path d="M0.00814127 1463.81L114.949 1463L58.0786 1520.53L0.00814127 1463.81Z" fill="#2500FF"/>
<path d="M0.000333312 1386.8L114.949 1386L58.0708 1443.53L0.000333312 1386.8Z" fill="#2500FF"/>
<path d="M0.000333312 1309.8L114.949 1309L58.0708 1366.53L0.000333312 1309.8Z" fill="#2500FF"/>
<path d="M0.00814127 1232.81L114.949 1232L58.0708 1289.53L0.00814127 1232.81Z" fill="#2500FF"/>
<path d="M0.000333312 1155.81L114.949 1155L58.0708 1212.53L0.000333312 1155.81Z" fill="#2500FF"/>
<path d="M0.00814127 1078.81L114.949 1078L58.0786 1135.53L0.00814127 1078.81Z" fill="#2500FF"/>
<path d="M0.000333312 1001.8L114.949 1001L58.0708 1058.53L0.000333312 1001.8Z" fill="#2500FF"/>
<path d="M0.000333312 924.803L114.949 923.992L58.0708 981.528L0.000333312 924.803Z" fill="#2500FF"/>
<path d="M0.000333312 847.81L114.949 847L58.0708 904.528L0.000333312 847.81Z" fill="#2500FF"/>
<path d="M0.00814127 770.81L114.949 770L58.0708 827.528L0.00814127 770.81Z" fill="#2500FF"/>
<path d="M0.00814127 693.81L114.949 693L58.0786 750.528L0.00814127 693.81Z" fill="#2500FF"/>
<path d="M0.00814127 616.81L114.949 616L58.0786 673.528L0.00814127 616.81Z" fill="#2500FF"/>
<path d="M0.000333312 539.803L114.949 539L58.0708 596.528L0.000333312 539.803Z" fill="#2500FF"/>
<path d="M0.000333312 462.803L114.949 462L58.0708 519.528L0.000333312 462.803Z" fill="#2500FF"/>
<path d="M0.00814127 385.81L114.949 385L58.0708 442.528L0.00814127 385.81Z" fill="#2500FF"/>
<path d="M0.000333312 308.81L114.949 308L58.0708 365.528L0.000333312 308.81Z" fill="#2500FF"/>
<path d="M0.00814127 231.81L114.949 231L58.0786 288.528L0.00814127 231.81Z" fill="#2500FF"/>
<path d="M0.000333312 154.803L114.949 154L58.0708 211.528L0.000333312 154.803Z" fill="#2500FF"/>
<path d="M0.000333312 77.8027L114.949 76.9922L58.0708 134.528L0.000333312 77.8027Z" fill="#2500FF"/>
<path d="M0.000333312 0.810451L114.949 0.000125309L58.0708 57.5283L0.000333312 0.810451Z" fill="#2500FF"/>
</svg>
