<svg width="443" height="371" viewBox="0 0 443 371" fill="none" xmlns="http://www.w3.org/2000/svg">
<path d="M226.303 327.294C232.614 313.909 235.263 308.645 243 295.114C216.462 270.8 202.523 256.867 180.528 234.992C206.848 213.912 214.468 209.041 241.988 187.791C213.073 166.688 208.211 162.173 182.811 142.034C194.74 119.194 201.471 105.679 211.974 81.071C122.597 -85.6169 -79.6947 35.2908 34.0153 184.588L205.024 370.897C207.619 367.648 209.606 363.727 211.577 359.798C216.268 349.177 220.927 338.687 226.303 327.286V327.294Z" fill="#FF0000"/>
<path d="M231.548 78.8639C231.384 79.4891 230.777 81.9822 230.613 81.6889C220.024 105.115 216.152 116.115 205.088 141.533C230.8 160.498 243.944 170.432 271.784 186.649C248.557 206.664 239.215 214.36 211.352 235.124C234.789 256.898 246.874 268.129 276.24 292.961C267.116 306.7 260.595 323.689 252.593 338.386C246.843 348.945 251.12 340.856 241.474 356.278C238.638 360.246 240.002 358.702 237.727 361.913L238.958 363.148C238.592 363.904 241.264 365.186 241.7 366.143L404.131 195.086C527.697 56.5872 317.092 -78.2064 231.556 78.8639H231.548Z" fill="#FF0000"/>
</svg>
