<svg width="289" height="293" viewBox="0 0 289 293" fill="none" xmlns="http://www.w3.org/2000/svg">
<path d="M260.331 0.0415039H28.1268C12.8333 0.0415039 0.435547 12.3236 0.435547 27.4742V264.766C0.435547 279.917 12.8333 292.199 28.1268 292.199H260.331C275.624 292.199 288.022 279.917 288.022 264.766V27.4742C288.022 12.3236 275.624 0.0415039 260.331 0.0415039Z" fill="#0000FF"/>
<path d="M81.0046 116.966C82.1422 114.357 82.6175 113.331 84.02 110.683C79.049 106.214 76.4388 103.651 72.317 99.6145C77.14 95.3846 78.5347 94.3965 83.5758 90.128C78.1762 86.2918 77.2647 85.4658 72.5196 81.7917C74.6701 77.3302 75.8856 74.6903 77.7711 69.9046C60.8401 38.6125 23.69 63.2356 45.0856 91.0234L77.1712 125.48C77.6464 124.839 78.0049 124.075 78.3555 123.304C79.197 121.235 80.0385 119.189 81.0046 116.966Z" fill="#FF0000"/>
<path d="M81.3818 69.3331C81.3506 69.4566 81.2493 69.9353 81.2182 69.8813C79.317 74.4431 78.6236 76.5811 76.6367 81.5288C81.4363 84.9792 83.8984 86.7854 89.0876 89.6877C84.8334 93.686 83.127 95.2299 78.0235 99.4135C82.4102 103.412 84.6776 105.48 90.1707 110.027C88.511 112.721 87.35 116.024 85.9008 118.903C84.8645 120.972 85.6359 119.39 83.8828 122.408C83.3686 123.187 83.6179 122.879 83.2049 123.512L83.4387 123.735C83.3686 123.882 83.8672 124.106 83.9529 124.291L113.6 90.3439C136.133 62.9189 96.848 38.6122 81.3896 69.3253L81.3818 69.3331Z" fill="#FF0000"/>
<path d="M216.171 114.118C217.308 111.509 217.784 110.483 219.186 107.835C214.215 103.366 211.605 100.803 207.483 96.7664C212.306 92.5365 213.701 91.5485 218.742 87.28C213.342 83.4437 212.431 82.6179 207.686 78.9438C209.836 74.4823 211.052 71.8424 212.937 67.0567C196.006 35.7646 158.856 60.3877 180.252 88.1755L212.337 122.632C212.812 121.992 213.171 121.227 213.522 120.456C214.363 118.387 215.204 116.341 216.171 114.118Z" fill="#FF0000"/>
<path d="M216.55 66.4852C216.519 66.6087 216.417 67.0872 216.386 67.0332C214.485 71.595 213.792 73.7332 211.805 78.681C216.604 82.1313 219.066 83.9376 224.256 86.8398C220.001 90.8382 218.295 92.3818 213.192 96.5654C217.578 100.564 219.846 102.632 225.339 107.179C223.679 109.873 222.518 113.176 221.069 116.055C220.033 118.124 220.804 116.542 219.051 119.56C218.537 120.339 218.786 120.031 218.373 120.664L218.607 120.887C218.537 121.034 219.035 121.258 219.121 121.443L248.768 87.4958C271.301 60.0709 232.016 35.7643 216.558 66.4775L216.55 66.4852Z" fill="#FF0000"/>
<path d="M219.182 250.418C220.32 247.809 220.795 246.782 222.198 244.135C217.227 239.665 214.617 237.103 210.495 233.066C215.318 228.836 216.712 227.848 221.754 223.579C216.354 219.743 215.442 218.917 210.697 215.243C212.848 210.781 214.063 208.142 215.949 203.356C199.018 172.064 161.868 196.687 183.263 224.475L215.349 258.932C215.824 258.291 216.183 257.527 216.533 256.755C217.375 254.686 218.216 252.641 219.182 250.418Z" fill="#FF0000"/>
<path d="M219.558 202.785C219.526 202.908 219.425 203.387 219.394 203.333C217.493 207.894 216.799 210.033 214.812 214.98C219.612 218.431 222.074 220.237 227.263 223.139C223.009 227.137 221.303 228.681 216.199 232.865C220.586 236.863 222.853 238.932 228.346 243.478C226.687 246.172 225.526 249.476 224.077 252.355C223.04 254.423 223.812 252.841 222.059 255.859C221.544 256.639 221.794 256.33 221.381 256.963L221.615 257.187C221.544 257.333 222.043 257.557 222.129 257.742L251.776 223.795C274.309 196.37 235.024 172.064 219.565 202.777L219.558 202.785Z" fill="#FF0000"/>
<path d="M74.1882 249.8C75.3258 247.191 75.8011 246.164 77.2036 243.517C72.2325 239.048 69.6224 236.485 65.5006 232.448C70.3236 228.218 71.7183 227.23 76.7594 222.962C71.3598 219.125 70.4483 218.3 65.7032 214.625C67.8537 210.164 69.0692 207.524 70.9547 202.738C54.0237 171.446 16.8736 196.069 38.2692 223.857L70.3548 258.314C70.83 257.673 71.1885 256.909 71.5391 256.137C72.3806 254.068 73.2221 252.023 74.1882 249.8Z" fill="#FF0000"/>
<path d="M74.5653 202.167C74.5342 202.29 74.4329 202.769 74.4018 202.715C72.5006 207.277 71.8072 209.415 69.8203 214.363C74.6199 217.813 77.082 219.619 82.2712 222.521C78.017 226.52 76.3106 228.063 71.2071 232.247C75.5938 236.245 77.8612 238.314 83.3542 242.86C81.6946 245.554 80.5336 248.858 79.0844 251.737C78.0481 253.806 78.8195 252.223 77.0664 255.241C76.5522 256.021 76.8015 255.712 76.3885 256.345L76.6223 256.569C76.5522 256.716 77.0508 256.94 77.1365 257.125L106.783 223.177C129.317 195.752 90.0316 171.446 74.5731 202.159L74.5653 202.167Z" fill="#FF0000"/>
</svg>
