<svg width="288" height="293" viewBox="0 0 288 293" fill="none" xmlns="http://www.w3.org/2000/svg">
<path d="M259.887 0.67041H27.6834C12.3899 0.67041 -0.0078125 12.9525 -0.0078125 28.1031V265.395C-0.0078125 280.546 12.3899 292.828 27.6834 292.828H259.887C275.181 292.828 287.579 280.546 287.579 265.395V28.1031C287.579 12.9525 275.181 0.67041 259.887 0.67041Z" fill="#0000FF"/>
<path d="M199.285 140.805C193.379 137.895 191.05 136.668 185.058 133.086C174.882 145.691 169.031 152.322 159.844 162.773C150.3 150.469 148.071 146.903 138.433 134.036C129.691 147.744 127.798 150.06 119.414 162.109C109.316 156.59 103.34 153.479 92.4943 148.64C21.3729 191.464 76.8722 286.205 140.085 231.995L218.538 150.639C217.089 149.427 215.352 148.516 213.622 147.598C208.939 145.437 204.311 143.283 199.278 140.805H199.285Z" fill="#FF0000"/>
<path d="M93.2107 156.714C93.4834 156.783 94.5743 157.061 94.4496 157.138C104.789 162.024 109.62 163.8 120.832 168.894C128.701 156.698 132.823 150.469 139.461 137.286C148.5 148.138 151.982 152.507 161.41 165.537C170.526 154.406 175.232 148.663 185.595 134.723C191.696 138.961 199.176 141.956 205.682 145.661C210.357 148.324 206.78 146.34 213.621 150.817C215.39 152.137 214.697 151.496 216.123 152.561L216.637 151.975C216.972 152.144 217.486 150.879 217.899 150.67L141.183 74.9252C79.1937 17.3351 23.6944 117.116 93.2107 156.714Z" fill="#FF0000"/>
</svg>
