<svg width="701" height="1086" viewBox="0 0 701 1086" fill="none" xmlns="http://www.w3.org/2000/svg">
<mask id="mask0_246_4274" style="mask-type:luminance" maskUnits="userSpaceOnUse" x="0" y="-3" width="701" height="1089">
<path d="M700.915 -2.9624H0.150391V1085.27H700.915V-2.9624Z" fill="white"/>
</mask>
<g mask="url(#mask0_246_4274)">
<path d="M703.964 -1.33398H0.136719V1085.28H703.964V-1.33398Z" fill="black"/>
<path d="M-18.1482 -34.3242C95.3515 -14.1549 212.163 -28.4116 326.667 -29.554C440.432 -30.6887 554.204 -30.241 667.976 -30.8044C697.148 208.224 704.862 449.522 734.267 688.559C750.707 822.21 775.336 955.884 809.019 1086.39C638.836 1082.37 468.645 1089.63 298.477 1085.18C158.494 1081.52 18.7214 1070.65 -121.262 1068.43C-104.362 943.496 -112.013 814.831 -110.961 689.068C-110.486 632.312 -109.559 575.478 -105.484 518.845C-102.741 480.66 -100.723 439.727 -89.4097 402.978C-70.7489 342.393 -62.8561 279.106 -54.5503 216.437C-43.5252 133.344 -38.8893 47.0862 -18.1404 -34.3242H-18.1482Z" fill="black" stroke="white" stroke-width="1.17175" stroke-miterlimit="10"/>
<path d="M-113.662 967.802C-38.2476 976.71 34.3542 996.771 107.353 1016.79C169.725 1033.91 234.831 1052.54 299.758 1056.23C374.814 1060.5 451.366 1052.68 526.033 1045.85C615.332 1037.67 704.475 1027.7 794.117 1023.8" fill="black"/>
<path d="M-113.662 967.802C-38.2476 976.71 34.3542 996.771 107.353 1016.79C169.725 1033.91 234.831 1052.54 299.758 1056.23C374.814 1060.5 451.366 1052.68 526.033 1045.85C615.332 1037.67 704.475 1027.7 794.117 1023.8" stroke="white" stroke-width="1.17175" stroke-miterlimit="10"/>
<path d="M-111.568 847.211C-32.7412 871.804 38.2711 912.914 109.369 953.793C141.127 972.056 173.003 990.203 205.914 1006.38C233.528 1019.96 267.888 1040.31 299.047 1041.77C372.038 1045.18 448.839 1028.02 519.782 1013.19C606.572 995.05 692.497 973.02 780.004 958.316" fill="black"/>
<path d="M-111.568 847.211C-32.7412 871.804 38.2711 912.914 109.369 953.793C141.127 972.056 173.003 990.203 205.914 1006.38C233.528 1019.96 267.888 1040.31 299.047 1041.77C372.038 1045.18 448.839 1028.02 519.782 1013.19C606.572 995.05 692.497 973.02 780.004 958.316" stroke="white" stroke-width="1.17175" stroke-miterlimit="10"/>
<path d="M-111.197 726.096C-28.2639 768.349 42.3277 829.304 112.732 889.04C142.971 914.697 173.234 940.37 204.719 964.53C219.726 976.047 235.005 987.208 250.721 997.752C266.008 1008.01 279.425 1019.27 298.195 1019.67C369.55 1021.18 444.317 998.763 511.644 977.914C597.25 951.408 680.822 918.858 767.036 894.212" fill="black"/>
<path d="M-111.197 726.096C-28.2639 768.349 42.3277 829.304 112.732 889.04C142.971 914.697 173.234 940.37 204.719 964.53C219.726 976.047 235.005 987.208 250.721 997.752C266.008 1008.01 279.425 1019.27 298.195 1019.67C369.55 1021.18 444.317 998.763 511.644 977.914C597.25 951.408 680.822 918.858 767.036 894.212" stroke="white" stroke-width="1.17175" stroke-miterlimit="10"/>
<path d="M-109.828 615.377C-24.7755 670.242 45.5824 744.003 115.512 816.097C146.304 847.837 177.002 879.7 209.041 910.22C223.354 923.852 237.933 937.213 252.986 950.042C260.224 956.209 267.821 964.322 276.127 968.999C284.549 973.739 288.071 974.387 298.598 974.318C459.844 973.206 607.478 885.358 755.534 833.264" fill="black"/>
<path d="M-109.828 615.377C-24.7755 670.242 45.5824 744.003 115.512 816.097C146.304 847.837 177.002 879.7 209.041 910.22C223.354 923.852 237.933 937.213 252.986 950.042C260.224 956.209 267.821 964.322 276.127 968.999C284.549 973.739 288.071 974.387 298.598 974.318C459.844 973.206 607.478 885.358 755.534 833.264" stroke="white" stroke-width="1.17175" stroke-miterlimit="10"/>
<path d="M-105.584 520.111C-18.7704 578.782 52.2573 657.244 122.81 733.591C153.594 766.905 184.246 800.382 216.293 832.515C229.235 845.49 242.402 858.25 255.999 870.554C262.037 876.018 268.239 882.873 275.166 887.303C284.267 893.123 290.149 894.011 301.174 894.999C457.255 909.032 602.754 823.345 745.737 775.55" fill="black"/>
<path d="M-105.584 520.111C-18.7704 578.782 52.2573 657.244 122.81 733.591C153.594 766.905 184.246 800.382 216.293 832.515C229.235 845.49 242.402 858.25 255.999 870.554C262.037 876.018 268.239 882.873 275.166 887.303C284.267 893.123 290.149 894.011 301.174 894.999C457.255 909.032 602.754 823.345 745.737 775.55" stroke="white" stroke-width="1.17175" stroke-miterlimit="10"/>
<path d="M-97.1641 441.356C-11.2621 490.795 59.5709 561.87 129.788 630.513C159.918 659.968 189.939 689.601 221.425 717.643C247.231 740.63 272.662 765.415 306.626 774.809C452.421 815.124 596.892 749.769 737.865 720.183" fill="black"/>
<path d="M-97.1641 441.356C-11.2621 490.795 59.5709 561.87 129.788 630.513C159.918 659.968 189.939 689.601 221.425 717.643C247.231 740.63 272.662 765.415 306.626 774.809C452.421 815.124 596.892 749.769 737.865 720.183" stroke="white" stroke-width="1.17175" stroke-miterlimit="10"/>
<path d="M-85.9258 392.572C-4.30142 433.582 65.7369 493.087 136.126 550.229C190.682 594.528 246.298 642.376 312.76 668.142C449.533 721.162 591.519 679.326 731.572 667.988" fill="black"/>
<path d="M-85.9258 392.572C-4.30142 433.582 65.7369 493.087 136.126 550.229C190.682 594.528 246.298 642.376 312.76 668.142C449.533 721.162 591.519 679.326 731.572 667.988" stroke="white" stroke-width="1.17175" stroke-miterlimit="10"/>
<path d="M-76.1934 353.014C1.05215 395.051 70.4749 449.036 141.526 500.305C195.506 539.254 251.114 579.778 315.145 600.75C449.238 644.662 587.967 609.657 724.202 598.72" fill="black"/>
<path d="M-76.1934 353.014C1.05215 395.051 70.4749 449.036 141.526 500.305C195.506 539.254 251.114 579.778 315.145 600.75C449.238 644.662 587.967 609.657 724.202 598.72" stroke="white" stroke-width="1.17175" stroke-miterlimit="10"/>
<path d="M-67.1816 303.521C6.19145 343.566 75.0766 390.836 146.284 434.417C199.788 467.168 255.038 499.085 316.202 515.395C448.027 550.546 583.086 521.284 716.041 510.509" fill="black"/>
<path d="M-67.1816 303.521C6.19145 343.566 75.0766 390.836 146.284 434.417C199.788 467.168 255.038 499.085 316.202 515.395C448.027 550.546 583.086 521.284 716.041 510.509" stroke="white" stroke-width="1.17175" stroke-miterlimit="10"/>
<path d="M-58.8887 248.3C61.8415 310.822 181.403 392.649 316.563 421.093C446.02 448.333 577.744 423.787 707.567 413.236" fill="black"/>
<path d="M-58.8887 248.3C61.8415 310.822 181.403 392.649 316.563 421.093C446.02 448.333 577.744 423.787 707.567 413.236" stroke="white" stroke-width="1.17175" stroke-miterlimit="10"/>
<path d="M-51.2324 190.957C66.6149 246.293 186.761 304.362 316.755 324.817C443.874 344.816 572.178 324.701 699.196 314.628" fill="black"/>
<path d="M-51.2324 190.957C66.6149 246.293 186.761 304.362 316.755 324.817C443.874 344.816 572.178 324.701 699.196 314.628" stroke="white" stroke-width="1.17175" stroke-miterlimit="10"/>
<path d="M-44.1016 134.603C72.1719 182.166 191.881 218.344 317.201 232.176C441.811 245.939 566.952 229.907 691.258 220.698" fill="black"/>
<path d="M-44.1016 134.603C72.1719 182.166 191.881 218.344 317.201 232.176C441.811 245.939 566.952 229.907 691.258 220.698" stroke="white" stroke-width="1.17175" stroke-miterlimit="10"/>
<path d="M-37.3613 81.8599C77.9849 121.496 196.876 139.018 318.207 147.485C440.183 155.999 562.332 143.973 683.989 136.115" fill="black"/>
<path d="M-37.3613 81.8599C77.9849 121.496 196.876 139.018 318.207 147.485C440.183 155.999 562.332 143.973 683.989 136.115" stroke="white" stroke-width="1.17175" stroke-miterlimit="10"/>
<path d="M-30.8809 34.9521C83.7875 67.0393 201.806 69.818 320.012 74.0711C439.27 78.3628 558.551 70.3584 677.598 64.3763" fill="black"/>
<path d="M-30.8809 34.9521C83.7875 67.0393 201.806 69.818 320.012 74.0711C439.27 78.3628 558.551 70.3584 677.598 64.3763" stroke="white" stroke-width="1.17175" stroke-miterlimit="10"/>
<path d="M-24.5234 -4.27441C89.5528 21.1745 206.816 13.3708 322.785 14.4515C439.285 15.5321 555.792 11.6649 672.221 8.12201" fill="black"/>
<path d="M-24.5234 -4.27441C89.5528 21.1745 206.816 13.3708 322.785 14.4515C439.285 15.5321 555.792 11.6649 672.221 8.12201" stroke="white" stroke-width="1.17175" stroke-miterlimit="10"/>
<path d="M623.324 -30.6353C643.473 211.026 659.991 453.057 679.205 694.795C684.574 762.319 690.815 829.056 702.86 895.808C714.322 959.311 728.612 1022.3 742.753 1085.26" fill="black"/>
<path d="M623.324 -30.6353C643.473 211.026 659.991 453.057 679.205 694.795C684.574 762.319 690.815 829.056 702.86 895.808C714.322 959.311 728.612 1022.3 742.753 1085.26" stroke="white" stroke-width="1.17175" stroke-miterlimit="10"/>
<path d="M579.045 -30.5659C590.756 213.982 612.611 458.043 624.509 702.529C628.023 774.692 630.469 846.168 642.11 917.652C651.257 973.815 664.986 1029.08 675.372 1085" fill="black"/>
<path d="M579.045 -30.5659C590.756 213.982 612.611 458.043 624.509 702.529C628.023 774.692 630.469 846.168 642.11 917.652C651.257 973.815 664.986 1029.08 675.372 1085" stroke="white" stroke-width="1.17175" stroke-miterlimit="10"/>
<path d="M535.082 -30.5352C538.845 216.606 563.428 463.076 570.05 710.07C572.115 786.973 570.752 863.52 581.379 939.952C588.166 988.773 600.64 1036.58 607.512 1085.37" fill="black"/>
<path d="M535.082 -30.5352C538.845 216.606 563.428 463.076 570.05 710.07C572.115 786.973 570.752 863.52 581.379 939.952C588.166 988.773 600.64 1036.58 607.512 1085.37" stroke="white" stroke-width="1.17175" stroke-miterlimit="10"/>
<path d="M491.391 -30.48C487.604 218.305 514.648 466.797 515.763 715.482C516.129 797.456 511.898 879.515 520.85 961.242C525.44 1003.13 536.036 1044.07 539.823 1086.06" fill="black"/>
<path d="M491.391 -30.48C487.604 218.305 514.648 466.797 515.763 715.482C516.129 797.456 511.898 879.515 520.85 961.242C525.44 1003.13 536.036 1044.07 539.823 1086.06" stroke="white" stroke-width="1.17175" stroke-miterlimit="10"/>
<path d="M447.918 -30.3643C441.786 108.011 450.084 247.714 454.05 386.066C457.205 496.16 463.368 606.763 461.553 716.926C460.096 805.244 453.839 894.026 460.836 982.283C463.618 1017.3 471.604 1051.56 472.89 1086.71" fill="black"/>
<path d="M447.918 -30.3643C441.786 108.011 450.084 247.714 454.05 386.066C457.205 496.16 463.368 606.763 461.553 716.926C460.096 805.244 453.839 894.026 460.836 982.283C463.618 1017.3 471.604 1051.56 472.89 1086.71" stroke="white" stroke-width="1.17175" stroke-miterlimit="10"/>
<path d="M404.614 -30.1631C394.579 107.355 402.3 247.174 404.685 384.87C406.57 493.922 411.401 603.575 407.341 712.627C403.82 807.228 396.854 902.494 401.062 997.204C402.394 1027.28 407.715 1056.76 407.256 1086.94" fill="black"/>
<path d="M404.614 -30.1631C394.579 107.355 402.3 247.174 404.685 384.87C406.57 493.922 411.401 603.575 407.341 712.627C403.82 807.228 396.854 902.494 401.062 997.204C402.394 1027.28 407.715 1056.76 407.256 1086.94" stroke="white" stroke-width="1.17175" stroke-miterlimit="10"/>
<path d="M361.436 -29.8701C355.093 32.0966 355.498 94.9741 355.054 157.188C354.524 231.605 354.945 306.03 355.366 380.455C355.958 487.244 359.293 594.675 353.036 701.357C347.076 802.875 340.687 905.28 341.902 1007.04C342.221 1033.64 344.941 1059.71 343.414 1086.35" fill="black"/>
<path d="M361.436 -29.8701C355.093 32.0966 355.498 94.9741 355.054 157.188C354.524 231.605 354.945 306.03 355.366 380.455C355.958 487.244 359.293 594.675 353.036 701.357C347.076 802.875 340.687 905.28 341.902 1007.04C342.221 1033.64 344.941 1059.71 343.414 1086.35" stroke="white" stroke-width="1.17175" stroke-miterlimit="10"/>
<path d="M318.338 -29.4697C310.149 31.7328 309.814 94.2629 308.513 155.89C307.009 226.834 306.542 297.793 306.051 368.744C305.334 472.74 307.687 577.639 298.563 681.341C292.315 752.4 290.554 824.154 287.382 895.422C285.707 933.113 283.604 970.912 283.705 1008.65C283.775 1034.38 284.718 1059.11 282.154 1084.83" fill="black"/>
<path d="M318.338 -29.4697C310.149 31.7328 309.814 94.2629 308.513 155.89C307.009 226.834 306.542 297.793 306.051 368.744C305.334 472.74 307.687 577.639 298.563 681.341C292.315 752.4 290.554 824.154 287.382 895.422C285.707 933.113 283.604 970.912 283.705 1008.65C283.775 1034.38 284.718 1059.11 282.154 1084.83" stroke="white" stroke-width="1.17175" stroke-miterlimit="10"/>
<path d="M275.306 -28.937C265.536 30.3513 264.982 91.5615 263.307 151.475C261.39 220.049 260.681 288.654 260.043 357.251C259.115 456.7 261.499 557.03 253.482 656.255C244.958 761.802 239.185 867.905 234.884 973.715C233.388 1010.56 231.923 1046.9 226.43 1083.45" fill="black"/>
<path d="M275.306 -28.937C265.536 30.3513 264.982 91.5615 263.307 151.475C261.39 220.049 260.681 288.654 260.043 357.251C259.115 456.7 261.499 557.03 253.482 656.255C244.958 761.802 239.185 867.905 234.884 973.715C233.388 1010.56 231.923 1046.9 226.43 1083.45" stroke="white" stroke-width="1.17175" stroke-miterlimit="10"/>
<path d="M232.411 -27.5161C223.24 29.9428 222.305 89.0226 220.451 147.053C218.37 212.323 217.373 277.632 216.422 342.933C215.067 436.346 217.147 530.84 208.639 623.983C199.234 726.937 191.302 830.222 186.277 933.485C183.869 982.993 182.965 1032.59 175.15 1081.65" fill="black"/>
<path d="M232.411 -27.5161C223.24 29.9428 222.305 89.0226 220.451 147.053C218.37 212.323 217.373 277.632 216.422 342.933C215.067 436.346 217.147 530.84 208.639 623.983C199.234 726.937 191.302 830.222 186.277 933.485C183.869 982.993 182.965 1032.59 175.15 1081.65" stroke="white" stroke-width="1.17175" stroke-miterlimit="10"/>
<path d="M189.303 -25.7876C180.444 29.1164 179.072 85.4869 176.906 140.947C174.506 202.412 173.08 263.907 171.655 325.403C169.644 412.032 170.626 499.686 161.541 585.967C150.906 687.022 141.938 788.417 137.676 889.95C135.027 953.067 135.852 1016.79 126.713 1079.43" fill="black"/>
<path d="M189.303 -25.7876C180.444 29.1164 179.072 85.4869 176.906 140.947C174.506 202.412 173.08 263.907 171.655 325.403C169.644 412.032 170.626 499.686 161.541 585.967C150.906 687.022 141.938 788.417 137.676 889.95C135.027 953.067 135.852 1016.79 126.713 1079.43" stroke="white" stroke-width="1.17175" stroke-miterlimit="10"/>
<path d="M146.305 -24.4219C127.909 84.4135 130.028 198.181 126.07 308.213C123.242 386.829 123.46 466.904 112.724 544.965C99.1584 643.557 92.0525 743.616 88.9515 843.058C86.5283 920.833 89.4423 999.603 79.6172 1076.94" fill="black"/>
<path d="M146.305 -24.4219C127.909 84.4135 130.028 198.181 126.07 308.213C123.242 386.829 123.46 466.904 112.724 544.965C99.1584 643.557 92.0525 743.616 88.9515 843.058C86.5283 920.833 89.4423 999.603 79.6172 1076.94" stroke="white" stroke-width="1.17175" stroke-miterlimit="10"/>
<path d="M103.758 -24.0425C85.2293 77.4291 85.7359 183.64 80.274 286.401C76.4328 358.572 75.3341 432.394 62.7274 503.724C45.6639 600.24 41.768 700.616 39.8045 798.436C37.9657 890.113 42.7654 983.032 32.5039 1074.3" fill="black"/>
<path d="M103.758 -24.0425C85.2293 77.4291 85.7359 183.64 80.274 286.401C76.4328 358.572 75.3341 432.394 62.7274 503.724C45.6639 600.24 41.768 700.616 39.8045 798.436C37.9657 890.113 42.7654 983.032 32.5039 1074.3" stroke="white" stroke-width="1.17175" stroke-miterlimit="10"/>
<path d="M61.9646 -25.2153C42.9454 69.0546 41.7922 168.033 34.585 263.7C29.5283 330.784 25.9364 398.772 12.0363 464.729C-7.87117 559.2 -8.70493 660.038 -9.8425 756.215C-11.0736 861.013 -4.66116 967.425 -15.9355 1071.8" fill="black"/>
<path d="M61.9646 -25.2153C42.9454 69.0546 41.7922 168.033 34.585 263.7C29.5283 330.784 25.9364 398.772 12.0363 464.729C-7.87117 559.2 -8.70493 660.038 -9.8425 756.215C-11.0736 861.013 -4.66116 967.425 -15.9355 1071.8" stroke="white" stroke-width="1.17175" stroke-miterlimit="10"/>
<path d="M21.2282 -28.4731C1.40645 59.1818 -1.45311 151.653 -10.577 240.844C-17.0752 304.393 -22.9578 368.39 -38.837 430.388C-49.7374 472.965 -52.1685 519.115 -55.0981 562.827C-58.5653 614.535 -59.6561 666.375 -60.0612 718.192C-60.965 834.954 -54.1006 953.461 -66.832 1069.74" fill="black"/>
<path d="M21.2282 -28.4731C1.40645 59.1818 -1.45311 151.653 -10.577 240.844C-17.0752 304.393 -22.9578 368.39 -38.837 430.388C-49.7374 472.965 -52.1685 519.115 -55.0981 562.827C-58.5653 614.535 -59.6561 666.375 -60.0612 718.192C-60.965 834.954 -54.1006 953.461 -66.832 1069.74" stroke="white" stroke-width="1.17175" stroke-miterlimit="10"/>
</g>
</svg>
