<svg width="121" height="123" viewBox="0 0 121 123" fill="none" xmlns="http://www.w3.org/2000/svg">
<path d="M39.0491 109.403C42.1112 106.269 43.3578 105.057 46.8173 102.039C42.2592 92.213 39.984 86.7172 36.3843 78.0875C45.5705 74.9383 48.1028 74.3748 57.6163 71.3027C52.092 62.1327 51.2662 60.3188 46.5835 51.8049C52.1155 46.587 55.3023 43.4609 60.6395 37.5792C54.04 -19.7099 -12.3051 -7.21317 2.56898 47.7603L28.8811 119.53C29.9096 118.881 30.8367 117.978 31.7717 117.075C34.117 114.551 36.4389 112.066 39.0491 109.403Z" fill="url(#paint0_linear_246_4392)"/>
<path d="M66.0821 39.0846C65.973 39.2467 65.5523 39.8874 65.5445 39.7871C60.3086 45.3215 58.1424 48.0383 52.5715 54.0899C57.4568 62.3027 59.9345 66.5636 65.6769 74.2206C57.4256 77.4085 54.1453 78.5819 44.5851 81.4764C48.5822 90.2373 50.6392 94.7604 55.8985 105.042C52.0494 107.967 48.5589 112.105 44.9125 115.432C42.2867 117.817 44.2656 115.979 40.105 119.329C38.944 120.155 39.4662 119.862 38.5234 120.526L38.7258 121.012C38.5466 121.19 39.131 121.846 39.1466 122.162L100.046 91.0168C147.239 64.9349 105.071 3.56255 66.0821 39.0768V39.0846Z" fill="url(#paint1_linear_246_4392)"/>
<defs>
<linearGradient id="paint0_linear_246_4392" x1="-6.65116" y1="45.7538" x2="59.9144" y2="72.0188" gradientUnits="userSpaceOnUse">
<stop stop-color="white"/>
<stop offset="1"/>
</linearGradient>
<linearGradient id="paint1_linear_246_4392" x1="48.3117" y1="68.2983" x2="111.572" y2="93.2592" gradientUnits="userSpaceOnUse">
<stop stop-color="white"/>
<stop offset="1"/>
</linearGradient>
</defs>
</svg>
