<svg width="117" height="121" viewBox="0 0 117 121" fill="none" xmlns="http://www.w3.org/2000/svg">
<path d="M95.971 105.598C95.2931 101.137 95.0672 99.3535 94.701 94.6142C84.5097 93.001 78.9698 91.8587 70.2432 90.0911C73.0404 80.2727 74.0455 77.7409 77.092 67.6679C66.8617 67.2742 64.984 66.9655 55.7354 66.2091C54.8472 58.4054 54.2472 53.8357 52.7434 45.8236C4.69288 18.9621 -23.4347 84.0549 27.5376 102.364L98.0124 120.249C98.0981 118.983 97.9267 117.655 97.763 116.327C97.1475 112.846 96.5475 109.396 95.971 105.598Z" fill="url(#paint0_linear_246_4383)"/>
<path d="M56.9898 41.9257C57.0522 42.1109 57.3093 42.8441 57.2314 42.7978C58.5248 50.5243 59.3974 53.9669 60.9012 62.2801C70.0329 62.6815 74.7391 62.9516 83.9253 62.2956C81.6891 71.3188 80.7308 74.8618 77.5207 84.8654C86.5667 86.3628 91.2415 87.1425 102.181 88.4007C102.251 93.4333 103.467 98.8364 103.957 103.915C104.308 107.566 104.012 104.795 104.23 110.337C104.207 111.827 104.277 111.202 104.261 112.398L104.752 112.499C104.783 112.753 105.625 112.622 105.882 112.784L116.486 41.8252C123.203 -14.2674 51.7305 -12.3762 56.9898 41.9257Z" fill="url(#paint1_linear_246_4383)"/>
<defs>
<linearGradient id="paint0_linear_246_4383" x1="19.9364" y1="107.613" x2="77.5864" y2="68.4648" gradientUnits="userSpaceOnUse">
<stop stop-color="white"/>
<stop offset="1"/>
</linearGradient>
<linearGradient id="paint1_linear_246_4383" x1="68.683" y1="73.7746" x2="126.073" y2="34.8027" gradientUnits="userSpaceOnUse">
<stop stop-color="white"/>
<stop offset="1"/>
</linearGradient>
</defs>
</svg>
