<svg width="118" height="124" viewBox="0 0 118 124" fill="none" xmlns="http://www.w3.org/2000/svg">
<path d="M29.3425 110.8C32.7942 108.16 34.189 107.149 38.0146 104.686C34.8201 94.2735 33.3006 88.4921 30.8931 79.3993C40.4065 77.6703 42.9856 77.493 52.8186 75.8952C48.58 65.9842 48.0035 64.0621 44.5051 54.9307C50.676 50.6005 54.2522 47.9915 60.3218 42.9743C61.4515 -14.7316 -5.89089 -12.3929 1.47992 44.271L17.9202 119.29C19.0266 118.804 20.0707 118.055 21.107 117.299C23.7639 115.161 26.3973 113.046 29.3347 110.8H29.3425Z" fill="url(#paint0_linear_246_4389)"/>
<path d="M65.5029 45.2822C65.3782 45.4289 64.8717 46.0001 64.8717 45.8998C58.9501 50.5851 56.4413 52.9471 50.1145 58.0955C53.8545 66.9645 55.7322 71.5571 60.3915 80.0014C51.7975 81.908 48.3925 82.5797 38.544 83.9999C41.3256 93.278 42.7593 98.0636 46.5849 109.032C42.3853 111.348 38.3804 114.914 34.321 117.654C31.407 119.622 33.6042 118.094 29.0461 120.78C27.7839 121.421 28.3371 121.205 27.3242 121.729L27.4566 122.239C27.2618 122.385 27.745 123.127 27.7216 123.443L92.1733 101.823C142.374 83.143 108.847 16.0124 65.5029 45.2745V45.2822Z" fill="url(#paint1_linear_246_4389)"/>
<defs>
<linearGradient id="paint0_linear_246_4389" x1="-8.25382" y1="40.5402" x2="54.621" y2="76.4775" gradientUnits="userSpaceOnUse">
<stop stop-color="white"/>
<stop offset="1"/>
</linearGradient>
<linearGradient id="paint1_linear_246_4389" x1="43.2733" y1="71.0873" x2="102.674" y2="105.039" gradientUnits="userSpaceOnUse">
<stop stop-color="white"/>
<stop offset="1"/>
</linearGradient>
</defs>
</svg>
