<svg width="117" height="121" viewBox="0 0 117 121" fill="none" xmlns="http://www.w3.org/2000/svg">
<path d="M97.2572 105.701C96.4391 101.271 96.1585 99.4952 95.6443 94.7712C85.4062 93.5131 79.8352 92.5714 71.0541 91.1048C73.5396 81.1938 74.4747 78.6236 77.2095 68.4579C66.9714 68.4193 65.0857 68.1722 55.8138 67.7476C54.6918 59.9748 53.9517 55.4361 52.1908 47.478C3.3299 22.3069 -22.7641 88.3492 28.7459 104.868L99.7349 120.282C99.7816 119.016 99.5713 117.688 99.3609 116.368C98.6363 112.91 97.9351 109.483 97.2416 105.709L97.2572 105.701Z" fill="url(#paint0_linear_246_4380)"/>
<path d="M56.3362 43.4184C56.4064 43.6036 56.6867 44.3293 56.601 44.283C58.136 51.9632 59.1101 55.3673 60.871 63.6264C70.0105 63.7113 74.7242 63.8116 83.8871 62.8391C81.9314 71.9318 81.0822 75.5057 78.1838 85.6173C87.2765 86.7983 91.9671 87.4158 102.938 88.288C103.164 93.313 104.543 98.6698 105.189 103.733C105.657 107.369 105.267 104.606 105.665 110.14C105.688 111.63 105.735 111.004 105.758 112.201L106.249 112.286C106.288 112.541 107.129 112.378 107.387 112.533L115.794 41.2418C120.772 -15.0593 49.3939 -10.6674 56.3284 43.4184H56.3362Z" fill="url(#paint1_linear_246_4380)"/>
<defs>
<linearGradient id="paint0_linear_246_4380" x1="21.6081" y1="109.637" x2="78.0221" y2="68.5361" gradientUnits="userSpaceOnUse">
<stop stop-color="white"/>
<stop offset="1"/>
</linearGradient>
<linearGradient id="paint1_linear_246_4380" x1="69.282" y1="74.1313" x2="125.467" y2="33.1974" gradientUnits="userSpaceOnUse">
<stop stop-color="white"/>
<stop offset="1"/>
</linearGradient>
</defs>
</svg>
