<svg width="125" height="120" viewBox="0 0 125 120" fill="none" xmlns="http://www.w3.org/2000/svg">
<path d="M80.8661 104.947C81.6063 100.501 81.9412 98.7331 83.0632 94.1327C73.9393 89.046 69.0541 86.028 61.3638 81.3118C67.0361 73.0141 68.7736 70.9763 74.7653 62.5319C65.2206 58.5798 63.5454 57.6304 55.0448 53.6861C56.6265 46.0059 57.4679 41.4826 58.5198 33.3933C21.4476 -8.7746 -25.2472 42.872 17.2323 77.9772L78.2559 119.505C78.7312 118.339 78.9805 117.027 79.2298 115.707C79.7285 112.202 80.2272 108.737 80.8583 104.947H80.8661Z" fill="url(#paint0_linear_246_4386)"/>
<path d="M63.7567 31.1932C63.7567 31.3939 63.7801 32.1736 63.7099 32.1041C62.5412 39.8538 62.2996 43.4045 61.1465 51.7871C69.6471 55.3609 74.0103 57.2597 82.8849 59.8455C77.984 67.5875 75.9816 70.5901 69.8574 78.9187C77.9372 83.496 82.1057 85.8656 92.0555 90.8829C90.5674 95.6608 90.0453 101.188 88.9311 106.158C88.1364 109.732 88.713 107.007 87.2092 112.318C86.7261 113.715 86.9832 113.152 86.5936 114.279L87.0222 114.549C86.9755 114.803 87.8092 114.966 88.004 115.213L119.965 51.9106C143.659 1.28282 75.5687 -21.9123 63.7411 31.2009L63.7567 31.1932Z" fill="url(#paint1_linear_246_4386)"/>
<defs>
<linearGradient id="paint0_linear_246_4386" x1="8.34994" y1="80.7006" x2="75.0344" y2="62.9911" gradientUnits="userSpaceOnUse">
<stop stop-color="white"/>
<stop offset="1"/>
</linearGradient>
<linearGradient id="paint1_linear_246_4386" x1="64.9361" y1="65.4436" x2="130.793" y2="47.954" gradientUnits="userSpaceOnUse">
<stop stop-color="white"/>
<stop offset="1"/>
</linearGradient>
</defs>
</svg>
