<svg width="126" height="118" viewBox="0 0 126 118" fill="none" xmlns="http://www.w3.org/2000/svg">
<path d="M76.502 102.721C77.5617 98.3441 78.0292 96.6151 79.4784 92.1227C70.7519 86.295 66.1081 82.8911 58.784 77.542C65.0484 69.7382 66.9263 67.8471 73.518 59.9276C64.2928 55.2036 62.6876 54.1152 54.5064 49.4762C56.6413 41.9504 57.8179 37.512 59.462 29.5307C25.5843 -15.5703 -24.7414 32.0549 15.0423 70.5718L72.8478 117.016C73.401 115.897 73.7517 114.608 74.1023 113.311C74.8581 109.861 75.606 106.441 76.5098 102.721H76.502Z" fill="url(#paint0_linear_246_4401)"/>
<path d="M64.8308 27.7778C64.8152 27.9785 64.7763 28.7582 64.7218 28.681C62.9921 36.3149 62.4855 39.8346 60.7324 48.0938C68.9447 52.3623 73.16 54.6084 81.8164 57.9275C76.3623 65.2373 74.1496 68.07 67.4332 75.8661C75.1547 81.0994 79.144 83.8011 88.6886 89.621C86.8576 94.2601 85.9305 99.7249 84.4579 104.588C83.406 108.084 84.1773 105.414 82.284 110.585C81.6996 111.936 81.9957 111.396 81.5282 112.492L81.9412 112.793C81.8789 113.04 82.6969 113.279 82.8684 113.542L119.364 53.0724C146.681 4.55958 80.4996 -24.193 64.823 27.7855L64.8308 27.7778Z" fill="url(#paint1_linear_246_4401)"/>
<defs>
<linearGradient id="paint0_linear_246_4401" x1="6.19513" y1="72.6828" x2="74.0493" y2="60.2601" gradientUnits="userSpaceOnUse">
<stop stop-color="white"/>
<stop offset="1"/>
</linearGradient>
<linearGradient id="paint1_linear_246_4401" x1="63.7637" y1="62.0376" x2="130.6" y2="49.8012" gradientUnits="userSpaceOnUse">
<stop stop-color="white"/>
<stop offset="1"/>
</linearGradient>
</defs>
</svg>
