<svg width="124" height="122" viewBox="0 0 124 122" fill="none" xmlns="http://www.w3.org/2000/svg">
<path d="M45.9469 108.655C48.7285 105.235 49.8659 103.908 53.0449 100.565C47.6609 91.2256 44.9261 85.9769 40.594 77.7255C49.4686 73.6963 51.9386 72.8857 61.156 68.9028C54.8682 60.3117 53.8865 58.5827 48.4869 50.5629C53.5437 44.8278 56.4498 41.4084 61.2572 35.0327C49.7569 -21.3764 -15.2326 -2.48082 4.30865 50.8176L36.6826 119.731C37.6488 118.99 38.4982 117.995 39.3475 117.007C41.4668 114.266 43.5626 111.565 45.9313 108.655H45.9469Z" fill="url(#paint0_linear_246_4404)"/>
<path d="M66.8005 35.9983C66.707 36.1681 66.3407 36.8551 66.3252 36.7547C61.5879 42.7754 59.6634 45.6932 54.6378 52.2542C60.2166 59.9575 63.0449 63.9635 69.4184 71.0262C61.4788 75.0014 58.3077 76.4911 49.0357 80.3042C53.7652 88.6405 56.204 92.9399 62.3282 102.673C58.7519 105.962 55.6273 110.423 52.2848 114.09C49.8772 116.722 51.6848 114.692 47.8358 118.435C46.745 119.369 47.2437 119.03 46.3633 119.786L46.6047 120.249C46.4411 120.442 47.0801 121.036 47.1268 121.353L105.096 84.4184C149.851 53.8596 102.572 -3.15929 66.8083 35.9983H66.8005Z" fill="url(#paint1_linear_246_4404)"/>
<defs>
<linearGradient id="paint0_linear_246_4404" x1="-5.32731" y1="49.5036" x2="62.8412" y2="69.3649" gradientUnits="userSpaceOnUse">
<stop stop-color="white"/>
<stop offset="1"/>
</linearGradient>
<linearGradient id="paint1_linear_246_4404" x1="51.2373" y1="66.6904" x2="116.351" y2="85.6616" gradientUnits="userSpaceOnUse">
<stop stop-color="white"/>
<stop offset="1"/>
</linearGradient>
</defs>
</svg>
