<svg width="170" height="168" viewBox="0 0 170 168" fill="none" xmlns="http://www.w3.org/2000/svg">
<path d="M45.1811 115.293C49.3847 113.899 51.0653 113.388 55.5615 112.271C56.1098 101.53 56.6628 95.6484 57.5047 86.3851C67.1718 87.7314 69.6933 88.3679 79.6239 89.9364C79.0035 79.3425 79.1176 77.362 78.9344 67.7236C86.3144 65.5941 90.6229 64.2664 98.1415 61.4642C119.154 7.81276 54.135 -10.9833 41.5877 44.3428L31.3506 119.674C32.5676 119.566 33.8249 119.181 35.0778 118.803C38.354 117.627 41.5894 116.471 45.168 115.285L45.1811 115.293Z" fill="url(#paint0_linear_251_5597)"/>
<path d="M102.29 65.2402C102.119 65.3333 101.437 65.7163 101.478 65.6234C94.2119 68.1641 91.0031 69.5936 83.1999 72.4353C83.7063 81.9029 83.9083 86.7874 85.4326 96.1398C76.5824 95.2473 73.1009 94.8084 63.2167 93.0678C62.6633 102.615 62.3776 107.538 62.2385 119.007C57.437 119.866 52.3774 121.955 47.5669 123.258C44.1068 124.189 46.7339 123.445 41.4549 124.542C40.0279 124.746 40.6328 124.726 39.4796 124.893L39.4309 125.412C39.1881 125.487 39.4029 126.329 39.27 126.62L108.193 126.474C162.517 124.64 153.727 51.3658 102.297 65.2444L102.29 65.2402Z" fill="url(#paint1_linear_251_5597)"/>
<defs>
<linearGradient id="paint0_linear_251_5597" x1="34.1872" y1="38.0896" x2="80.5648" y2="91.423" gradientUnits="userSpaceOnUse">
<stop stop-color="white"/>
<stop offset="1"/>
</linearGradient>
<linearGradient id="paint1_linear_251_5597" x1="72.4797" y1="82.7778" x2="116.779" y2="133.721" gradientUnits="userSpaceOnUse">
<stop stop-color="white"/>
<stop offset="1"/>
</linearGradient>
</defs>
</svg>
