<svg width="126" height="118" viewBox="0 0 126 118" fill="none" xmlns="http://www.w3.org/2000/svg">
<path d="M76.4963 103.406C77.556 99.0294 78.0233 97.3004 79.4726 92.808C70.746 86.9803 66.1024 83.5762 58.7783 78.2271C65.0427 70.4234 66.9204 68.5322 73.5121 60.6127C64.2869 55.8888 62.6819 54.8006 54.5008 50.1616C56.6357 42.6357 57.8121 38.1973 59.4561 30.2161C25.5784 -14.885 -24.7473 32.7401 15.0364 71.257L72.8419 117.701C73.3951 116.582 73.7459 115.293 74.0965 113.996C74.8523 110.546 75.6003 107.126 76.5041 103.406H76.4963Z" fill="url(#paint0_linear_246_4398)"/>
<path d="M64.823 28.4562C64.8074 28.6569 64.7683 29.4365 64.7138 29.3593C62.9841 36.9932 62.4777 40.5131 60.7246 48.7722C68.9369 53.0407 73.152 55.2869 81.8084 58.606C76.3543 65.9157 74.1416 68.7485 67.4252 76.5445C75.1467 81.7779 79.136 84.4795 88.6806 90.2995C86.8496 94.9385 85.9225 100.403 84.4499 105.266C83.398 108.763 84.1693 106.092 82.276 111.264C81.6916 112.615 81.9877 112.074 81.5202 113.17L81.9332 113.471C81.8709 113.718 82.6889 113.958 82.8604 114.22L119.356 53.7508C146.673 5.23804 80.4918 -23.5146 64.8152 28.464L64.823 28.4562Z" fill="url(#paint1_linear_246_4398)"/>
<defs>
<linearGradient id="paint0_linear_246_4398" x1="6.11886" y1="73.4803" x2="73.973" y2="61.0577" gradientUnits="userSpaceOnUse">
<stop stop-color="white"/>
<stop offset="1"/>
</linearGradient>
<linearGradient id="paint1_linear_246_4398" x1="63.6863" y1="62.8401" x2="130.523" y2="50.6037" gradientUnits="userSpaceOnUse">
<stop stop-color="white"/>
<stop offset="1"/>
</linearGradient>
</defs>
</svg>
