<svg width="285" height="293" viewBox="0 0 285 293" fill="none" xmlns="http://www.w3.org/2000/svg">
<path d="M257.184 0.713379H24.9803C9.68686 0.713379 -2.71094 12.9954 -2.71094 28.1461V265.438C-2.71094 280.589 9.68686 292.871 24.9803 292.871H257.184C272.478 292.871 284.875 280.589 284.875 265.438V28.1461C284.875 12.9954 272.478 0.713379 257.184 0.713379Z" fill="#0000FF"/>
<path d="M68.6839 105.759C69.8682 103.127 70.3747 102.085 71.8317 99.4143C66.6426 94.9065 63.9077 92.313 59.599 88.2452C64.6401 83.9767 66.0971 82.981 71.3642 78.6662C65.7231 74.7991 64.7726 73.9576 59.8093 70.2449C62.0611 65.7448 63.3311 63.082 65.2946 58.2423C47.6 26.6569 8.78242 51.5113 31.1364 79.5538L64.6635 114.343C65.1544 113.694 65.5283 112.922 65.9023 112.15C66.7828 110.059 67.6555 107.998 68.6684 105.759H68.6839Z" fill="#FF0000"/>
<path d="M61.9827 58.5739C61.9516 58.6974 61.8425 59.1837 61.8113 59.1297C59.8245 63.7378 59.0999 65.8913 57.0195 70.8931C62.0373 74.3743 64.6085 76.1959 70.0314 79.1291C65.5903 83.166 63.7982 84.7254 58.4687 88.9476C63.058 92.9845 65.4188 95.0685 71.1612 99.6612C69.4315 102.386 68.2082 105.721 66.6966 108.615C65.6136 110.699 66.4161 109.101 64.5929 112.158C64.0553 112.945 64.3124 112.636 63.8839 113.277L64.1254 113.509C64.0553 113.655 64.5773 113.887 64.663 114.064L95.65 79.8007C119.204 52.1133 78.1424 27.5829 61.9905 58.5817L61.9827 58.5739Z" fill="#FF0000"/>
<path d="M218.7 104.941C219.884 102.309 220.39 101.267 221.847 98.5962C216.658 94.0884 213.923 91.4947 209.615 87.4269C214.656 83.1583 216.113 82.1627 221.38 77.8479C215.739 73.9807 214.788 73.1395 209.825 69.4267C212.077 64.9266 213.347 62.2636 215.31 57.4239C197.616 25.8385 158.798 50.693 181.152 78.7355L214.679 113.524C215.17 112.876 215.544 112.104 215.918 111.332C216.798 109.24 217.671 107.179 218.684 104.941H218.7Z" fill="#FF0000"/>
<path d="M211.998 57.7548C211.967 57.8783 211.858 58.3646 211.827 58.3106C209.84 62.9187 209.116 65.0723 207.035 70.0741C212.053 73.5552 214.624 75.377 220.047 78.3102C215.606 82.3471 213.814 83.9063 208.484 88.1285C213.074 92.1654 215.434 94.2494 221.177 98.8421C219.447 101.567 218.224 104.901 216.712 107.796C215.629 109.88 216.432 108.282 214.609 111.339C214.071 112.126 214.328 111.818 213.9 112.458L214.141 112.69C214.071 112.836 214.593 113.068 214.679 113.246L245.666 78.9816C269.22 51.2942 228.158 26.7638 212.006 57.7626L211.998 57.7548Z" fill="#FF0000"/>
<path d="M65.8714 250.818C67.0557 248.186 67.5622 247.144 69.0192 244.474C63.83 239.966 61.0952 237.372 56.7865 233.304C61.8276 229.036 63.2846 228.04 68.5517 223.725C62.9106 219.858 61.9601 219.017 56.9968 215.304C59.2486 210.804 60.5186 208.141 62.4821 203.301C44.7875 171.716 5.96992 196.57 28.3239 224.613L61.851 259.402C62.3419 258.753 62.7158 257.982 63.0898 257.21C63.9703 255.118 64.8429 253.057 65.8558 250.818H65.8714Z" fill="#FF0000"/>
<path d="M59.1781 203.633C59.1469 203.757 59.0378 204.243 59.0067 204.189C57.0198 208.797 56.2952 210.951 54.2148 215.952C59.2326 219.434 61.8038 221.255 67.2268 224.189C62.7856 228.226 60.9935 229.785 55.6641 234.007C60.2533 238.044 62.6142 240.128 68.3565 244.721C66.6268 247.445 65.4036 250.78 63.892 253.674C62.809 255.759 63.6115 254.161 61.7883 257.217C61.2506 258.005 61.5077 257.696 61.0792 258.337L61.3207 258.568C61.2506 258.715 61.7727 258.946 61.8584 259.124L92.8454 224.86C116.399 197.173 75.3378 172.642 59.1859 203.641L59.1781 203.633Z" fill="#FF0000"/>
<path d="M221.899 254.076C223.083 251.444 223.59 250.402 225.047 247.731C219.857 243.223 217.123 240.63 212.814 236.562C217.855 232.293 219.312 231.298 224.579 226.983C218.938 223.116 217.987 222.274 213.024 218.562C215.276 214.062 216.546 211.399 218.509 206.559C200.815 174.973 161.997 199.828 184.351 227.871L217.878 262.659C218.369 262.011 218.743 261.239 219.117 260.467C219.998 258.375 220.87 256.314 221.883 254.076H221.899Z" fill="#FF0000"/>
<path d="M215.205 206.891C215.174 207.015 215.065 207.501 215.034 207.447C213.047 212.055 212.323 214.208 210.242 219.21C215.26 222.691 217.831 224.513 223.254 227.446C218.813 231.483 217.021 233.043 211.691 237.265C216.281 241.302 218.642 243.386 224.384 247.978C222.654 250.703 221.431 254.038 219.919 256.932C218.836 259.016 219.639 257.419 217.816 260.475C217.278 261.263 217.535 260.954 217.107 261.594L217.348 261.826C217.278 261.973 217.8 262.204 217.886 262.382L248.873 228.118C272.427 200.43 231.365 175.9 215.213 206.899L215.205 206.891Z" fill="#FF0000"/>
<path d="M141.762 180.393C142.9 177.784 143.375 176.757 144.778 174.11C139.807 169.64 137.197 167.078 133.075 163.041C137.898 158.811 139.293 157.823 144.334 153.554C138.934 149.718 138.022 148.892 133.277 145.218C135.428 140.757 136.643 138.117 138.529 133.331C121.598 102.039 84.4478 126.662 105.843 154.45L137.929 188.907C138.404 188.266 138.763 187.502 139.113 186.73C139.955 184.661 140.796 182.616 141.762 180.393Z" fill="#FF0000"/>
<path d="M142.14 132.759C142.108 132.883 142.007 133.362 141.976 133.308C140.075 137.869 139.381 140.007 137.395 144.955C142.194 148.406 144.656 150.212 149.845 153.114C145.591 157.112 143.885 158.656 138.781 162.84C143.168 166.838 145.435 168.907 150.928 173.453C149.269 176.147 148.108 179.451 146.659 182.33C145.622 184.398 146.394 182.816 144.641 185.834C144.126 186.614 144.376 186.305 143.963 186.938L144.197 187.162C144.126 187.308 144.625 187.532 144.711 187.718L174.358 153.77C196.891 126.345 157.606 102.039 142.147 132.752L142.14 132.759Z" fill="#FF0000"/>
</svg>
