<svg width="414" height="413" viewBox="0 0 414 413" fill="none" xmlns="http://www.w3.org/2000/svg">
<g clip-path="url(#clip0_469_11231)">
<path d="M414 0H0V412.989H414V0Z" fill="#00FF00"/>
<path d="M10.7837 54.1364C50.3889 54.1364 82.4951 21.4368 82.4951 -18.9002C82.4951 -59.2373 50.3889 -91.9369 10.7837 -91.9369C-28.8214 -91.9369 -60.9277 -59.2373 -60.9277 -18.9002C-60.9277 21.4368 -28.8214 54.1364 10.7837 54.1364Z" fill="black"/>
<path d="M145.94 57.9561C185.545 57.9561 217.651 25.2565 217.651 -15.0805C217.651 -55.4176 185.545 -88.1172 145.94 -88.1172C106.335 -88.1172 74.2285 -55.4176 74.2285 -15.0805C74.2285 25.2565 106.335 57.9561 145.94 57.9561Z" fill="black"/>
<path d="M7.78374 196.9C47.3889 196.9 79.4951 164.2 79.4951 123.863C79.4951 83.5263 47.3889 50.8267 7.78374 50.8267C-31.8214 50.8267 -63.9277 83.5263 -63.9277 123.863C-63.9277 164.2 -31.8214 196.9 7.78374 196.9Z" fill="black"/>
<path d="M145.19 200.72C184.795 200.72 216.901 168.02 216.901 127.683C216.901 87.3459 184.795 54.6462 145.19 54.6462C105.585 54.6462 73.4785 87.3459 73.4785 127.683C73.4785 168.02 105.585 200.72 145.19 200.72Z" fill="black"/>
<path d="M287.038 62.5645C326.643 62.5645 358.749 29.865 358.749 -10.472C358.749 -50.809 326.643 -83.5087 287.038 -83.5087C247.432 -83.5087 215.326 -50.809 215.326 -10.472C215.326 29.865 247.432 62.5645 287.038 62.5645Z" fill="black"/>
<path d="M422.192 66.3839C461.797 66.3839 493.903 33.6842 493.903 -6.6528C493.903 -46.9898 461.797 -79.6895 422.192 -79.6895C382.587 -79.6895 350.48 -46.9898 350.48 -6.6528C350.48 33.6842 382.587 66.3839 422.192 66.3839Z" fill="black"/>
<path d="M284.034 205.328C323.639 205.328 355.745 172.628 355.745 132.291C355.745 91.9544 323.639 59.2548 284.034 59.2548C244.428 59.2548 212.322 91.9544 212.322 132.291C212.322 172.628 244.428 205.328 284.034 205.328Z" fill="black"/>
<path d="M421.448 209.142C461.053 209.142 493.159 176.442 493.159 136.105C493.159 95.7681 461.053 63.0685 421.448 63.0685C381.843 63.0685 349.736 95.7681 349.736 136.105C349.736 176.442 381.843 209.142 421.448 209.142Z" fill="black"/>
<path d="M5.70953 341.17C45.3146 341.17 77.4209 308.47 77.4209 268.133C77.4209 227.796 45.3146 195.096 5.70953 195.096C-33.8956 195.096 -66.002 227.796 -66.002 268.133C-66.002 308.47 -33.8956 341.17 5.70953 341.17Z" fill="black"/>
<path d="M140.868 344.99C180.473 344.99 212.579 312.29 212.579 271.953C212.579 231.616 180.473 198.916 140.868 198.916C101.262 198.916 69.1562 231.616 69.1562 271.953C69.1562 312.29 101.262 344.99 140.868 344.99Z" fill="black"/>
<path d="M2.71134 483.934C42.3165 483.934 74.4228 451.234 74.4228 410.897C74.4228 370.56 42.3165 337.86 2.71134 337.86C-36.8938 337.86 -69 370.56 -69 410.897C-69 451.234 -36.8938 483.934 2.71134 483.934Z" fill="black"/>
<path d="M140.116 487.747C179.721 487.747 211.827 455.048 211.827 414.711C211.827 374.374 179.721 341.674 140.116 341.674C100.511 341.674 68.4043 374.374 68.4043 414.711C68.4043 455.048 100.511 487.747 140.116 487.747Z" fill="black"/>
<path d="M281.965 349.598C321.57 349.598 353.677 316.899 353.677 276.562C353.677 236.225 321.57 203.525 281.965 203.525C242.36 203.525 210.254 236.225 210.254 276.562C210.254 316.899 242.36 349.598 281.965 349.598Z" fill="black"/>
<path d="M417.12 353.413C456.725 353.413 488.831 320.713 488.831 280.376C488.831 240.039 456.725 207.339 417.12 207.339C377.515 207.339 345.408 240.039 345.408 280.376C345.408 320.713 377.515 353.413 417.12 353.413Z" fill="black"/>
<path d="M278.958 492.361C318.563 492.361 350.669 459.662 350.669 419.325C350.669 378.988 318.563 346.288 278.958 346.288C239.352 346.288 207.246 378.988 207.246 419.325C207.246 459.662 239.352 492.361 278.958 492.361Z" fill="black"/>
<path d="M415.358 496.175C454.963 496.175 487.069 463.476 487.069 423.139C487.069 382.802 454.963 350.102 415.358 350.102C375.753 350.102 343.646 382.802 343.646 423.139C343.646 463.476 375.753 496.175 415.358 496.175Z" fill="black"/>
<mask id="mask0_469_11231" style="mask-type:luminance" maskUnits="userSpaceOnUse" x="0" y="2" width="417" height="614">
<path d="M416.03 2.39539H0V615.496H416.03V2.39539Z" fill="white"/>
</mask>
<g mask="url(#mask0_469_11231)">
<path d="M745.878 -151.229C629.886 -173.379 504.607 -197.107 389.462 -158.281C343.688 -142.85 300.442 -117.39 269.515 -80.0335C236.138 -39.7121 220.992 11.3555 216.489 62.6258C205.813 184.22 251.554 302.05 248.252 423.343C246.852 474.827 236.425 528.075 208.054 572.014C180.047 615.382 135.551 643.116 85.7339 655.774C-30.728 685.355 -149.712 639.439 -254.685 592.646C-268.508 586.486 -282.282 580.212 -296.05 573.932C-297.654 573.197 -299.065 575.559 -297.444 576.299C-191.885 624.424 -78.023 677.568 41.3485 666.137C89.783 661.496 138.306 645.806 175.489 613.787C213.89 580.721 235.225 533.09 244.601 484.335C267.435 365.628 224.687 247.634 218.425 129.503C215.483 73.9967 219.858 15.86 244.131 -35.0541C266.03 -80.987 304.187 -115.982 349.585 -138.784C457.495 -192.986 584.373 -177.757 698.921 -157.207C714.348 -154.44 729.748 -151.525 745.143 -148.587C746.879 -148.253 747.626 -150.895 745.878 -151.229Z" fill="#FF0000"/>
<path d="M-286.646 586.141C-183.548 629.772 -73.702 672.137 40.5418 656.854C88.3899 650.453 136.006 634.128 173.726 603.556C211.838 572.665 235.679 528.618 247.528 481.78C276.281 368.143 239.502 251.256 234.186 137.092C231.658 82.7641 235.121 26.3757 255.847 -24.5768C274.754 -71.0631 309.2 -108.584 352.462 -134.154C453.286 -193.737 575.446 -182.788 686.464 -165.384C701.671 -163 716.849 -160.479 732.034 -157.953C733.776 -157.663 734.523 -160.304 732.769 -160.595C620.605 -179.248 499.392 -200.116 390.453 -155.904C347.185 -138.34 307.64 -110.935 279.849 -73.31C248.717 -31.1528 235.735 20.9724 231.995 72.3797C227.786 130.226 234.938 187.985 242.422 245.266C250.095 304.006 258.669 363.491 254.138 422.844C250.327 472.766 236.924 523.313 207.064 564.396C176.967 605.808 131.719 632.271 82.5929 645.658C-28.1273 675.831 -141.536 642.502 -244.312 600.81C-258.009 595.254 -271.633 589.538 -285.241 583.779C-286.861 583.094 -288.272 585.456 -286.635 586.146L-286.646 586.141Z" fill="#FF0000"/>
<path d="M-275.523 596.12C-223.371 616.215 -170.389 634.885 -115.234 645.039C-64.504 654.377 -12.5347 656.224 38.4443 647.659C86.1044 639.652 133.394 622.763 171.965 593.33C209.597 564.616 235.75 524.327 250.138 479.748C266.19 430.017 267.867 377.278 264.924 325.537C261.549 266.31 252.566 207.526 250.022 148.244C247.726 94.7107 250.121 39.5716 267.374 -11.6385C283.41 -59.2263 313.978 -99.6901 355.376 -128.558C394.435 -155.799 440.43 -172.157 487.542 -178.892C548.943 -187.665 611.355 -181.676 672.49 -173.686C687.984 -171.658 703.456 -169.483 718.928 -167.334C720.67 -167.093 721.423 -169.735 719.664 -169.976C610.896 -185.079 493.876 -202.68 391.243 -152.736C349.175 -132.263 312.125 -101.372 287.509 -61.5935C260.504 -17.9403 250.309 33.9053 247.444 84.4139C244.164 142.277 250.708 199.997 256.449 257.492C262.07 313.733 267.446 371.004 259.287 427.272C252.384 474.903 235.452 521.763 204.016 559.032C171.899 597.112 127.027 621.667 79.4278 635.521C30.6891 649.703 -20.8542 653.314 -71.3077 648.475C-128.427 643.001 -183.759 626.928 -237.476 607.474C-249.972 602.948 -262.396 598.246 -274.792 593.467C-276.452 592.826 -277.171 595.479 -275.528 596.109L-275.523 596.12Z" fill="#FF0000"/>
<path d="M-264.731 605.967C-214.957 622.933 -164.233 637.477 -111.849 643.817C-61.0577 649.96 -9.49786 648.212 40.5629 637.543C87.8746 627.46 134.616 609.601 173.553 580.689C209.962 553.656 237.288 516.809 253.617 474.827C271.678 428.395 275.992 378.265 275.273 328.891C274.421 270.551 267.336 212.513 265.521 154.212C263.878 101.38 265.914 47.2766 281.098 -3.73621C295.049 -50.6007 321.772 -92.0125 359.934 -123.128C395.801 -152.374 439.489 -171.625 484.965 -180.426C543.605 -191.78 603.838 -187.446 662.821 -181.325C677.281 -179.823 691.729 -178.206 706.183 -176.639C707.948 -176.447 707.937 -179.187 706.183 -179.379C647.289 -185.752 587.902 -193.359 528.565 -188.903C480.644 -185.303 433.809 -173.017 392.217 -148.757C352.533 -125.61 318.967 -92.3741 297.538 -51.8335C273.708 -6.76101 265.339 44.8107 263.015 95.1384C260.427 151.209 265.676 207.17 269.454 263.066C273.138 317.608 275.838 373.245 264.686 427.146C255.376 472.142 236.049 515.039 204.591 549.162C171.053 585.538 126.219 609.546 79.2729 624.495C32.2213 639.477 -17.6072 645.96 -66.971 644.491C-122.126 642.853 -176.17 631.181 -228.676 614.894C-240.508 611.223 -252.273 607.337 -263.995 603.343C-265.682 602.767 -266.407 605.414 -264.731 605.984V605.967Z" fill="#FF0000"/>
<path d="M-253.938 615.809C-206.455 629.481 -157.988 639.707 -108.497 642.271C-58.7732 644.847 -8.80097 639.866 39.4842 627.843C86.215 616.203 132.227 598.087 171.86 570.61C208.59 545.14 238.334 510.819 257.063 470.393C276.822 427.748 283.914 380.961 285.468 334.392C287.354 277.872 282.31 221.39 281.082 164.908C279.942 112.591 281.391 59.354 294.081 8.30836C305.913 -39.2959 329.195 -82.8341 365.007 -116.985C397.062 -147.552 437.194 -169.697 480.163 -181.035C535.822 -195.715 594.058 -193.315 650.945 -189.2C664.995 -188.186 679.04 -187.057 693.09 -186.021C694.866 -185.89 694.855 -188.63 693.09 -188.761C635.993 -192.975 578.277 -199.014 521.169 -191.682C475.522 -185.824 431.856 -170.53 394.07 -144.22C356.433 -118.01 326.092 -82.0888 307.6 -40.2933C287.426 5.30525 280.717 55.7043 278.698 105.068C276.43 160.53 280.617 215.927 282.409 271.34C284.085 323.317 283.903 376.335 269.991 426.866C258.126 469.966 235.983 509.591 203.684 540.953C168.918 574.704 124.737 597.643 79.0516 613.321C32.9735 629.136 -15.7099 638.129 -64.4431 639.877C-117.043 641.767 -169.289 634.797 -220.234 622.072C-231.281 619.316 -242.256 616.313 -253.197 613.162C-254.912 612.669 -255.642 615.31 -253.933 615.803L-253.938 615.809Z" fill="#FF0000"/>
<path d="M-243.147 625.651C-197.329 635.91 -150.648 641.565 -103.624 640.316C-54.7912 639.017 -6.20727 630.885 40.6673 617.371C127.519 592.328 215.969 547.387 260.708 465.796C282.353 426.329 291.912 382.084 295.502 337.626C299.905 283.144 296.868 228.361 296.414 173.797C295.983 121.875 297.167 69.3004 308.003 18.3096C318.065 -29.0261 337.934 -73.5233 370.449 -109.981C399.119 -142.127 436.037 -167.274 476.998 -181.369C529.117 -199.299 585.03 -198.954 639.472 -196.948C652.969 -196.449 666.46 -195.863 679.958 -195.392C681.739 -195.331 681.733 -198.071 679.958 -198.132C625.117 -200.039 569.519 -204.324 515.205 -194.153C472.285 -186.114 432.331 -168.058 398.522 -140.592C363.037 -111.768 335.755 -73.7753 319.52 -31.2838C301.708 15.3176 296.204 65.8315 294.335 115.31C292.277 169.715 295.242 224.114 294.965 278.53C294.716 327.899 291.873 378.183 275.599 425.25C261.516 465.977 237.249 502.133 204.861 530.837C168.336 563.202 123.652 585.741 77.9115 602.383C-14.6097 636.047 -114.715 646.519 -211.888 629.197C-222.11 627.372 -232.283 625.29 -242.417 623.021C-244.148 622.632 -244.889 625.273 -243.153 625.662L-243.147 625.651Z" fill="#FF0000"/>
<path d="M-232.354 635.493C-141.432 648.678 -49.6573 635.767 37.3655 608.055C83.3385 593.418 128.52 574.726 169.758 549.678C206.056 527.626 239.069 499.476 262.645 464.081C286.901 427.667 299.407 385.581 305.193 342.64C312.196 290.707 311.223 238.017 311.588 185.738C312.268 87.6308 314.392 -18.5703 375.561 -100.895C400.906 -135.003 434.699 -163.465 473.802 -180.886C521.661 -202.209 574.797 -204.368 626.445 -204.614C639.915 -204.68 653.39 -204.636 666.859 -204.768C668.64 -204.784 668.64 -207.524 666.859 -207.508C613.994 -206.993 560.061 -209.486 508.479 -195.857C467.899 -185.133 431.319 -163.712 401.399 -134.592C368.773 -102.835 344.938 -62.9634 331.197 -19.8307C315.969 27.9598 311.632 78.6437 309.868 128.484C307.998 181.305 309.641 234.197 307.19 287.002C304.983 334.453 299.369 382.726 279.986 426.642C263.082 464.941 236.204 497.399 203.224 523.264C165.095 553.168 120.527 574.737 75.3121 591.928C-12.3081 625.24 -107.916 644.639 -201.947 636.332C-211.871 635.455 -221.761 634.277 -231.613 632.847C-233.355 632.595 -234.108 635.236 -232.349 635.488L-232.354 635.493Z" fill="#FF0000"/>
<path d="M-221.192 645.39C-133.317 649.363 -45.2872 626.736 36.9065 597.83C82.4923 581.795 127.387 562.884 169.355 538.953C205.764 518.19 240.292 492.982 266.157 459.817C324.532 384.967 324.2 284.596 326.54 194.451C329.074 96.7495 329.195 -8.05992 383.377 -93.7114C405.592 -128.821 435.734 -159.832 472.336 -180.283C516.124 -204.751 566.345 -209.563 615.604 -212.122C628.321 -212.785 641.044 -213.355 653.75 -214.133C655.52 -214.243 655.531 -216.983 653.75 -216.873C603.484 -213.793 551.797 -214.259 503.733 -197.359C465.493 -183.911 432.398 -159.394 406.112 -128.991C376.098 -94.2757 355.271 -52.5405 343.594 -8.43799C330.822 39.8019 327.315 90.0639 325.395 139.723C323.476 189.382 323.702 243.935 318.918 295.825C314.725 341.319 306.217 387.192 283.986 427.732C264.376 463.494 235.125 492.352 201.637 515.521C161.948 542.981 117.563 563.81 72.7235 581.549C29.6823 598.58 -14.5925 612.801 -59.5753 623.865C-104.116 634.825 -149.751 642.508 -195.73 643.077C-204.221 643.182 -212.712 643.034 -221.192 642.65C-222.973 642.568 -222.967 645.308 -221.192 645.39Z" fill="#FF0000"/>
<path d="M-210.399 655.232C-172.767 652.032 -135.739 643.374 -99.4851 633.143C-54.4967 620.445 -10.161 605.184 33.4776 588.525C77.1162 571.866 123.438 552.231 166.296 529.72C203.529 510.162 240.209 487.546 268.891 456.524C296.067 427.13 313.624 391.291 323.537 352.849C335.695 305.705 338.688 256.55 341.061 208.135C345.879 109.66 343.683 5.08665 391.044 -84.6145C410.278 -121.04 436.829 -154.791 470.871 -178.716C510.41 -206.505 557.501 -214.456 604.668 -219.542C616.666 -220.835 628.676 -222.051 640.657 -223.504C642.399 -223.717 642.421 -226.457 640.657 -226.243C592.659 -220.429 542.98 -218.55 498.473 -197.852C463.16 -181.429 434.091 -153.969 411.506 -122.81C384.335 -85.3269 366.451 -41.9587 356.599 3.00969C345.879 51.9456 343.036 102.262 340.779 152.157C338.483 202.978 337.36 254.09 330.147 304.527C324.007 347.435 312.939 390.162 288.76 426.801C266.235 460.935 234.036 486.839 199.265 508.014C157.949 533.172 113.442 553.333 68.6916 571.674C26.1925 589.089 -17.0811 604.702 -60.8635 618.648C-102.317 631.855 -144.612 643.73 -187.786 649.911C-195.292 650.985 -202.832 651.851 -210.393 652.492C-212.152 652.64 -212.169 655.385 -210.393 655.232H-210.399Z" fill="#FF0000"/>
<path d="M-199.24 665.024C-164.54 655.928 -130.837 643.001 -97.4204 630.139C-54.0307 613.442 -10.8511 596.147 32.1072 578.398C77.1729 559.777 122.012 540.476 165.833 519.11C203.216 500.884 240.924 481.096 271.785 452.934C300.555 426.68 320.535 393.543 332.472 356.778C347.081 311.788 351.965 264.019 355.45 217.1C362.779 118.45 359.488 15.0872 400.544 -77.2553C417.116 -114.53 440.083 -150.149 471.082 -177.27C487.096 -191.282 505.417 -202.291 525.358 -209.908C546.998 -218.172 569.826 -222.633 592.589 -226.633C604.366 -228.704 616.159 -230.677 627.908 -232.929C629.656 -233.264 628.915 -235.905 627.172 -235.571C581.161 -226.737 533.097 -222.096 492.556 -196.723C460.694 -176.782 435.846 -146.774 416.867 -114.891C393.032 -74.8495 378.074 -30.3196 369.937 15.3283C361.148 64.6203 358.758 114.784 355.97 164.679C353.193 214.404 350.477 264.518 340.714 313.475C332.472 354.805 318.416 395.263 291.35 428.351C266.098 459.22 232.217 481.277 197.28 500.023C154.482 522.99 109.793 542.619 65.0919 561.624C22.3937 579.779 -20.6973 597.002 -63.8436 614.083C-102.255 629.29 -140.827 644.573 -180.344 656.755C-186.849 658.761 -193.388 660.651 -199.976 662.378C-201.696 662.827 -200.966 665.474 -199.24 665.019V665.024Z" fill="#FF0000"/>
<path d="M-188.117 674.735C-157.953 659.145 -128.066 643.061 -97.6535 627.931C-56.5926 607.502 -14.8954 588.454 27.0229 569.833C71.7236 549.979 116.596 530.492 161.219 510.469C199.652 493.223 239.214 476.087 272.962 450.6C303.071 427.864 325.684 398.239 339.972 363.53C357.468 321.022 364.46 274.689 369.245 229.298C379.6 131.032 375.363 29.3682 408.973 -65.0128C422.94 -104.238 442.588 -142.746 470.716 -173.954C484.097 -188.799 499.564 -201.518 517.32 -210.944C537.532 -221.673 559.653 -227.97 581.741 -233.669C592.771 -236.519 603.823 -239.258 614.797 -242.294C616.507 -242.766 615.782 -245.412 614.062 -244.936C570.683 -232.924 525.407 -225.005 489.612 -195.874C460.417 -172.118 439.081 -139.272 422.968 -105.8C402.335 -62.9415 390.077 -16.899 383.456 30.0093C376.547 78.9562 374.428 128.396 370.921 177.655C367.453 226.367 363 275.571 350.488 322.951C339.955 362.85 322.647 400.574 292.799 429.957C264.095 458.212 227.487 476.866 191.25 493.788C147.617 514.168 103.314 533.178 59.2443 552.604C17.4809 571.011 -24.3269 589.391 -65.4597 609.151C-101.83 626.621 -137.68 645.078 -173.348 663.907C-178.73 666.746 -184.112 669.584 -189.522 672.379C-191.099 673.195 -189.705 675.563 -188.128 674.746L-188.117 674.735Z" fill="#FF0000"/>
<path d="M-177.044 684.363C-152.429 661.852 -124.837 642.645 -96.5209 625.01C-58.0931 601.079 -17.8066 580.354 23.0607 560.862C67.8057 539.523 113.242 519.582 159.055 500.599C197.671 484.603 237.769 470.224 273.448 448.222C305.73 428.313 331.524 401.089 348.229 367.135C367.927 327.093 376.927 282.382 382.951 238.537C396.409 140.655 391.818 40.0759 419.493 -55.6094C431.214 -96.1335 447.543 -136.351 472.159 -170.979C483.46 -186.876 496.741 -201.441 512.843 -212.692C530.578 -225.082 550.702 -233.181 570.975 -240.513C581.219 -244.218 591.508 -247.802 601.692 -251.676C603.335 -252.301 602.621 -254.953 600.956 -254.317C580.887 -246.678 560.299 -240.294 540.717 -231.444C521.296 -222.665 503.49 -210.993 488.765 -195.589C462.705 -168.326 444.849 -133.677 431.236 -98.9611C413.684 -54.2009 403.589 -7.24335 398.013 40.3609C392.139 90.4804 390.136 140.934 385.523 191.163C381.208 238.17 374.93 285.742 359.989 330.737C347.184 369.311 326.789 404.256 294.623 430.05C262.501 455.806 223.204 471.32 185.39 486.828C140.507 505.241 95.8508 524.13 51.7862 544.389C-24.0905 579.269 -101.245 617.081 -165.644 670.757C-170.185 674.543 -174.644 678.429 -179.008 682.418C-180.319 683.618 -178.361 685.553 -177.05 684.358L-177.044 684.363Z" fill="#FF0000"/>
<path d="M-166.033 693.926C-148.409 665.337 -122.001 642.135 -95.4554 621.909C-59.7711 594.723 -20.7182 572.293 19.2254 551.886C63.0631 529.495 108.179 509.433 154.157 491.76C193.658 476.575 234.785 464.585 272.793 445.838C306.701 429.113 335.538 405.188 354.981 372.697C377.135 335.669 388.314 292.761 395.799 250.714C413.14 153.259 408.206 53.1237 430.155 -43.6576C439.813 -86.2477 453.15 -128.898 474.375 -167.345C483.308 -183.528 493.746 -199.14 507.1 -212.095C522.494 -227.033 541.191 -237.571 560.319 -247.067C569.839 -251.797 579.441 -256.35 588.911 -261.184C590.494 -261.989 589.1 -264.357 587.518 -263.551C568.6 -253.896 548.957 -245.451 530.968 -234.102C513.903 -223.339 499.317 -209.755 487.534 -193.457C464.612 -161.756 449.936 -124.24 438.724 -87.119C424.618 -40.4244 416.846 7.4977 412.332 55.9513C407.658 106.17 405.534 156.618 399.505 206.71C393.929 253.076 385.399 300.258 366.769 343.412C358.87 361.705 348.974 379.372 336.052 394.672C323.706 409.298 308.931 421.672 292.629 431.766C257.498 453.521 217.101 465.703 178.468 479.764C133.049 496.303 88.4808 515.083 44.9638 536.054C4.46161 555.579 -35.5372 576.787 -72.6762 602.131C-104.167 623.624 -135.172 648.004 -158.537 678.297C-162.072 682.878 -165.397 687.619 -168.428 692.54C-169.357 694.047 -166.968 695.427 -166.038 693.92L-166.033 693.926Z" fill="#FF0000"/>
<path d="M-155.105 703.444C-145.048 670.899 -120.975 643.351 -96.4148 620.478C-62.9708 589.33 -24.1115 564.5 15.9869 542.652C58.9065 519.263 103.723 499.059 149.79 482.559C190.962 467.807 233.926 458.009 274.561 441.815C309.448 427.913 340.447 407.221 362.231 376.396C386.52 342.015 399.763 300.658 408.657 260.018C429.832 163.281 424.92 63.2777 442.146 -34.0296C449.873 -77.6828 460.245 -121.451 477.216 -162.567C484.086 -179.215 492.096 -195.797 502.738 -210.434C515.268 -227.652 531.741 -240.98 549.287 -252.904C558.071 -258.872 567.01 -264.598 575.805 -270.555C577.265 -271.541 575.882 -273.92 574.411 -272.922C557.379 -261.392 539.59 -250.739 523.969 -237.303C508.713 -224.173 496.798 -208.396 487.372 -190.74C468.603 -155.575 457.147 -116.607 448.241 -77.9953C437.222 -30.2431 431.204 18.1175 427.398 66.9054C423.427 117.803 421.004 168.931 413.309 219.461C406.522 264.013 396.045 309.31 375.158 349.637C366.136 367.053 355.017 383.509 340.956 397.34C327.122 410.947 310.936 421.841 293.523 430.444C255.361 449.295 213.011 458.694 172.691 471.84C126.159 487.014 80.9112 506.117 37.35 528.3C-2.18978 548.433 -40.9164 571.06 -75.5275 598.838C-105.298 622.73 -134.455 651.182 -151.128 685.914C-153.738 691.35 -155.99 696.95 -157.771 702.71C-158.291 704.398 -155.625 705.121 -155.105 703.439V703.444Z" fill="#FF0000"/>
<path d="M-144.266 712.924C-140.897 677.316 -119.943 644.918 -96.6499 618.697C-66.3258 584.557 -28.6944 557.661 10.6628 534.651C52.7471 510.052 97.4478 489.474 143.692 473.807C186.108 459.439 230.25 451.668 273.031 438.675C309.645 427.557 343.841 410.158 368.617 380.5C395.102 348.793 410.568 309.004 421.001 269.597C446.219 174.312 441.59 74.6704 454.428 -22.3848C460.502 -68.2957 468.318 -114.355 481.588 -158.819C486.926 -176.695 493.033 -194.702 501.707 -211.295C511.409 -229.844 525.028 -245.479 540.306 -259.727C547.741 -266.664 555.418 -273.344 562.98 -280.145C564.302 -281.334 562.338 -283.268 561.022 -282.085C545.578 -268.199 529.492 -254.767 516.393 -238.585C504.29 -223.63 495.694 -206.752 488.84 -188.909C473.783 -149.717 465.165 -108.097 458.273 -66.8327C450.031 -17.4803 445.683 32.1022 442.369 81.9806C438.984 132.889 435.92 184.077 426.212 234.268C417.887 277.297 405.059 320.895 381.373 358.274C370.857 374.867 358.007 389.915 342.419 402.037C326.682 414.273 308.727 423.299 290.013 430.143C248.781 445.224 204.91 452.112 162.914 464.771C116.443 478.778 71.488 498.111 28.9059 521.22C-10.324 542.504 -48.4035 567.202 -80.6304 598.131C-108.211 624.599 -133.728 656.87 -143.679 694.282C-145.306 700.397 -146.429 706.622 -147.026 712.919C-147.192 714.673 -144.426 714.662 -144.26 712.919L-144.266 712.924Z" fill="#FF0000"/>
<path d="M-133.47 722.767C-135.86 685.207 -119.746 648.87 -98.1124 618.873C-70.9026 581.149 -33.9294 551.48 5.35032 526.826C46.7597 500.835 91.5822 479.715 138.208 464.689C182.079 450.556 227.582 444.709 272.426 434.686C310.815 426.105 347.888 411.83 375.668 383.208C403.879 354.142 421.353 315.996 433.251 277.889C462.558 183.996 458.381 84.2223 467.558 -12.6192C472.066 -60.2289 477.454 -107.948 486.742 -154.906C490.265 -172.716 494.287 -190.547 499.863 -207.853C506.5 -228.447 516.867 -247.183 529.833 -264.505C536.233 -273.053 543.07 -281.279 549.874 -289.51C550.991 -290.863 549.044 -292.814 547.915 -291.449C535.032 -275.854 522 -260.214 512.015 -242.574C502.142 -225.137 495.985 -206.269 491.078 -186.958C480.469 -145.195 474.627 -102.255 469.699 -59.5219C463.88 -9.05168 460.848 41.4842 457.811 92.1737C454.786 142.688 451.085 193.536 439.762 243.004C430.137 285.068 415.29 327.471 389.436 362.614C377.543 378.78 363.127 392.907 346.112 403.741C328.865 414.723 309.687 422.126 289.989 427.524C246.494 439.438 201.312 443.931 157.801 455.954C110.865 468.92 65.6501 488.532 23.5216 512.704C-15.4262 535.052 -52.7976 561.722 -82.6792 595.32C-108.971 624.879 -130.809 660.898 -135.605 700.655C-136.49 707.993 -136.712 715.385 -136.242 722.761C-136.131 724.515 -133.365 724.526 -133.476 722.761L-133.47 722.767Z" fill="#FF0000"/>
<path d="M-122.728 732.247C-130.201 691.892 -118.07 650.629 -97.1052 616.023C-73.0705 576.348 -37.9117 544.762 0.42767 518.929C40.8027 491.727 85.4037 470.119 132.007 455.652C177.521 441.52 224.551 437.453 271.442 430.324C310.976 424.313 350.273 413.627 381.023 387C411.928 360.247 431.902 322.742 445.526 284.936C478.998 192.078 475.419 91.1596 481.316 -5.87918C484.253 -54.1684 487.411 -102.518 492.6 -150.632C497.064 -192.027 502.391 -233.308 521.303 -271.031C526.116 -280.632 531.476 -289.943 536.98 -299.166C537.887 -300.689 535.497 -302.07 534.59 -300.546C523.732 -282.337 513.592 -263.683 506.7 -243.604C499.99 -224.052 496.638 -203.7 493.817 -183.298C487.699 -139.075 484.48 -94.4733 481.437 -49.9598C477.941 1.14614 476.188 52.3013 473.278 103.435C470.413 153.85 465.827 204.633 452.513 253.536C441.14 295.309 423.56 337.313 394.298 370.028C380.713 385.219 364.555 397.653 346.179 406.651C327.803 415.649 306.977 421.271 286.421 425.063C240.189 433.59 193.159 436.056 147.595 448.287C100.97 460.798 56.2026 480.827 15.2413 506.117C-55.5685 549.825 -128.547 620.1 -127.734 708.99C-127.662 717.04 -126.86 725.057 -125.394 732.976C-125.073 734.707 -122.407 733.973 -122.728 732.247Z" fill="#FF0000"/>
<path d="M-111.938 742.089C-123.466 701.154 -117.238 657.463 -99.2488 619.284C-79.1416 576.606 -45.9245 541.803 -8.16035 513.839C29.6037 485.875 75.3666 462.158 122.009 447.614C169.614 432.774 218.623 429.958 267.982 425.733C309.634 422.165 352.25 415.211 386.629 389.888C418.944 366.083 441.076 330.897 456.41 294.548C495.169 202.666 492.431 99.6981 495.263 1.99626C496.707 -47.7287 497.802 -97.4646 499.202 -147.19C500.424 -190.552 500.269 -234.858 512.61 -276.84C515.808 -287.717 519.718 -298.359 523.994 -308.859C524.658 -310.492 521.986 -311.204 521.328 -309.588C512.76 -288.561 506.072 -266.954 502.504 -244.524C499.113 -223.218 498.333 -201.627 497.509 -180.108C495.722 -133.397 495.042 -86.6472 493.759 -39.9198C492.331 12.0191 491.74 64.084 488.708 115.963C485.766 166.351 480.018 217.15 464.314 265.373C451.116 305.914 430.975 346.186 399.335 375.75C366.46 406.471 323.64 417.447 279.775 421.891C231.838 426.752 183.83 427.941 136.999 440.413C90.2243 452.875 45.5181 473.825 5.51923 500.808C-31.6862 525.911 -65.6666 556.829 -89.2754 595.118C-111.645 631.406 -124.379 674.209 -119.672 716.893C-118.704 725.661 -117.011 734.319 -114.616 742.813C-114.14 744.506 -111.468 743.788 -111.949 742.084L-111.938 742.089Z" fill="#FF0000"/>
<path d="M-101.145 751.936C-116.163 710.201 -115.134 664.46 -100.37 622.791C-84.3838 577.685 -53.6835 539.824 -16.8487 509.581C20.6886 478.761 64.5263 454.891 110.864 439.909C135.557 431.924 161.036 426.795 186.868 424.176C211.733 421.655 236.719 421.31 261.683 420.647C305.504 419.49 351.206 416.789 389.734 393.795C424.732 372.911 449.923 338.749 467.336 302.751C511.152 212.157 509.448 107.347 509.498 9.17429C509.525 -41.97 508.552 -93.0595 506.295 -144.16C504.287 -189.622 498.789 -235.938 504.049 -281.317C505.493 -293.768 507.855 -306.076 510.892 -318.236C511.318 -319.945 508.651 -320.68 508.225 -318.965C502.456 -295.856 499.585 -272.33 499.275 -248.536C498.971 -225.263 500.703 -202.006 501.881 -178.771C504.342 -130.307 506.179 -81.8146 506.632 -33.2898C507.13 20.0246 507.578 73.591 504.259 126.823C501.117 177.184 494.103 227.928 476.104 275.384C460.698 316.007 437.084 355.934 401.654 382.479C364.797 410.098 319.068 415.917 274.179 417.512C223.863 419.304 173.792 419.266 124.887 432.812C79.0191 445.52 35.4302 467.095 -2.79302 495.19C-39.3568 522.064 -71.4952 555.442 -91.9344 596.076C-111.726 635.422 -119.703 680.314 -111.682 723.758C-109.868 733.59 -107.207 743.234 -103.822 752.649C-103.23 754.298 -100.553 753.586 -101.156 751.92L-101.145 751.936Z" fill="#FF0000"/>
<path d="M-90.3514 761.779C-108.877 718.158 -112.245 669.304 -99.8712 623.574C-87.497 577.844 -59.6012 536.959 -24.0387 504.775C11.7617 472.377 54.8195 447.34 100.71 431.87C125.231 423.606 150.615 418.334 176.404 416C202.662 413.627 229.037 414.109 255.361 414.728C301.854 415.819 350.654 417.244 393.507 396.42C431.072 378.166 459.228 344.958 478.787 308.998C527.465 219.506 526.453 112.367 523.864 13.52C522.481 -39.3121 519.284 -92.0291 513.376 -144.56C510.92 -166.425 508.044 -188.246 504.764 -210.001C500.798 -236.36 496.61 -262.779 496.018 -289.471C495.736 -302.333 496.35 -315.178 497.827 -327.957C498.032 -329.705 495.26 -329.694 495.061 -327.957C489.198 -277.262 500.023 -227.345 506.611 -177.281C513.249 -126.882 517.652 -76.203 519.821 -25.4204C522.111 28.1954 523.483 82.2056 519.898 135.794C516.457 187.201 507.933 239.063 486.814 286.481C469.4 325.575 443.374 362.943 406.418 386.123C364.643 412.323 314.594 413.276 266.745 412.262C215.091 411.172 163.803 410.399 113.714 424.932C68.6429 438.007 26.177 460.354 -10.3536 489.552C-45.8055 517.883 -75.5266 553.185 -93.0286 595.123C-111.034 638.266 -115.022 686.49 -103.467 731.809C-100.789 742.303 -97.2658 752.55 -93.0341 762.524C-92.3537 764.124 -89.6765 763.422 -90.368 761.795L-90.3514 761.779Z" fill="#FF0000"/>
<path d="M-79.6998 771.297C-101.483 725.841 -108.906 674.055 -99.1267 624.55C-89.5681 576.162 -64.2058 533.018 -29.0637 498.484C5.24316 464.771 47.604 438.714 93.2174 422.948C117.717 414.482 143.179 409.199 169.05 407.204C196.227 405.111 223.486 406.421 250.641 408.218C300.11 411.495 352.25 416.849 399.318 397.603C438.222 381.695 468.552 350.366 489.998 315.141C544.357 225.851 543.505 114.784 538.106 14.0624C535.224 -39.641 529.604 -93.1526 520.178 -146.133C516.002 -169.62 511.084 -192.975 505.425 -216.161C498.937 -242.733 491.729 -269.229 487.752 -296.321C485.761 -309.912 484.721 -323.601 484.737 -337.333C484.737 -339.098 481.971 -339.098 481.971 -337.333C481.927 -284.446 499.374 -233.845 510.26 -182.585C521.246 -130.855 528.564 -78.3842 532.751 -25.6891C537.149 29.609 539.588 85.5701 535.81 140.972C532.248 193.174 522.54 245.782 499.025 293.03C479.493 332.271 450.392 368.686 410.725 389.312C364.79 413.199 311.56 409.621 261.505 406.218C208.501 402.612 155.802 400.941 104.391 416.46C59.6463 429.962 17.8054 453.296 -17.3146 483.88C-52.6282 514.627 -80.5682 553.091 -95.0001 597.681C-110.085 644.288 -109.62 695.038 -94.5686 741.59C-91.128 752.227 -86.9184 762.595 -82.0838 772.689C-81.3205 774.284 -78.9364 772.892 -79.6943 771.308L-79.6998 771.297Z" fill="#FF0000"/>
<path d="M-68.9056 781.139C-93.7479 733.891 -105.06 679.711 -98.2782 626.659C-91.8173 576.09 -68.7784 529.571 -33.9128 492.329C-0.939096 457.115 40.9903 429.842 86.6479 413.703C110.981 405.1 136.36 399.839 162.138 398.124C190.564 396.233 219.03 398.403 247.296 401.362C298.474 406.716 352.103 415.517 402.291 399.499C443.247 386.43 476.53 356.843 500.355 322.002C561.031 233.26 560.616 118.088 552.247 15.3884C547.761 -39.6631 539.601 -94.4132 526.608 -148.149C520.562 -173.16 513.459 -197.902 505.322 -222.326C496.206 -249.698 485.995 -276.786 479.008 -304.805C475.568 -318.598 473.018 -332.566 471.624 -346.71C471.452 -348.447 468.687 -348.469 468.858 -346.71C474.323 -291.379 498.065 -240.103 513.409 -187.134C528.787 -134.033 539.27 -79.5681 545.587 -24.6975C552.086 31.7733 555.671 89.225 551.715 146.008C548.026 198.928 537.073 252.16 511.213 299.068C489.225 338.951 456.346 374.889 413.31 392.578C363.846 412.909 308.907 405.319 257.297 399.691C205.688 394.063 150.582 391.137 98.5519 406.914C53.3921 420.603 11.496 445.087 -22.7556 477.26C-57.6377 510.024 -83.6694 551.025 -95.4904 597.391C-108.34 647.817 -104.158 701.532 -85.8875 750.122C-81.7167 761.219 -76.8103 772.015 -71.2898 782.514C-70.4656 784.076 -68.0814 782.695 -68.9001 781.133L-68.9056 781.139Z" fill="#FF0000"/>
<path d="M-58.1147 790.981C-85.2084 743.125 -100.083 688.27 -97.3446 633.246C-94.7282 580.677 -75.318 530.432 -41.5532 489.82C-10.1007 451.981 31.7955 422.433 78.1004 405.198C102.196 396.228 127.492 390.682 153.18 388.972C182.94 386.994 212.739 389.877 242.2 393.943C295.453 401.297 350.757 413.638 404.204 401.067C448.301 390.693 485.335 362.17 512.003 326.518C578.321 237.852 577.718 118.4 565.936 13.5856C559.519 -43.4989 548.279 -100.074 531.264 -155.005C523.243 -180.897 513.878 -206.335 503.352 -231.335C491.813 -258.751 479.179 -285.778 469.664 -313.978C464.974 -327.88 461.146 -342.03 458.463 -356.442C458.142 -358.173 455.476 -357.439 455.797 -355.713C466.555 -297.894 496.354 -245.873 516.262 -190.986C535.59 -137.705 549.214 -82.4557 557.843 -26.511C566.92 32.3161 571.915 92.6557 567.529 152.119C563.546 206.151 550.907 260.325 522.043 306.894C497.333 346.755 460.742 381.021 415.012 395.28C361.019 412.114 303.49 399.938 249.043 392.162C194.595 384.386 141.426 381.624 89.0474 398.497C43.4782 413.177 1.71477 439.569 -31.1871 474.049C-65.1012 509.586 -88.1345 553.584 -96.6034 601.874C-105.797 654.311 -97.9532 708.787 -77.5029 757.778C-72.5522 769.642 -66.8545 781.172 -60.5154 792.367C-59.6469 793.907 -57.2574 792.526 -58.1258 790.986L-58.1147 790.981Z" fill="#FF0000"/>
<path d="M-47.3262 800.828C-76.8537 751.723 -95.0084 695.378 -95.6169 637.975C-96.1866 584.283 -80.6318 531.402 -48.7146 487.82C-18.9547 447.186 22.9359 415.068 70.0429 396.584C93.7568 387.279 118.854 381.421 144.31 379.646C174.529 377.536 204.77 380.824 234.558 385.717C290.106 394.842 346.849 410.739 403.542 402.387C451.445 395.335 493.148 368.171 523.317 331.252C595.316 243.146 594.896 119.984 579.562 13.3336C570.955 -46.5402 556.374 -105.477 534.95 -162.14C524.783 -189.019 513.006 -215.218 500.051 -240.886C486.128 -268.489 471.204 -295.68 459.433 -324.286C453.863 -337.826 449.078 -351.658 445.355 -365.813C444.907 -367.517 442.241 -366.793 442.689 -365.084C457.929 -307.15 491.367 -256.323 515.59 -201.99C539.813 -147.656 557.812 -89.5962 569.34 -30.8348C581.156 29.4117 587.948 91.6529 583.772 153.034C579.977 208.836 566.099 264.753 534.436 311.711C506.994 352.41 466.464 385.564 417.697 396.94C359.986 410.405 300.444 394.321 243.524 384.474C214.561 379.465 185.216 375.547 155.744 376.358C130.238 377.059 104.964 381.547 80.8185 389.74C34.7792 405.363 -6.84608 433.689 -38.365 470.394C-71.1175 508.534 -91.1695 555.069 -96.7398 604.844C-102.88 659.714 -91.7281 715.654 -68.9546 765.762C-63.2681 778.278 -56.8129 790.422 -49.7214 802.215C-48.8087 803.727 -46.419 802.352 -47.3317 800.834L-47.3262 800.828Z" fill="#FF0000"/>
<path d="M-36.5331 810.67C-96.9048 715.177 -119.346 586.119 -55.5009 486.543C-28.2579 444.052 11.9567 409.835 58.4718 389.576C82.5729 379.081 108.427 372.418 134.669 370.259C165.53 367.722 196.496 371.371 226.814 376.994C285.211 387.822 344.023 407.479 404.151 402.722C454.301 398.749 499.411 374.429 532.915 337.669C613.151 249.634 611.989 120.083 592.474 10.1005C581.643 -50.9241 563.588 -110.683 538.536 -167.46C526.023 -195.808 511.586 -223.169 495.987 -249.961C480.316 -276.873 463.909 -303.423 450.263 -331.426C443.337 -345.635 437.225 -360.195 432.252 -375.189C431.699 -376.854 429.027 -376.142 429.586 -374.46C449.245 -315.178 486.832 -264.253 515.452 -209.212C544.333 -153.667 566.094 -94.5389 580.565 -33.7335C595.361 28.4528 604.107 93.297 599.731 157.242C595.798 214.716 580.078 272.086 544.991 318.802C514.147 359.869 469.358 390.759 417.671 398.464C356.419 407.588 295.312 387.647 235.858 375.947C206.209 370.116 176.007 365.76 145.699 366.878C120.232 367.815 94.9858 372.812 71.0893 381.591C25.0942 398.491 -15.596 428.719 -45.3283 467.33C-113.721 556.155 -107.653 676.763 -60.3852 773.686C-53.9575 786.866 -46.7555 799.65 -38.9117 812.057C-37.9714 813.548 -35.5761 812.172 -36.522 810.676L-36.5331 810.67Z" fill="#FF0000"/>
<path d="M-25.7416 820.512C-89.5207 723.819 -120.813 590.804 -61.1714 484.724C-35.8533 439.689 3.83585 402.744 51.0589 380.999C75.6855 369.661 102.337 362.576 129.419 360.455C160.883 357.989 192.418 362.28 223.157 368.724C283.192 381.306 342.767 403.516 404.892 402.459C457.934 401.554 507.055 379.333 544.1 341.966C631.576 253.722 629.148 117.672 604.516 4.78485C590.963 -57.3193 569.396 -117.686 540.659 -174.486C525.995 -203.469 509.218 -231.203 491.445 -258.4C473.672 -285.597 455.473 -312.268 439.907 -340.638C432.107 -354.858 425.066 -369.468 419.136 -384.554C418.5 -386.181 415.822 -385.474 416.47 -383.825C439.984 -323.99 480.669 -273.316 513.35 -218.424C546.03 -163.531 572.947 -101.57 590.77 -38.6656C623.589 77.1474 638.817 222.947 557.254 323.197C523.013 365.283 473.97 394.535 419.064 399.028C355.384 404.24 293.453 381.487 232.229 367.886C202.054 361.184 171.183 356.164 140.162 357.129C114.235 357.94 88.4911 363.173 64.3071 372.461C18.0077 390.244 -22.1847 422.23 -50.4843 462.579C-117.383 557.963 -102.542 684.522 -51.0153 783.161C-44.0677 796.461 -36.3954 809.366 -28.1312 821.899C-27.1632 823.367 -24.768 821.997 -25.7416 820.518V820.512Z" fill="#FF0000"/>
<path d="M-14.9436 830.355C-82.3349 731.847 -121.664 594.547 -65.7733 482.022C-42.2309 434.626 -3.0728 394.995 45.0022 371.892C69.7781 359.984 96.7778 352.641 124.242 350.564C156.087 348.153 187.971 352.964 218.921 360.105C280.863 374.396 341.451 399.182 405.645 401.67C461.077 403.818 513.82 384.26 554.45 346.854C650.218 258.676 646.18 115.584 616.011 -0.393434C599.172 -65.1225 573.207 -127.512 539.725 -185.522C506.319 -243.401 462.493 -294.343 428.247 -351.636C420.005 -365.429 412.465 -379.611 405.894 -394.264C405.174 -395.87 402.79 -394.478 403.504 -392.883C430.758 -332.089 474.729 -281.103 511.403 -225.953C549.416 -168.792 579.845 -106.639 601.086 -41.4875C639.669 76.8518 657.979 229.507 567.272 329.976C529.519 371.788 476.93 397.867 419.994 399.061C353.991 400.448 291.091 374.851 227.97 359.436C197.596 352.016 166.348 346.416 134.946 347.27C108.604 347.988 82.4509 353.419 58.0179 363.19C10.579 382.161 -29.6687 416.827 -56.5356 459.834C-119.927 561.306 -96.9327 691.981 -42.0096 791.738C-34.4535 805.465 -26.1894 818.786 -17.3333 831.73C-16.3376 833.182 -13.9424 831.812 -14.9436 830.349V830.355Z" fill="#FF0000"/>
<path d="M279.659 847.491C339.428 783.523 404.286 714.536 426.456 627.668C436.391 588.739 437.116 546.499 421.041 509.049C405.923 473.83 377.264 446.556 345.546 425.672C271.799 377.109 181.867 361.634 106.537 316.123C73.8292 296.362 43.151 270.267 25.2729 236.132C6.34386 199.997 6.75875 158.865 19.8962 120.911C49.0311 36.7444 125.837 -19.7921 197.139 -67.8676C206.432 -74.1312 215.775 -80.329 225.118 -86.5268C226.589 -87.5023 225.206 -89.8751 223.724 -88.8942C152.084 -41.3941 74.2606 8.87886 32.3312 86.1844C13.8779 120.204 2.70967 159.692 9.42501 198.375C15.6923 234.466 37.6968 265.422 64.9288 289.326C131.042 347.358 220.997 365.207 298.666 402.563C334.765 419.929 370.084 441.953 395.706 473.074C422.529 505.641 433.448 546.423 430.312 588.048C423.425 679.53 360.625 755.263 300.995 820.42C293.283 828.842 285.501 837.199 277.707 845.545C276.501 846.838 278.448 848.778 279.665 847.485L279.659 847.491Z" fill="#FF0000"/>
<path d="M212.972 -85.7437C144.818 -37.8929 74.4172 14.309 37.5271 90.9405C21.0817 125.108 11.3461 163.747 16.8611 201.668C21.9888 236.948 41.0396 268.222 66.3909 292.975C127.26 352.416 214.211 373.349 288.722 410.284C323.93 427.738 358.425 449.038 384.739 478.46C412.336 509.318 426.292 548.143 425.916 589.297C425.097 678.094 366.933 752.199 310.903 816.123C303.674 824.37 296.377 832.563 289.081 840.755C287.909 842.071 289.856 844.016 291.039 842.695C346.753 780.175 407.889 713.078 424.544 628.555C432.205 589.686 429.722 548.329 411.622 512.523C394.718 479.079 365.732 453.28 334.573 433.015C262.768 386.32 176.132 368.143 104.968 320.473C74.3176 299.945 46.6266 273.247 31.022 239.546C14.3387 203.515 15.2126 163.078 26.7515 125.689C52.3572 42.7006 120.882 -16.28 189.336 -65.6159C197.639 -71.6 206.002 -77.5019 214.377 -83.3818C215.815 -84.3956 214.438 -86.7685 212.983 -85.7492L212.972 -85.7437Z" fill="#FF0000"/>
<path d="M202.223 -82.5977C137.62 -34.1057 75.2012 20.2115 42.9908 95.8292C28.1109 130.758 19.4982 169.578 24.5707 207.521C29.1121 241.53 45.4856 272.486 68.7238 297.628C94.7609 325.8 127.934 346.098 162.064 363.25C200.458 382.545 240.524 398.377 278.78 417.956C313.491 435.722 347.56 456.645 374.548 484.982C402.472 514.299 418.878 551.245 421.108 591.572C425.848 677.169 373.121 749.115 320.781 811.822C314.038 819.899 307.24 827.922 300.453 835.961C299.319 837.304 301.266 839.254 302.411 837.901C354.109 776.695 411.228 711.544 422.291 629.438C427.413 591.419 422.02 551.815 402.914 518.102C384.693 485.957 355.591 461.149 324.825 441.164C289.777 418.4 251.415 401.451 213.38 384.299C175.832 367.371 137.714 350.208 104.469 325.674C75.5497 304.335 50.3091 276.843 36.8452 243.311C22.3635 207.247 23.5363 167.6 33.7199 130.594C55.8849 50.0443 114.846 -11.1941 179.311 -61.6534C187.343 -67.9389 195.463 -74.1093 203.622 -80.2304C205.022 -81.2825 203.645 -83.6608 202.228 -82.5977H202.223Z" fill="#FF0000"/>
<path d="M191.187 -79.2334C161.25 -54.9135 132.331 -29.1961 107.671 0.483224C82.895 30.316 62.749 63.6888 49.0473 99.9003C35.683 135.229 27.8448 173.852 31.916 211.647C35.5171 245.119 49.3848 276.365 70.8529 302.351C93.8642 330.2 124.045 350.969 155.48 368.472C192.454 389.055 231.429 405.818 268.834 425.59C303.019 443.657 336.723 464.223 364.259 491.524C391.801 518.831 410.282 552.976 415.653 591.401C421.029 629.86 413.722 669.047 397.918 704.338C381.224 741.623 356.52 774.673 331.296 806.648C324.83 814.846 318.308 822.995 311.808 831.171C310.719 832.541 312.666 834.492 313.767 833.111C361.814 772.651 415.066 708.892 419.818 628.621C422.009 591.626 413.518 554.116 393.344 522.705C373.436 491.7 343.964 467.823 313.125 448.041C278.896 426.088 241.939 408.881 205.431 391.066C169.188 373.382 132.43 355.024 101.415 329.017C74.9684 306.839 53.2458 278.957 42.2325 246.138C30.063 209.861 31.9713 170.728 41.1925 134.018C50.8561 95.5382 68.2917 59.0637 91.1371 26.5677C113.794 -5.66535 141.707 -33.7335 171.605 -59.3741C178.691 -65.4514 185.887 -71.4027 193.134 -77.2882C194.511 -78.4061 192.542 -80.335 191.176 -79.2281L191.187 -79.2334Z" fill="#FF0000"/>
<path d="M180.439 -76.0823C153.528 -52.0308 128.254 -26.1875 107.107 3.05896C84.7209 34.0206 67.1969 68.2702 55.1712 104.438C43.3392 140.025 36.1924 178.236 39.185 215.796C41.8125 248.774 53.1854 280.453 72.8446 307.245C93.3612 335.193 121.135 356.581 150.597 374.604C185.6 396.02 222.878 413.463 258.861 433.146C292.631 451.619 326.069 471.966 354.153 498.418C382.237 524.87 401.763 556.363 409.823 593.342C417.595 628.989 414.165 666.334 401.515 700.469C387.675 737.804 364.436 770.749 340.872 802.599C334.931 810.627 328.935 818.622 322.994 826.65C321.937 828.075 324.338 829.439 325.383 828.031C349.103 796.012 373.99 764.365 392.067 728.74C408.092 697.17 417.628 662.877 416.682 627.361C415.72 591.237 404.197 555.733 382.779 526.388C361.416 497.125 332.06 474.427 301.636 455.033C267.689 433.399 231.441 415.715 195.878 396.902C161.798 378.868 127.48 359.671 99.3796 333.034C75.2674 310.177 56.8307 281.988 47.958 249.969C37.7854 213.259 40.3134 174.241 48.7656 137.46C57.323 100.196 72.0094 64.1986 91.735 31.3628C111.477 -1.49492 136.38 -30.7907 164.116 -57.2862C170.112 -63.0127 176.23 -68.6187 182.414 -74.148C183.736 -75.3317 181.778 -77.266 180.456 -76.0878L180.439 -76.0823Z" fill="#FF0000"/>
<path d="M169.683 -72.9369C145.798 -48.9074 124.208 -22.7681 106.524 6.10575C87.014 37.9552 72.1672 72.539 61.7014 108.296C42.3907 174.247 35.5702 250.264 73.8155 311.031C91.5387 339.198 116.884 361.31 144.338 379.898C177.511 402.36 213.399 420.559 248.237 440.287C312.503 476.674 380.636 520.48 403.238 594.574C413.355 627.728 413.892 663.589 404.305 696.923C393.646 734.006 372.261 766.688 350.583 798.269C345.184 806.138 339.735 813.975 334.358 821.855C333.357 823.318 335.752 824.694 336.748 823.236C358.294 791.666 381.405 760.595 396.827 725.463C410.467 694.381 416.619 660.997 412.796 627.191C408.825 592.108 394.752 558.73 372.51 531.166C349.919 503.164 320.364 481.266 290.106 462.026C256.938 440.939 221.935 422.959 187.844 403.434C155.7 385.027 123.533 365.08 98.1213 337.9C75.7073 313.919 60.1138 284.815 53.3099 252.791C45.5436 216.239 48.6137 178.022 56.1809 141.707C71.3375 68.9223 105.252 0.927153 155.617 -54.223C160.833 -59.9331 166.193 -65.5117 171.647 -70.9971C172.897 -72.252 170.945 -74.1918 169.689 -72.9369H169.683Z" fill="#FF0000"/>
<path d="M158.93 -69.7861C114.401 -17.6664 85.7859 45.0021 68.6988 110.833C59.3726 146.765 53.1275 183.99 53.3598 221.171C53.5589 252.818 59.168 284.591 73.7492 312.988C88.3305 341.385 111.458 364.965 137.174 384.402C167.897 407.626 201.838 426.357 235.028 445.821C297.972 482.74 366.492 523.96 395.278 594.18C407.846 624.834 412.581 659.09 406.651 691.788C399.946 728.756 380.558 761.526 360.811 792.997C355.777 801.014 350.704 809.004 345.72 817.054C344.786 818.561 347.181 819.942 348.11 818.435C367.526 787.074 388.939 756.287 401.468 721.38C412.492 690.654 414.716 658.054 408.011 626.128C400.876 592.141 384.104 560.615 360.805 534.788C336.726 508.095 306.916 486.943 276.614 467.763C243.906 447.06 209.793 428.658 176.974 408.141C147.015 389.411 117.382 368.658 95.1841 340.93C75.3036 316.1 63.1562 286.613 58.576 255.322C53.1938 218.546 56.9056 180.631 63.9307 144.332C77.3669 74.8788 103.592 6.03974 146.932 -50.6338C151.418 -56.4973 156.087 -62.2239 160.883 -67.8354C162.028 -69.1725 160.081 -71.1234 158.925 -69.7753L158.93 -69.7861Z" fill="#FF0000"/>
<path d="M147.966 -66.3608C110.628 -12.7944 89.8792 51.1181 75.6188 114.121C67.5759 149.647 61.7234 185.941 60.5065 222.377C59.4389 254.342 62.3319 287.002 74.8001 316.802C101.396 380.358 165.9 416.915 222.25 451.389C283.65 488.954 351.202 527.637 385.852 593.177C401.075 621.969 409.759 654.838 407.68 687.465C405.362 723.77 388.441 756.469 370.895 787.666C366.287 795.858 361.629 804.024 357.099 812.254C356.247 813.805 358.636 815.186 359.488 813.635C376.946 781.896 397.053 750.698 406.009 715.259C413.604 685.202 411.496 653.835 402.037 624.424C391.466 591.566 372.228 562.008 347.728 537.649C322.239 512.31 292.169 491.837 261.85 472.635C230.121 452.546 197.446 433.892 166.458 412.663C137.998 393.165 110.307 371.081 91.2953 342.015C53.3321 283.994 60.324 209.434 72.1892 144.611C78.5893 109.649 87.4563 75.0325 98.8293 41.3309C109.4 10.002 122.449 -20.6747 139.829 -48.9347C143.182 -54.3872 146.7 -59.7301 150.362 -64.9853C151.374 -66.4375 148.979 -67.813 147.972 -66.3663L147.966 -66.3608Z" fill="#FF0000"/>
<path d="M137.216 -63.2101C124.532 -38.7477 115.405 -12.5755 107.6 13.7611C97.7091 47.1449 89.7934 81.1589 83.0559 115.293C76.0917 150.584 70.4716 186.253 67.8607 222.141C65.5485 253.908 65.4766 286.668 74.7586 317.454C94.3016 382.26 154.718 421.545 209.005 456.431C269.509 495.311 336.718 532.278 376.318 594.224C393.538 621.158 405.757 652.284 407.483 684.347C409.391 719.747 395.585 752.079 380.279 783.26C376.324 791.321 372.319 799.354 368.474 807.465C367.722 809.054 370.106 810.446 370.864 808.846C385.86 777.232 404.037 746.062 409.049 710.946C413.203 681.821 407.334 652.273 395.905 625.361C382.331 593.391 360.94 565.251 335.274 541.83C308.955 517.811 279.045 497.941 249.081 478.723C219.116 459.505 185.932 439.399 156.272 417.03C129.665 396.962 104.419 373.886 88.6982 344.212C74.0008 316.467 69.3708 285.308 69.3597 254.287C69.3431 217.883 74.1833 181.425 80.2846 145.586C86.043 111.753 93.3115 78.1503 101.88 44.9035C109.895 13.7939 119.1 -17.3322 132.309 -46.7156C134.605 -51.8174 137.033 -56.8535 139.605 -61.8238C140.418 -63.3911 138.029 -64.7774 137.216 -63.2046V-63.2101Z" fill="#FF0000"/>
<path d="M126.324 -59.7357C118.519 -34.8896 113.469 -9.18865 108.513 16.3314C102.052 49.6275 96.0833 83.0333 90.4577 116.477C84.5666 151.494 79.1844 186.631 75.4008 221.939C71.9601 254.068 69.1777 287.183 75.4892 319.147C81.2089 348.12 95.4527 373.837 115.355 395.631C138.748 421.25 167.396 441.876 196.022 461.341C255.044 501.471 321.102 536.783 365.062 594.378C384.478 619.815 400.06 649.254 406.04 680.813C409.016 696.518 409.038 712.547 406.068 728.263C402.815 745.503 396.454 761.938 389.821 778.131C386.43 786.411 382.968 794.664 379.704 802.999C379.062 804.643 381.734 805.355 382.37 803.728C395.115 771.166 411.477 738.916 411.09 703.149C410.786 674.609 400.514 646.607 386.591 621.936C351.438 559.662 290.917 520.393 232.298 482.088C201.609 462.037 170.638 441.964 142.775 418.099C118.541 397.346 96.6973 373.202 85.2082 343.133C74.0455 313.92 73.4591 282.3 75.5169 251.503C77.9342 215.33 83.1616 179.305 88.8204 143.515C94.103 110.099 100.083 76.797 106.189 43.5228C111.61 13.9805 117.07 -15.6878 124.847 -44.7315C126.131 -49.5155 127.497 -54.2776 128.98 -59.0013C129.511 -60.6891 126.839 -61.4125 126.313 -59.7302L126.324 -59.7357Z" fill="#FF0000"/>
<path d="M115.527 -56.2226C113.63 -31.7821 112.153 -7.31978 109.885 17.0933C106.76 50.7237 102.506 84.2062 97.8427 117.656C92.9583 152.733 87.7698 187.766 82.9794 222.86C78.6261 254.747 73.4374 287.391 76.4411 319.635C79.1294 348.548 89.9271 375.109 107.888 398.02C128.654 424.516 155.548 445.921 182.714 465.632C240.027 507.225 304.774 541.222 352.395 594.498C374.035 618.703 392.914 646.651 403.208 677.552C407.877 691.575 410.493 706.125 409.979 720.926C409.365 738.626 404.53 755.745 399.203 772.541C396.493 781.09 393.672 789.606 391.094 798.198C390.585 799.892 393.257 800.615 393.76 798.927C403.601 766.081 416.921 733.711 411.351 698.781C406.876 670.702 393.185 644.245 377.005 621.092C336.248 562.764 275.335 525.517 217.22 486.319C187.294 466.136 157.412 445.214 131.53 420.006C109.122 398.185 90.5909 372.796 82.9739 342.185C75.4012 311.744 78.5044 279.802 82.2935 249.059C86.752 212.886 92.2338 176.834 97.3615 140.748C101.925 108.647 106.472 76.5234 109.924 44.2849C113.027 15.3124 115.323 -13.7204 117.325 -42.786C117.635 -47.2631 117.945 -51.7455 118.293 -56.2172C118.431 -57.9762 115.666 -57.9653 115.527 -56.2172V-56.2226Z" fill="#FF0000"/>
<path d="M104.821 -52.7102C109.429 -29.5246 110.917 -5.78006 111.149 17.8111C111.47 50.3071 109.069 82.7156 105.601 115.009C101.828 150.097 96.8998 185.064 91.2576 219.9C86.0137 252.309 78.5958 284.947 77.932 317.882C77.3567 346.618 84.1606 374.314 99.8592 398.645C117.577 426.105 142.646 448.496 168.241 468.586C223.811 512.206 287.855 545.425 338.597 594.991C362.216 618.062 383.751 644.207 398.465 673.815C404.633 686.221 409.6 699.417 411.719 713.133C414.534 731.387 411.763 749.652 407.974 767.549C406.148 776.169 404.163 784.756 402.453 793.403C402.11 795.124 404.776 795.864 405.119 794.132C408.532 776.854 413.223 759.751 414.993 742.193C416.614 726.093 415.098 710.097 410.076 694.693C401.115 667.2 384.382 642.382 365.889 620.314C320.044 565.624 258.14 529.873 200.456 489.091C148.659 452.469 88.5472 406.432 81.5055 338.93C78.1312 306.577 84.9351 273.911 90.3394 242.143C96.2029 207.686 101.425 173.118 105.667 138.43C112.897 79.3016 118.622 18.2768 109.661 -40.9942C109.031 -45.1589 108.306 -49.3072 107.487 -53.4336C107.144 -55.1598 104.478 -54.4309 104.821 -52.7048V-52.7102Z" fill="#FF0000"/>
<path d="M94.2054 -49.2359C105.02 -28.7025 109.583 -4.99642 112.244 17.7947C115.956 49.6002 115.336 81.6962 112.991 113.573C110.446 148.261 105.916 182.829 99.7646 217.067C93.8292 250.084 84.5915 282.646 80.4207 315.958C76.8085 344.81 79.5301 373.574 93.088 399.714C107.874 428.215 131.405 451.789 155.705 472.482C209.55 518.332 273.301 551.272 326.338 598.087C351.877 620.632 375.995 645.67 394.432 674.352C401.723 685.69 408.283 697.757 412.41 710.607C417.853 727.556 417.869 745.12 416.315 762.667C415.535 771.44 414.512 780.191 413.776 788.97C413.626 790.729 416.398 790.718 416.542 788.97C417.996 771.61 420.795 754.206 419.883 736.741C419.081 721.414 414.899 706.848 408.205 693.06C395.09 666.055 375.293 642.25 354.361 620.851C329.618 595.561 301.944 573.789 272.953 553.508C243.342 532.788 212.841 513.28 183.961 491.541C155.08 469.802 128.745 447.29 108.272 418.932C99.4659 406.728 91.9928 393.45 87.4348 379.098C82.8768 364.746 81.1897 349.906 81.6432 334.974C82.6666 301.354 92.5183 268.392 99.0622 235.578C105.778 201.904 110.756 167.852 114.042 133.684C117.117 101.676 118.838 69.3883 116.752 37.2649C115.065 11.279 111.436 -15.4849 101.573 -39.8049C100.08 -43.482 98.437 -47.0932 96.5839 -50.6059C95.7597 -52.1676 93.3702 -50.7868 94.1944 -49.225L94.2054 -49.2359Z" fill="#FF0000"/>
<path d="M83.6762 -45.8108C99.7897 -28.3243 108.021 -4.45927 113.176 18.2222C120.29 49.5346 121.407 81.8498 120.135 113.814C118.752 148.552 114.565 183.24 107.871 217.363C101.25 251.131 90.1703 283.769 83.1065 317.41C77.2209 345.457 76.3413 374.259 87.3381 401.243C99.242 430.451 120.92 455.083 143.854 476.406C196.327 525.188 260.792 558.457 316.185 603.562C342.991 625.383 368.829 649.056 390.419 676.056C398.711 686.43 406.477 697.422 412.496 709.265C420.389 724.795 423.299 741.607 424.2 758.831C424.643 767.27 424.776 775.725 425.152 784.17C425.229 785.923 427.995 785.934 427.918 784.17C427.199 768.042 427.464 751.734 424.416 735.809C421.529 720.723 415.173 706.958 406.864 694.085C390.17 668.22 368.182 645.73 345.436 625.065C318.636 600.724 289.617 579.396 259.697 559.005C229.317 538.301 198.374 518.228 169.748 495.136C143.196 473.715 117.496 449.433 99.8838 420.044C92.1838 407.199 86.3203 393.351 83.4937 378.638C80.5619 363.387 80.9104 347.737 83.1839 332.426C88.1346 299.091 99.8229 267.012 107.163 234.17C114.725 200.359 119.598 165.885 121.949 131.334C124.09 99.8953 124.245 68.1061 119.488 36.8869C115.555 11.0545 108.557 -15.9014 93.5445 -37.7828C91.1438 -41.2844 88.5109 -44.6217 85.6344 -47.7507C84.4341 -49.055 82.4814 -47.115 83.6762 -45.8108Z" fill="#FF0000"/>
<path d="M73.2 -42.4468C93.346 -28.1332 105.781 -4.99682 113.625 17.7559C124.135 48.2627 127.266 80.693 127.177 112.767C127.083 147.504 123.344 182.335 116.302 216.36C109.188 250.73 96.6759 283.292 86.6582 316.84C78.3111 344.782 73.648 374.073 82.1279 402.59C91.161 432.966 111.617 459.176 133.693 481.479C184.44 532.75 249.353 566.594 306.594 609.776C334.761 631.027 362.308 653.615 386.824 678.987C396.228 688.725 405.299 698.934 413.033 710.042C422.757 724.005 428.466 739.612 432.034 756.107C433.726 763.948 435.081 771.856 436.58 779.736C436.907 781.468 439.573 780.734 439.247 779.007C436.254 763.236 433.848 747.191 427.973 732.143C422.63 718.454 414.399 706.442 405.056 695.148C384.656 670.483 360.25 649.067 335.43 628.901C307.136 605.918 277.282 585.264 246.98 564.999C216.07 544.323 184.916 523.664 156.804 499.278C130.933 476.832 106.279 450.803 91.62 419.611C85.0098 405.544 81.0105 390.507 80.3523 374.977C79.7051 359.699 82.1444 344.536 85.9336 329.762C94.4964 296.372 107.933 264.457 115.92 230.876C123.947 197.12 128.488 162.443 129.677 127.793C130.767 96.0916 129.119 63.9299 121.131 33.0997C114.62 7.9742 103.812 -17.6446 84.9269 -36.1887C81.7241 -39.3342 78.2723 -42.2112 74.6104 -44.8197C73.1612 -45.8499 71.7782 -43.4716 73.2165 -42.4523L73.2 -42.4468Z" fill="#FF0000"/>
<path d="M62.4499 -39.2957C85.6107 -27.8207 102.183 -6.67357 113.13 16.1065C127.424 45.8517 132.845 78.9285 134.045 111.611C135.334 146.781 132.026 182.253 124.559 216.65C117.036 251.278 103.339 283.5 90.7551 316.489C80.1234 344.355 71.826 373.788 77.529 403.725C83.4478 434.818 102.183 462.437 123.098 485.672C171.809 539.797 237.635 574.545 296.69 615.974C326.234 636.699 355.419 658.251 382.717 681.837C393.288 690.972 403.61 700.458 413.113 710.694C424.625 723.09 433.293 737.272 439.704 752.835C442.702 760.112 445.324 767.532 447.957 774.941C448.543 776.591 451.215 775.884 450.623 774.212C445.434 759.625 440.24 744.922 432.28 731.54C424.32 718.158 414.314 707.45 403.45 696.973C379.758 674.121 353.45 653.944 326.954 634.419C296.995 612.351 265.962 592.004 234.908 571.504C203.793 550.96 172.728 529.818 145.418 504.38C120.178 480.866 96.4636 452.973 84.875 420.148C74.2101 389.948 78.5911 359.304 88.8688 329.669C100.253 296.844 115.166 265.466 123.839 231.709C132.596 197.608 136.966 162.246 137.077 127.064C137.176 94.8916 133.741 62.2366 122.694 31.812C113.617 6.818 99.2295 -17.2937 77.4406 -33.3773C73.1647 -36.5338 68.6287 -39.3012 63.8605 -41.6631C62.273 -42.4522 60.8679 -40.0848 62.4666 -39.2957H62.4499Z" fill="#FF0000"/>
<path d="M52.0265 -36.0129C112.044 -14.6686 136.278 52.9813 140.731 110.762C143.469 146.294 140.648 182.428 132.793 217.193C124.839 252.402 109.787 284.569 94.8464 317.257C82.3119 344.684 70.8173 373.755 73.478 404.448C76.2548 436.473 93.2368 465.774 113.289 490.297C159.925 547.332 227.018 583.149 287.821 623.065C318.411 643.149 348.879 663.534 378.478 685.032C404.255 703.757 429.894 722.986 447.413 749.958C451.733 756.611 455.655 763.51 459.455 770.464C460.301 772.015 462.691 770.634 461.845 769.084C454.316 755.318 446.185 741.87 435.874 729.94C425.441 717.873 413.028 707.796 400.427 698.047C373.372 677.108 344.94 657.928 316.513 638.875C285.017 617.76 252.806 597.77 221.121 576.946C189.436 556.122 158.614 534.301 132.273 507.34C108.216 482.724 86.3998 453.022 78.5892 419.074C71.2764 387.285 80.5805 356.307 93.3751 327.219C107.497 295.118 123.467 264.063 132.489 230.016C141.627 195.536 145.549 159.484 144.232 123.864C142.081 65.5852 123.223 -1.88391 67.8689 -31.9469C63.0177 -34.5827 57.9563 -36.8131 52.751 -38.6653C51.075 -39.2626 50.3504 -36.6157 52.0154 -36.0239L52.0265 -36.0129Z" fill="#FF0000"/>
<path d="M41.2802 -32.8618C69.5355 -25.5844 93.9852 -8.03767 111.498 14.9233C131.91 41.6764 142.63 74.156 146.928 107.14C151.585 142.842 149.638 179.601 141.817 214.727C133.829 250.605 117.981 282.991 100.811 315.284C86.3682 342.448 71.6486 370.719 70.2049 402.01C68.6837 434.928 83.276 466.525 102.255 492.747C146.093 553.316 214.59 590.701 277.208 629.164C309.728 649.139 342.331 668.976 374.851 688.961C402.564 705.993 431.55 722.466 454.174 746.095C460.109 752.293 465.608 758.885 470.835 765.675C471.903 767.061 474.303 765.697 473.225 764.294C463.152 751.208 452.044 739.037 439.244 728.51C426.837 718.307 413.235 709.703 399.649 701.138C369.087 681.865 338.022 663.381 307.233 644.475C274.298 624.249 240.965 604.521 208.671 583.303C176.616 562.238 145.357 539.145 119.895 510.359C96.8395 484.291 76.8483 452.19 73.3634 416.992C70.1219 384.26 83.7019 353.858 98.5431 325.482C115.105 293.819 132.087 262.677 141.413 227.989C150.728 193.334 154.008 156.832 151.154 121.086C148.549 88.4531 140.544 55.968 123.48 27.6751C108.483 2.81811 86.5286 -18.1153 59.4792 -29.5848C53.8093 -31.9905 47.979 -33.9578 42.0104 -35.4922C40.2846 -35.936 39.5488 -33.2947 41.2747 -32.8508L41.2802 -32.8618Z" fill="#FF0000"/>
<path d="M30.5276 -29.7109C60.6968 -24.1323 88.222 -8.77753 109.098 13.4601C132.906 38.8158 146.768 71.3008 152.908 105.096C159.474 141.236 158.279 178.998 150.259 214.809C146.066 233.529 139.804 251.7 131.645 269.088C124.1 285.161 115.1 300.494 105.978 315.723C89.5386 343.166 71.9205 371.393 67.639 403.648C63.3576 435.903 75.4164 469.928 93.4493 497.613C134.781 561.076 204.767 599.775 268.955 636.842C303.008 656.504 337.414 675.481 372.335 693.603C402.714 709.369 434.986 723.238 462.395 743.909C469.447 749.23 476.102 755.027 482.435 761.165C483.708 762.398 485.666 760.464 484.394 759.225C472.141 747.35 458.589 737.048 443.963 728.192C429.028 719.15 413.274 711.522 397.73 703.576C364.121 686.402 330.721 668.823 297.869 650.257C263.811 631.016 229.626 611.65 196.962 590.136C164.563 568.797 133.282 544.696 108.965 514.332C87.1433 487.075 69.5419 453.538 69.4479 418C69.3593 384.167 86.38 353.923 103.262 325.625C122.031 294.17 140.368 262.797 150.032 227.227C159.507 192.358 162.201 155.412 157.87 119.557C153.838 86.1898 143.339 53.4472 123.176 26.0968C105.193 1.69467 80.2787 -17.3153 51.3541 -27.1518C44.7936 -29.3822 38.0838 -31.1029 31.2689 -32.3633C29.5264 -32.6866 28.7852 -30.0452 30.5331 -29.7219L30.5276 -29.7109Z" fill="#FF0000"/>
<path d="M20.1451 -26.5161C52.5436 -22.3404 83.3822 -8.42137 107.5 13.471C133.587 37.1553 150.403 68.6376 158.468 102.547C167.058 138.671 166.926 177.042 159.071 213.28C154.961 232.241 148.572 250.615 140.014 268.053C131.9 284.591 122.042 300.192 111.881 315.553C93.7871 342.903 73.6245 370.516 65.9798 402.897C58.1637 435.996 66.6879 469.813 82.9784 499.087C120.831 567.12 193.516 608.039 260.028 644.157C296.11 663.754 332.834 682.057 370.521 698.447C386.668 705.467 402.969 712.125 419.359 718.564C437.116 725.54 454.916 732.647 471.572 741.98C479.388 746.358 486.9 751.23 494.08 756.567C495.507 757.625 496.884 755.247 495.474 754.2C465.725 732.099 430.483 720.444 396.497 706.481C359.242 691.175 322.712 674.154 287.044 655.506C251.592 636.973 216.218 617.744 182.989 595.479C149.761 573.214 119.033 547.853 96.3703 515.307C75.9477 485.973 61.4826 449.844 66.7154 413.682C71.6109 379.871 91.6408 350.942 110.194 323.071C130.699 292.274 149.606 260.857 159.126 224.86C168.458 189.585 170.184 152.13 164.055 116.17C158.291 82.3647 144.81 50.0824 121.871 24.1185C100.679 0.1273 72.3301 -17.162 41.2094 -25.2394C34.2783 -27.0368 27.2476 -28.3409 20.1451 -29.2616C18.3861 -29.4863 18.4026 -26.7463 20.1451 -26.5216V-26.5161Z" fill="#FF0000"/>
<path d="M9.38845 -23.3652C43.4132 -20.4883 76.564 -8.50361 103.735 12.1229C132.82 34.2016 153.298 65.2892 163.62 99.9717C173.942 134.654 175.458 175.321 167.774 212.212C163.78 231.381 157.292 249.936 148.403 267.411C139.884 284.153 129.396 299.792 118.438 315.043C98.4192 342.903 75.6015 370.319 64.7541 403.308C53.8237 436.544 59.2557 471.556 74.2518 502.671C108.647 574.041 182.992 616.768 251.163 651.604C288.8 670.839 327.377 688.161 367.155 702.595C385.093 709.105 403.243 714.996 421.558 720.356C440.796 725.989 460.212 731.277 478.815 738.801C487.992 742.511 496.898 746.824 505.455 751.778C506.993 752.671 508.387 750.304 506.849 749.41C472.581 729.584 433.218 721.737 395.88 709.582C356.03 696.611 317.16 680.769 279.44 662.614C242.578 644.87 205.992 625.767 172.1 602.86C138.921 580.436 107.939 553.618 86.6812 519.478C67.2045 488.193 55.7541 450.315 64.6489 413.742C72.9463 379.608 95.4819 351.243 115.822 323.34C138.119 292.751 158.171 261.044 167.818 224.147C177.156 188.423 178.052 150.289 170.147 114.214C162.586 79.6959 146.173 47.6054 120.479 22.8525C96.3505 -0.393393 65.3902 -16.0495 32.4994 -22.8117C24.8714 -24.379 17.1548 -25.4531 9.39399 -26.1107C7.61835 -26.2586 7.62941 -23.5187 9.39399 -23.3707L9.38845 -23.3652Z" fill="#FF0000"/>
<path d="M-1.35988 -20.2193C34.966 -18.4602 70.9379 -7.77991 101.284 12.2931C132.35 32.8429 155.942 62.7962 168.476 97.6432C181.337 133.394 183.837 172.861 176.685 210.081C172.918 229.671 166.385 248.654 157.17 266.387C148.396 283.265 137.427 298.894 125.839 313.975C104.022 342.355 78.765 369.437 64.5599 402.668C50.3272 435.958 52.0365 472.175 65.5833 505.417C96.184 580.508 172.149 625.323 242.306 659.09C281.907 678.144 322.774 694.562 364.952 707.122C384.595 712.969 404.476 717.94 424.55 722.099C445.393 726.417 466.435 730.072 486.896 736.023C497.118 738.994 507.136 742.583 516.827 746.978C518.432 747.707 519.842 745.345 518.221 744.61C479.788 727.173 437.051 723.047 396.416 712.898C353.253 702.113 311.163 687.236 270.561 669.19C232.582 652.306 195.039 633.422 160.754 609.919C127.011 586.788 96.1507 558.369 76.5634 522.207C58.4641 488.796 50.9246 449.592 63.4979 413.025C75.2912 378.731 100.349 350.888 122.448 322.776C146.239 292.515 167.104 260.595 176.641 222.975C185.873 186.566 185.674 147.566 175.7 111.321C166.23 76.8908 147.207 45.9017 119.721 22.6832C92.5939 -0.233917 58.8347 -14.69 23.7534 -20.3618C15.4339 -21.7044 7.04812 -22.5592 -1.36542 -22.9647C-3.14658 -23.0524 -3.14105 -20.3124 -1.36542 -20.2248L-1.35988 -20.2193Z" fill="#FF0000"/>
<path d="M-12.1091 -17.0687C26.3022 -16.3618 64.7966 -6.9801 98.0967 12.2764C131.059 31.3411 157.722 59.9628 172.745 94.8426C188.145 130.599 192.183 171.173 185.285 209.368C181.673 229.37 175.008 248.752 165.388 266.699C156.217 283.807 144.656 299.513 132.354 314.522C109.16 342.826 82.3427 369.212 65.1838 401.823C56.8034 417.754 51.2884 434.933 49.9387 452.891C48.5447 471.457 51.3935 490.22 57.257 507.866C83.5873 587.138 162.025 634.392 234.539 667.135C276.407 686.04 319.891 701.417 364.669 712.01C386.021 717.062 407.605 720.942 429.361 723.825C451.874 726.806 474.554 728.948 496.813 733.557C507.577 735.787 518.187 738.642 528.542 742.325C530.218 742.922 530.943 740.275 529.278 739.683C486.568 724.498 440.297 724.038 396.039 715.835C350.812 707.456 306.576 694.107 264.022 676.834C223.514 660.394 183.554 641.045 147.814 615.826C114.028 591.983 83.9911 561.975 66.644 524.168C50.3204 488.593 47.0567 448.255 63.2642 412.06C78.6199 377.761 105.902 350.449 129.776 321.942C154.729 292.142 176.153 260.085 185.44 221.988C194.407 185.223 193.09 145.812 181.325 109.803C169.83 74.6052 147.803 44.1477 117.9 21.9814C88.184 -0.0480002 52.2896 -13.0739 15.6318 -17.8031C6.43282 -18.9922 -2.82712 -19.6388 -12.1036 -19.8087C-13.8847 -19.8415 -13.8847 -17.1016 -12.1036 -17.0687H-12.1091Z" fill="#FF0000"/>
<path d="M-22.8627 -13.9235C17.2357 -14.1975 57.7546 -6.15852 93.6435 11.8869C128.697 29.5104 158.64 56.8444 176.407 91.8393C194.252 126.988 200.237 167.967 194.152 206.781C190.966 227.112 184.472 246.916 174.742 265.104C165.338 282.684 153.235 298.658 140.236 313.766C115.377 342.667 86.5243 368.807 66.323 401.357C56.3772 417.381 48.987 434.933 46.1105 453.603C43.2009 472.498 44.595 491.848 49.4075 510.326C59.7681 550.121 84.9976 584.004 116.185 610.433C149.064 638.299 187.78 658.81 227.447 675.475C271.467 693.97 317.252 708.108 364.315 716.618C387.282 720.772 410.459 723.518 433.753 725.096C457.046 726.674 481.994 727.414 505.912 730.674C517.385 732.242 528.752 734.445 539.915 737.53C541.63 738.007 542.365 735.36 540.65 734.888C495.048 722.279 446.968 724.871 400.314 719.282C352.073 713.5 304.59 701.779 259.054 685.026C216.926 669.529 175.422 650.492 138.781 624.484C103.954 599.764 73.5473 567.778 57.9482 527.686C50.6133 508.83 46.6472 488.625 47.4548 468.382C48.2403 448.6 53.8935 429.579 63.275 412.147C81.568 378.144 110.625 351.358 136.06 322.737C149.042 308.127 161.455 292.887 171.611 276.179C182.038 259.021 189.744 240.357 194.252 220.832C202.925 183.294 200.198 143.099 186.237 107.134C172.54 71.8594 147.742 42.4211 116.008 21.6028C83.4875 0.269435 45.2035 -11.6001 6.5488 -15.3593C-3.21996 -16.3074 -13.0331 -16.7183 -22.8516 -16.647C-24.6328 -16.6361 -24.6328 -13.8961 -22.8516 -13.9071L-22.8627 -13.9235Z" fill="#FF0000"/>
<path d="M-33.617 -10.7724C8.58891 -11.9725 51.4807 -4.98553 90.1133 12.2598C127.236 28.8312 160.259 55.239 180.555 90.5846C200.679 125.634 208.323 167.419 202.471 207.28C199.445 227.89 192.774 247.963 182.718 266.25C172.816 284.251 159.927 300.422 146.115 315.613C119.63 344.75 89.0734 370.664 66.5322 403.144C55.458 419.096 46.7237 436.681 42.4975 455.664C38.2714 474.646 38.3986 495.503 42.4533 515.05C51.0327 556.379 75.9027 592.004 107.72 619.338C140.644 647.62 179.946 667.88 220.266 683.706C266.421 701.823 314.695 714.459 363.921 720.937C388.559 724.175 413.335 725.753 438.182 726.049C463.462 726.351 488.785 725.721 514.02 727.595C526.538 728.526 538.99 730.132 551.276 732.729C553.013 733.096 553.754 730.455 552.011 730.088C502.764 719.682 451.956 725.299 402.072 721.978C351.657 718.624 301.707 708.755 253.776 692.912C210.663 678.664 168.197 660.213 131.036 634.008C95.3959 608.866 64.917 575.614 50.568 534.06C43.7089 514.2 40.6665 493.015 42.6745 472.071C44.6437 451.526 51.7684 432.078 62.4665 414.449C83.221 380.232 114.231 353.605 141.474 324.682C155.049 310.264 168.031 295.156 178.685 278.459C189.743 261.126 197.88 242.088 202.493 222.092C211.272 184.012 207.51 143.356 192.055 107.435C176.434 71.1144 148.582 41.8132 114.497 21.7237C79.1332 0.883501 38.3156 -10.0436 -2.56282 -12.9041C-12.8958 -13.6275 -23.2564 -13.8082 -33.6115 -13.5123C-35.3871 -13.463 -35.3927 -10.723 -33.6115 -10.7724H-33.617Z" fill="#FF0000"/>
<path d="M-44.3639 -7.62132C-0.0614779 -9.7037 45.0043 -3.65941 86.3086 12.7037C125.528 28.2448 161.649 53.8417 184.533 89.4996C206.775 124.149 216.262 166.422 210.874 207.137C208.048 228.476 201.083 249.245 190.43 267.998C180.163 286.065 166.738 302.143 152.405 317.164C124.2 346.717 91.7903 372.544 66.8927 405.106C54.6292 421.146 44.5618 438.895 39.0357 458.343C33.3161 478.477 32.4199 499.739 35.7499 520.365C42.6201 562.928 66.9093 600.109 99.2358 628.243C132.586 657.265 173.027 677.426 214.497 692.425C262.561 709.812 312.965 720.723 363.928 725.112C390.136 727.37 416.4 727.726 442.681 726.762C469.509 725.781 496.348 723.863 523.209 724.553C536.419 724.893 549.601 725.896 562.655 727.94C564.397 728.214 565.144 725.573 563.391 725.299C510.797 717.057 457.505 725.43 404.629 724.488C352.04 723.551 299.579 715.654 249.136 700.864C204.64 687.821 160.747 669.875 122.751 643.149C86.3362 617.536 55.9789 582.902 43.0792 539.901C36.7954 518.952 34.7875 496.654 38.2005 475.013C41.5084 454.036 49.9606 434.5 61.8037 416.893C84.8427 382.638 117.584 356.208 146.525 327.137C160.824 312.774 174.51 297.65 185.766 280.793C197.449 263.296 206.023 243.891 210.725 223.424C219.692 184.385 214.68 142.737 197.278 106.646C179.538 69.8541 148.915 41.1885 112.921 22.0033C74.7531 1.66173 31.4297 -8.39951 -11.6945 -10.3997C-22.5806 -10.9038 -33.4833 -10.8654 -44.3694 -10.3558C-46.1395 -10.2736 -46.1506 -7.53364 -44.3694 -7.61584L-44.3639 -7.62132Z" fill="#FF0000"/>
<path d="M-55.1175 -4.47615C-8.25948 -7.44079 39.55 -2.17453 83.8027 13.7831C124.963 28.6282 163.806 53.5125 189.052 89.565C213.446 124.396 224.603 167.917 218.845 210.02C215.891 231.616 208.507 252.528 197.277 271.263C186.38 289.446 172.186 305.464 157.157 320.38C126.966 350.339 92.432 376.248 65.5595 409.391C52.4165 425.601 41.4308 443.542 34.9976 463.428C28.238 484.318 26.5177 506.616 29.466 528.328C35.4512 572.436 60.0334 610.998 93.7152 639.707C128.326 669.211 170.632 688.857 213.817 702.661C264.243 718.777 317.069 727.463 369.996 729.31C397.471 730.269 424.863 729.096 452.245 726.844C479.803 724.575 507.361 721.649 535.041 721.369C548.19 721.238 561.333 721.753 574.404 723.194C576.169 723.391 576.157 720.646 574.404 720.454C519.403 714.382 464.442 725.057 409.497 726.679C355.525 728.269 301.288 722.799 248.898 709.757C202.355 698.173 156.233 680.993 116.594 653.758C79.1009 628.002 48.3673 592.35 36.2974 548.083C30.279 526.004 29.0567 502.616 33.5151 480.137C37.8408 458.332 47.5488 438.248 60.6199 420.29C85.6779 385.876 120.118 359.556 150.79 330.392C165.836 316.089 180.285 300.992 192.244 284.015C204.579 266.512 213.701 246.938 218.64 226.136C228.127 186.171 222.098 143.466 203.003 107.139C183.183 69.4263 149.684 41.0347 111.488 22.4742C70.549 2.58746 24.7475 -6.69551 -20.6668 -7.89014C-32.1559 -8.19154 -43.6505 -7.94495 -55.1175 -7.2216C-56.8876 -7.112 -56.8987 -4.36655 -55.1175 -4.48163V-4.47615Z" fill="#FF0000"/>
</g>
</g>
<defs>
<clipPath id="clip0_469_11231">
<rect width="414" height="412.989" fill="white"/>
</clipPath>
</defs>
</svg>
