<svg width="586" height="874" viewBox="0 0 586 874" fill="none" xmlns="http://www.w3.org/2000/svg">
<mask id="mask0_361_191" style="mask-type:luminance" maskUnits="userSpaceOnUse" x="0" y="0" width="586" height="874">
<path d="M585.997 0H0V873.709H585.997V0Z" fill="white"/>
</mask>
<g mask="url(#mask0_361_191)">
<path d="M583.136 -0.000244141H-1.42383V875.152H583.136V-0.000244141Z" fill="#00FF00"/>
<path d="M13.804 76.2541C69.7257 76.2541 115.059 30.1947 115.059 -26.6223C115.059 -83.4394 69.7257 -129.499 13.804 -129.499C-42.1176 -129.499 -87.4512 -83.4394 -87.4512 -26.6223C-87.4512 30.1947 -42.1176 76.2541 13.804 76.2541Z" fill="black"/>
<path d="M204.642 81.6345C260.564 81.6345 305.897 35.5751 305.897 -21.242C305.897 -78.059 260.564 -124.118 204.642 -124.118C148.72 -124.118 103.387 -78.059 103.387 -21.242C103.387 35.5751 148.72 81.6345 204.642 81.6345Z" fill="black"/>
<path d="M9.56577 277.345C65.4874 277.345 110.821 231.286 110.821 174.468C110.821 117.651 65.4874 71.592 9.56577 71.592C-46.3559 71.592 -91.6895 117.651 -91.6895 174.468C-91.6895 231.286 -46.3559 277.345 9.56577 277.345Z" fill="black"/>
<path d="M203.583 282.725C259.505 282.725 304.838 236.666 304.838 179.849C304.838 123.032 259.505 76.9722 203.583 76.9722C147.661 76.9722 102.328 123.032 102.328 179.849C102.328 236.666 147.661 282.725 203.583 282.725Z" fill="black"/>
<path d="M403.866 88.1255C459.788 88.1255 505.122 42.0664 505.122 -14.7507C505.122 -71.5678 459.788 -117.627 403.866 -117.627C347.945 -117.627 302.611 -71.5678 302.611 -14.7507C302.611 42.0664 347.945 88.1255 403.866 88.1255Z" fill="black"/>
<path d="M594.702 93.5053C650.624 93.5053 695.958 47.446 695.958 -9.37111C695.958 -66.1882 650.624 -112.248 594.702 -112.248C538.781 -112.248 493.447 -66.1882 493.447 -9.37111C493.447 47.446 538.781 93.5053 594.702 93.5053Z" fill="black"/>
<path d="M399.626 289.216C455.548 289.216 500.881 243.157 500.881 186.34C500.881 129.523 455.548 83.4636 399.626 83.4636C343.704 83.4636 298.371 129.523 298.371 186.34C298.371 243.157 343.704 289.216 399.626 289.216Z" fill="black"/>
<path d="M593.653 294.588C649.575 294.588 694.909 248.529 694.909 191.712C694.909 134.895 649.575 88.8354 593.653 88.8354C537.732 88.8354 492.398 134.895 492.398 191.712C492.398 248.529 537.732 294.588 593.653 294.588Z" fill="black"/>
<path d="M6.63998 480.557C62.5616 480.557 107.895 434.498 107.895 377.681C107.895 320.864 62.5616 274.804 6.63998 274.804C-49.2817 274.804 -94.6152 320.864 -94.6152 377.681C-94.6152 434.498 -49.2817 480.557 6.63998 480.557Z" fill="black"/>
<path d="M197.478 485.938C253.399 485.938 298.733 439.879 298.733 383.062C298.733 326.245 253.399 280.185 197.478 280.185C141.556 280.185 96.2227 326.245 96.2227 383.062C96.2227 439.879 141.556 485.938 197.478 485.938Z" fill="black"/>
<path d="M2.40347 681.649C58.3251 681.649 103.659 635.59 103.659 578.773C103.659 521.956 58.3251 475.896 2.40347 475.896C-53.5182 475.896 -98.8516 521.956 -98.8516 578.773C-98.8516 635.59 -53.5182 681.649 2.40347 681.649Z" fill="black"/>
<path d="M196.417 687.021C252.339 687.021 297.672 640.962 297.672 584.145C297.672 527.327 252.339 481.268 196.417 481.268C140.496 481.268 95.1621 527.327 95.1621 584.145C95.1621 640.962 140.496 687.021 196.417 687.021Z" fill="black"/>
<path d="M396.706 492.43C452.628 492.43 497.961 446.37 497.961 389.553C497.961 332.736 452.628 286.677 396.706 286.677C340.785 286.677 295.451 332.736 295.451 389.553C295.451 446.37 340.785 492.43 396.706 492.43Z" fill="black"/>
<path d="M587.542 497.802C643.464 497.802 688.797 451.743 688.797 394.926C688.797 338.109 643.464 292.05 587.542 292.05C531.621 292.05 486.287 338.109 486.287 394.926C486.287 451.743 531.621 497.802 587.542 497.802Z" fill="black"/>
<path d="M392.46 693.52C448.382 693.52 493.715 647.46 493.715 590.643C493.715 533.826 448.382 487.767 392.46 487.767C336.539 487.767 291.205 533.826 291.205 590.643C291.205 647.46 336.539 693.52 392.46 693.52Z" fill="black"/>
<path d="M585.054 698.892C640.976 698.892 686.309 652.833 686.309 596.016C686.309 539.199 640.976 493.139 585.054 493.139C529.132 493.139 483.799 539.199 483.799 596.016C483.799 652.833 529.132 698.892 585.054 698.892Z" fill="black"/>
<path d="M2.33725 881.983C58.2589 881.983 103.592 835.924 103.592 779.107C103.592 722.29 58.2589 676.23 2.33725 676.23C-53.5844 676.23 -98.918 722.29 -98.918 779.107C-98.918 835.924 -53.5844 881.983 2.33725 881.983Z" fill="black"/>
<path d="M193.181 887.363C249.102 887.363 294.436 841.304 294.436 784.487C294.436 727.669 249.102 681.61 193.181 681.61C137.259 681.61 91.9258 727.669 91.9258 784.487C91.9258 841.304 137.259 887.363 193.181 887.363Z" fill="black"/>
<path d="M392.405 893.855C448.327 893.855 493.66 847.795 493.66 790.978C493.66 734.161 448.327 688.102 392.405 688.102C336.484 688.102 291.15 734.161 291.15 790.978C291.15 847.795 336.484 893.855 392.405 893.855Z" fill="black"/>
<path d="M580.382 902.106C636.304 902.106 681.637 856.047 681.637 799.23C681.637 742.412 636.304 696.353 580.382 696.353C524.46 696.353 479.127 742.412 479.127 799.23C479.127 856.047 524.46 902.106 580.382 902.106Z" fill="black"/>
</g>
<mask id="mask1_361_191" style="mask-type:luminance" maskUnits="userSpaceOnUse" x="0" y="3" width="587" height="864">
<path d="M586.003 3.37378H0V866.963H586.003V3.37378Z" fill="white"/>
</mask>
<g mask="url(#mask1_361_191)">
<path d="M1050.62 -213.015C887.235 -244.215 710.772 -277.637 548.583 -222.949C484.108 -201.213 423.193 -165.351 379.63 -112.732C332.616 -55.9371 311.283 15.9946 304.94 88.2119C289.903 259.485 354.331 425.455 349.68 596.303C347.708 668.821 333.021 743.825 293.058 805.715C253.61 866.801 190.935 905.866 120.764 923.697C-43.2797 965.363 -210.876 900.687 -358.736 834.776C-378.208 826.1 -397.609 817.262 -417.002 808.416C-419.261 807.382 -421.248 810.709 -418.965 811.751C-270.279 879.538 -109.898 954.395 58.2443 938.293C126.467 931.755 194.815 909.656 247.19 864.555C301.279 817.98 331.331 750.888 344.537 682.214C376.701 515.009 316.488 348.807 307.668 182.412C303.522 104.228 309.686 22.3395 343.875 -49.3761C374.722 -114.075 428.468 -163.368 492.413 -195.486C644.411 -271.832 823.126 -250.382 984.474 -221.436C1006.2 -217.538 1027.9 -213.432 1049.58 -209.295C1052.03 -208.824 1053.08 -212.544 1050.62 -213.015Z" fill="#FF0000"/>
<path d="M-403.755 825.614C-258.536 887.071 -103.811 946.745 57.1081 925.217C124.505 916.202 191.575 893.207 244.705 850.144C298.389 806.633 331.971 744.589 348.66 678.616C389.161 518.551 337.355 353.909 329.867 193.102C326.306 116.578 331.184 37.1515 360.379 -34.618C387.01 -100.097 435.528 -152.948 496.466 -188.964C638.483 -272.89 810.552 -257.468 966.928 -232.953C988.347 -229.596 1009.73 -226.045 1031.12 -222.487C1033.57 -222.077 1034.62 -225.798 1032.15 -226.207C874.162 -252.482 703.426 -281.875 549.979 -219.6C489.033 -194.861 433.331 -156.259 394.186 -103.262C350.336 -43.8808 332.049 29.5407 326.782 101.951C320.852 183.431 330.927 264.787 341.469 345.472C352.276 428.21 364.353 511.998 357.971 595.6C352.603 665.919 333.724 737.117 291.665 794.985C249.271 853.316 185.536 890.59 116.34 909.448C-39.6163 951.947 -199.359 905.002 -344.126 846.277C-363.418 838.45 -382.608 830.399 -401.776 822.287C-404.059 821.322 -406.046 824.649 -403.739 825.621L-403.755 825.614Z" fill="#FF0000"/>
<path d="M-388.086 839.67C-314.627 867.975 -240 894.273 -162.31 908.576C-90.8539 921.729 -17.6522 924.33 54.1548 912.265C121.287 900.988 187.897 877.199 242.227 835.741C295.233 795.294 332.072 738.545 352.338 675.753C374.949 605.705 377.31 531.419 373.165 458.538C368.412 375.113 355.758 292.313 352.174 208.811C348.941 133.405 352.314 55.7387 376.616 -16.3937C399.204 -83.4239 442.26 -140.42 500.572 -181.082C555.588 -219.453 620.375 -242.493 686.736 -251.98C773.222 -264.338 861.134 -255.901 947.246 -244.647C969.071 -241.791 990.864 -238.726 1012.66 -235.701C1015.11 -235.361 1016.17 -239.082 1013.69 -239.421C860.487 -260.694 695.657 -285.487 551.093 -215.138C491.838 -186.3 439.65 -142.789 404.978 -86.7584C366.939 -25.2703 352.579 47.7574 348.543 118.902C343.923 200.405 353.14 281.707 361.228 362.693C369.144 441.911 376.718 522.581 365.225 601.837C355.501 668.929 331.651 734.933 287.372 787.429C242.134 841.067 178.929 875.655 111.883 895.168C43.2311 915.144 -29.3706 920.231 -100.437 913.415C-180.893 905.704 -258.832 883.065 -334.496 855.663C-352.097 849.287 -369.597 842.665 -387.058 835.934C-389.395 835.031 -390.408 838.767 -388.094 839.654L-388.086 839.67Z" fill="#FF0000"/>
<path d="M-372.885 853.541C-302.777 877.438 -231.328 897.924 -157.542 906.855C-85.9997 915.507 -13.3746 913.045 57.139 898.017C123.78 883.814 189.619 858.658 244.464 817.934C295.748 779.857 334.238 727.955 357.239 668.822C382.678 603.42 388.755 532.808 387.742 463.262C386.543 381.087 376.562 299.337 374.006 217.217C371.692 142.8 374.559 66.5915 395.947 -5.26301C415.597 -71.2744 453.238 -129.605 506.992 -173.433C557.513 -214.628 619.051 -241.744 683.105 -254.141C765.703 -270.134 850.546 -264.029 933.627 -255.407C953.994 -253.292 974.346 -251.015 994.705 -248.807C997.19 -248.537 997.175 -252.396 994.705 -252.666C911.748 -261.643 828.098 -272.357 744.518 -266.082C677.02 -261.011 611.049 -243.705 552.464 -209.534C496.567 -176.929 449.288 -130.115 419.104 -73.0109C385.537 -9.52363 373.749 63.1181 370.476 134.008C366.83 212.987 374.224 291.811 379.546 370.543C384.735 447.369 388.537 525.738 372.83 601.66C359.716 665.039 332.493 725.462 288.182 773.527C240.942 824.765 177.791 858.581 111.664 879.638C45.3893 900.741 -24.7971 909.873 -94.329 907.804C-172.019 905.496 -248.142 889.055 -322.099 866.115C-338.766 860.943 -355.338 855.47 -371.849 849.843C-374.225 849.033 -375.246 852.761 -372.885 853.564V853.541Z" fill="#FF0000"/>
<path d="M-357.684 867.403C-290.801 886.661 -222.531 901.065 -152.82 904.677C-82.7818 908.305 -12.393 901.289 55.6195 884.353C121.443 867.959 186.253 842.44 242.079 803.738C293.815 767.861 335.71 719.518 362.093 662.576C389.924 602.509 399.913 536.605 402.102 471.011C404.759 391.399 397.653 311.841 395.924 232.283C394.318 158.592 396.36 83.6034 414.234 11.7026C430.9 -55.3508 463.695 -116.677 514.137 -164.781C559.289 -207.836 615.817 -239.028 676.342 -254.998C754.74 -275.677 836.77 -272.296 916.898 -266.499C936.689 -265.071 956.472 -263.481 976.262 -262.022C978.763 -261.837 978.748 -265.696 976.262 -265.882C895.838 -271.817 814.541 -280.324 734.101 -269.996C669.805 -261.744 608.298 -240.201 555.074 -203.143C502.06 -166.224 459.324 -115.627 433.276 -56.7557C404.861 7.47254 395.409 78.4625 392.566 147.994C389.371 226.116 395.269 304.145 397.794 382.198C400.154 455.411 399.897 530.091 380.302 601.266C363.589 661.974 332.399 717.789 286.904 761.964C237.934 809.504 175.703 841.815 111.353 863.899C46.4488 886.175 -22.1246 898.842 -90.7683 901.304C-164.858 903.967 -238.449 894.149 -310.21 876.226C-325.769 872.343 -341.228 868.113 -356.64 863.675C-359.055 862.98 -360.083 866.701 -357.676 867.395L-357.684 867.403Z" fill="#FF0000"/>
<path d="M-342.484 881.266C-277.947 895.716 -212.194 903.682 -145.958 901.922C-77.1741 900.093 -8.74076 888.638 57.2849 869.603C179.62 834.328 304.207 771.026 367.225 656.101C397.714 600.51 411.177 538.188 416.234 475.565C422.436 398.825 418.159 321.66 417.52 244.804C416.912 171.668 418.579 97.6135 433.843 25.7899C448.016 -40.8853 476.003 -103.562 521.802 -154.915C562.186 -200.194 614.186 -235.616 671.883 -255.469C745.295 -280.725 824.052 -280.238 900.737 -277.413C919.748 -276.711 938.752 -275.885 957.763 -275.221C960.272 -275.136 960.264 -278.996 957.763 -279.08C880.517 -281.767 802.204 -287.803 725.699 -273.477C665.244 -262.153 608.966 -236.72 561.344 -198.033C511.361 -157.432 472.933 -103.917 450.065 -44.0654C424.976 21.5754 417.224 92.7273 414.59 162.42C411.692 239.053 415.868 315.678 415.478 392.326C415.128 461.864 411.123 532.692 388.2 598.989C368.363 656.356 334.181 707.284 288.562 747.715C237.114 793.303 174.174 825.05 109.746 848.492C-20.5761 895.909 -161.58 910.66 -298.454 886.26C-312.853 883.69 -327.182 880.757 -341.456 877.562C-343.895 877.014 -344.939 880.734 -342.492 881.282L-342.484 881.266Z" fill="#FF0000"/>
<path d="M-327.283 895.13C-199.213 913.701 -69.9432 895.516 52.6335 856.482C117.389 835.865 181.03 809.536 239.117 774.253C290.245 743.193 336.745 703.541 369.952 653.685C404.118 602.394 421.735 543.113 429.885 482.628C439.749 409.477 438.378 335.26 438.892 261.623C439.851 123.433 442.842 -26.1577 529.001 -142.118C564.702 -190.159 612.301 -230.251 667.38 -254.789C734.792 -284.823 809.638 -287.864 882.387 -288.212C901.36 -288.304 920.34 -288.243 939.313 -288.428C941.822 -288.451 941.822 -292.31 939.313 -292.287C864.849 -291.562 788.881 -295.074 716.225 -275.877C659.066 -260.771 607.54 -230.598 565.396 -189.581C519.441 -144.85 485.867 -88.6879 466.513 -27.9331C445.063 39.3827 438.954 110.774 436.469 180.977C433.835 255.378 436.15 329.88 432.698 404.259C429.589 471.096 421.681 539.091 394.379 600.95C370.568 654.897 332.709 700.616 286.255 737.048C232.548 779.17 169.772 809.551 106.084 833.765C-17.3347 880.688 -152.004 908.012 -284.453 896.311C-298.431 895.076 -312.362 893.416 -326.239 891.402C-328.693 891.047 -329.753 894.767 -327.275 895.122L-327.283 895.13Z" fill="#FF0000"/>
<path d="M-311.559 909.07C-187.782 914.666 -63.7871 882.795 51.9877 842.078C116.198 819.493 179.434 792.855 238.549 759.147C289.833 729.901 338.468 694.394 374.901 647.68C457.125 542.248 456.658 400.871 459.954 273.896C463.522 136.277 463.694 -11.3531 540.012 -131.998C571.303 -181.453 613.759 -225.133 665.316 -253.94C726.994 -288.405 797.733 -295.182 867.117 -298.786C885.03 -299.72 902.951 -300.523 920.848 -301.619C923.341 -301.774 923.357 -305.633 920.848 -305.479C850.046 -301.141 777.242 -301.797 709.541 -277.992C655.678 -259.05 609.061 -224.516 572.035 -181.692C529.758 -132.793 500.423 -74.0066 483.975 -11.8856C465.984 56.0632 461.045 126.86 458.341 196.808C455.637 266.756 455.957 343.597 449.217 416.686C443.311 480.768 431.328 545.382 400.013 602.486C372.392 652.859 331.19 693.506 284.02 726.141C228.116 764.821 165.596 794.16 102.438 819.146C41.8119 843.136 -20.5517 863.166 -83.9126 878.75C-146.65 894.188 -210.931 905.01 -275.694 905.812C-287.654 905.959 -299.614 905.751 -311.559 905.21C-314.068 905.095 -314.06 908.954 -311.559 909.07Z" fill="#FF0000"/>
<path d="M-296.356 922.933C-243.35 918.425 -191.193 906.23 -140.127 891.818C-76.7583 873.934 -14.3089 852.437 47.1587 828.972C108.626 805.506 173.873 777.85 234.242 746.141C286.687 718.593 338.353 686.737 378.752 643.041C417.032 601.637 441.762 551.156 455.724 497.009C472.85 430.604 477.066 361.366 480.408 293.17C487.195 154.463 484.101 7.16459 550.813 -119.185C577.904 -170.492 615.303 -218.032 663.253 -251.732C718.947 -290.874 785.276 -302.074 851.715 -309.238C868.615 -311.059 885.53 -312.773 902.407 -314.818C904.861 -315.119 904.892 -318.979 902.407 -318.678C834.799 -310.488 764.823 -307.841 702.132 -278.687C652.391 -255.553 611.447 -216.874 579.634 -172.985C541.362 -120.188 516.171 -59.1015 502.295 4.23908C487.195 73.1681 483.19 144.042 480.011 214.322C476.777 285.907 475.196 357.9 465.036 428.944C456.387 489.382 440.796 549.566 406.739 601.174C375.012 649.255 329.657 685.741 280.679 715.567C222.484 751.004 159.793 779.401 96.7597 805.236C36.8972 829.767 -24.0562 851.758 -85.7263 871.402C-144.116 890.004 -203.69 906.731 -264.504 915.438C-275.077 916.951 -285.697 918.17 -296.348 919.073C-298.825 919.282 -298.849 923.149 -296.348 922.933H-296.356Z" fill="#FF0000"/>
<path d="M-280.638 936.726C-231.762 923.913 -184.288 905.704 -137.219 887.588C-76.1021 864.069 -15.2811 839.708 45.2281 814.707C108.706 788.478 171.864 761.293 233.589 731.197C286.244 705.524 339.359 677.652 382.829 637.985C423.352 601.004 451.495 554.328 468.31 502.542C488.887 439.171 495.767 371.886 500.676 305.797C511 166.843 506.364 21.2509 564.193 -108.819C587.536 -161.322 619.886 -211.495 663.55 -249.695C686.107 -269.432 711.913 -284.939 740.001 -295.668C770.482 -307.308 802.638 -313.592 834.7 -319.226C851.288 -322.144 867.9 -324.923 884.449 -328.095C886.911 -328.566 885.867 -332.286 883.413 -331.816C818.602 -319.373 750.902 -312.835 693.797 -277.097C648.918 -249.008 613.918 -206.74 587.185 -161.832C553.612 -105.43 532.543 -42.7073 521.082 21.5905C508.701 91.0213 505.335 161.679 501.408 231.959C497.497 302 493.671 372.588 479.919 441.548C468.31 499.764 448.511 556.752 410.387 603.358C374.819 646.838 327.095 677.906 277.884 704.312C217.601 736.662 154.653 764.311 91.6891 791.08C31.5461 816.652 -29.15 840.912 -89.9242 864.972C-144.029 886.392 -198.359 907.919 -254.022 925.078C-263.185 927.903 -272.395 930.566 -281.674 932.998C-284.098 933.631 -283.069 937.359 -280.638 936.718V936.726Z" fill="#FF0000"/>
<path d="M-264.971 950.404C-222.483 928.444 -180.386 905.79 -137.548 884.478C-79.7109 855.702 -20.978 828.872 38.0664 802.643C101.03 774.678 164.235 747.23 227.09 719.025C281.225 694.734 336.951 670.597 384.487 634.697C426.896 602.672 458.748 560.944 478.874 512.053C503.519 452.178 513.367 386.915 520.107 322.98C534.693 184.566 528.724 41.3667 576.066 -91.5745C595.739 -146.826 623.415 -201.066 663.035 -245.025C681.883 -265.935 703.668 -283.85 728.679 -297.127C757.149 -312.24 788.308 -321.109 819.419 -329.137C834.956 -333.15 850.523 -337.01 865.982 -341.286C868.389 -341.95 867.369 -345.678 864.946 -345.007C803.844 -328.087 740.07 -316.933 689.651 -275.9C648.527 -242.439 618.475 -196.172 595.778 -149.026C566.716 -88.6569 549.45 -23.8033 540.123 42.2698C530.391 111.214 527.407 180.853 522.468 250.238C517.582 318.85 511.31 388.158 493.686 454.895C478.85 511.096 454.471 564.232 412.427 605.62C371.997 645.418 320.432 671.693 269.39 695.529C207.93 724.235 145.528 751.012 83.4522 778.375C24.626 804.303 -34.2628 830.192 -92.2008 858.026C-143.43 882.633 -193.927 908.63 -244.167 935.152C-251.749 939.15 -259.33 943.149 -266.95 947.085C-269.171 948.235 -267.207 951.57 -264.986 950.42L-264.971 950.404Z" fill="#FF0000"/>
<path d="M-249.375 963.966C-214.703 932.257 -175.839 905.203 -135.954 880.364C-81.8256 846.656 -25.0797 817.463 32.4843 790.007C95.5102 759.95 159.51 731.861 224.04 705.123C278.433 682.592 334.914 662.338 385.169 631.347C430.641 603.304 466.973 564.957 490.503 517.131C518.249 460.73 530.926 397.752 539.411 335.994C558.368 198.12 551.901 56.449 590.882 -78.3293C607.392 -135.41 630.393 -192.058 665.065 -240.834C680.984 -263.226 699.691 -283.742 722.372 -299.589C747.352 -317.041 775.698 -328.45 804.254 -338.778C818.684 -343.996 833.176 -349.044 847.52 -354.501C849.834 -355.381 848.829 -359.117 846.484 -358.221C818.216 -347.461 789.216 -338.469 761.634 -326.003C734.278 -313.637 709.197 -297.196 688.456 -275.499C651.75 -237.098 626.599 -188.292 607.424 -139.393C582.701 -76.3455 568.481 -10.2029 560.627 56.8505C552.353 127.447 549.532 198.514 543.034 269.265C536.957 335.477 528.113 402.484 507.068 465.863C489.031 520.196 460.303 569.419 414.995 605.751C369.75 642.03 314.398 663.882 261.135 685.726C197.915 711.661 135.013 738.268 72.9458 766.804C-33.931 815.935 -142.608 869.194 -233.317 944.8C-239.714 950.134 -245.994 955.607 -252.141 961.226C-253.988 962.916 -251.23 965.641 -249.383 963.958L-249.375 963.966Z" fill="#FF0000"/>
<path d="M-233.864 977.436C-209.041 937.166 -171.844 904.485 -134.452 875.995C-84.1888 837.702 -29.1803 806.109 27.0825 777.364C88.8306 745.825 152.378 717.566 217.142 692.673C272.781 671.284 330.712 654.395 384.247 627.989C432.01 604.431 472.627 570.731 500.014 524.966C531.22 472.81 546.966 412.372 557.508 353.145C581.935 215.874 574.985 74.8276 605.901 -61.4945C619.506 -121.485 638.291 -181.561 668.187 -235.716C680.771 -258.51 695.473 -280.501 714.282 -298.748C735.966 -319.789 762.301 -334.633 789.245 -348.009C802.654 -354.671 816.18 -361.085 829.519 -367.893C831.748 -369.028 829.784 -372.362 827.556 -371.228C800.909 -357.627 773.241 -345.732 747.903 -329.747C723.866 -314.587 703.319 -295.452 686.723 -272.496C654.435 -227.843 633.764 -175 617.971 -122.712C598.102 -56.9404 587.155 10.5607 580.797 78.8105C574.213 149.546 571.221 220.605 562.729 291.163C554.875 356.472 542.86 422.931 516.618 483.717C505.492 509.482 491.553 534.367 473.352 555.918C455.961 576.52 435.15 593.949 412.188 608.167C362.704 638.811 305.802 655.97 251.386 675.776C187.409 699.072 124.633 725.524 63.3366 755.064C6.28684 782.566 -50.0538 812.438 -102.366 848.138C-146.724 878.411 -190.396 912.752 -223.307 955.421C-228.286 961.874 -232.968 968.551 -237.238 975.483C-238.547 977.605 -235.181 979.551 -233.872 977.428L-233.864 977.436Z" fill="#FF0000"/>
<path d="M-218.472 990.843C-204.307 945 -170.399 906.198 -135.804 873.98C-88.6964 830.106 -33.9607 795.132 22.5203 764.357C82.975 731.413 146.102 702.954 210.99 679.713C268.983 658.933 329.5 645.132 386.737 622.323C435.878 602.74 479.542 573.594 510.225 530.176C544.438 481.748 563.091 423.494 575.62 366.251C605.446 229.991 598.527 89.1303 622.79 -47.9328C633.675 -109.421 648.284 -171.071 672.188 -228.985C681.865 -252.435 693.148 -275.792 708.139 -296.409C725.787 -320.662 748.99 -339.434 773.705 -356.23C786.078 -364.636 798.669 -372.702 811.057 -381.093C813.114 -382.482 811.166 -385.832 809.094 -384.427C785.104 -368.187 760.046 -353.181 738.043 -334.255C716.553 -315.761 699.771 -293.538 686.494 -268.668C660.057 -219.136 643.921 -164.248 631.376 -109.861C615.855 -42.5992 607.378 25.5195 602.017 94.2401C596.423 165.933 593.01 237.949 582.172 309.124C572.612 371.878 557.855 435.682 528.434 492.485C515.726 517.015 500.065 540.195 480.259 559.677C460.772 578.843 437.974 594.188 413.446 606.306C359.692 632.859 300.04 646.097 243.247 664.614C177.705 685.988 113.97 712.896 52.6114 744.141C-3.08269 772.5 -57.6314 804.371 -106.383 843.498C-148.317 877.152 -189.387 917.228 -212.87 966.15C-216.548 973.807 -219.719 981.696 -222.228 989.808C-222.96 992.186 -219.205 993.205 -218.472 990.835V990.843Z" fill="#FF0000"/>
<path d="M-203.203 1004.2C-198.458 954.039 -168.944 908.406 -136.134 871.471C-93.4204 823.383 -40.4144 785.499 15.0226 753.088C74.3007 718.438 137.264 689.454 202.402 667.386C262.147 647.147 324.324 636.201 384.584 617.9C436.156 602.239 484.324 577.731 519.222 535.957C556.528 491.296 578.313 435.25 593.008 379.744C628.53 245.529 622.008 105.178 640.093 -31.5304C648.648 -96.1987 659.657 -161.076 678.349 -223.706C685.868 -248.885 694.47 -274.249 706.687 -297.621C720.353 -323.75 739.536 -345.771 761.056 -365.84C771.528 -375.612 782.343 -385.022 792.994 -394.601C794.856 -396.276 792.09 -399 790.236 -397.333C768.482 -377.774 745.824 -358.855 727.374 -336.061C710.326 -314.996 698.218 -291.222 688.564 -266.09C667.355 -210.885 655.216 -152.261 645.508 -94.1379C633.898 -24.6222 627.774 45.2178 623.107 115.474C618.338 187.182 614.022 259.284 600.348 329.98C588.621 390.589 570.553 452 537.189 504.65C522.378 528.022 504.278 549.218 482.321 566.292C460.154 583.528 434.863 596.241 408.504 605.882C350.426 627.124 288.631 636.827 229.477 654.657C164.021 674.386 100.699 701.618 40.7191 734.169C-14.5386 764.149 -68.1757 798.937 -113.569 842.502C-152.418 879.784 -188.361 925.24 -202.378 977.937C-204.668 986.551 -206.25 995.319 -207.091 1004.19C-207.325 1006.66 -203.429 1006.64 -203.196 1004.19L-203.203 1004.2Z" fill="#FF0000"/>
<path d="M-187.999 1018.06C-191.365 965.155 -168.669 913.971 -138.196 871.718C-99.8691 818.582 -47.7902 776.792 7.53762 742.065C65.8652 705.455 129 675.707 194.675 654.542C256.47 634.635 320.564 626.399 383.73 612.281C437.803 600.193 490.022 580.086 529.151 539.77C568.888 498.83 593.502 445.099 610.261 391.423C651.541 259.168 645.659 118.632 658.585 -17.7753C664.935 -84.8364 672.524 -152.052 685.606 -218.194C690.569 -243.281 696.233 -268.398 704.087 -292.774C713.437 -321.781 728.039 -348.172 746.302 -372.571C755.317 -384.612 764.947 -396.198 774.531 -407.792C776.105 -409.698 773.362 -412.446 771.773 -410.524C753.626 -388.556 735.269 -366.527 721.205 -341.68C707.297 -317.119 698.626 -290.543 691.714 -263.342C676.77 -204.517 668.542 -144.032 661.6 -83.8406C653.403 -12.7503 649.133 58.4325 644.856 129.832C640.594 200.984 635.381 272.607 619.432 342.284C605.875 401.534 584.962 461.262 548.545 510.763C531.793 533.534 511.488 553.433 487.521 568.693C463.227 584.161 436.214 594.59 408.468 602.193C347.203 618.973 283.561 625.303 222.273 642.238C156.162 660.501 92.4735 688.126 33.133 722.174C-21.7274 753.651 -74.3672 791.219 -116.457 838.543C-153.49 880.178 -184.251 930.914 -191.007 986.914C-192.253 997.249 -192.565 1007.66 -191.903 1018.05C-191.747 1020.52 -187.851 1020.54 -188.007 1018.05L-187.999 1018.06Z" fill="#FF0000"/>
<path d="M-172.867 1031.41C-183.393 974.571 -166.306 916.449 -136.776 867.704C-102.922 811.82 -53.399 767.329 0.60434 730.942C57.4749 692.626 120.298 662.191 185.942 641.813C250.051 621.906 316.295 616.179 382.344 606.137C438.03 597.669 493.382 582.617 536.695 545.112C580.226 507.428 608.361 454.601 627.552 401.349C674.699 270.553 669.658 128.404 677.963 -8.28129C682.101 -76.2995 686.55 -144.403 693.858 -212.174C700.146 -270.482 707.649 -328.628 734.289 -381.764C741.067 -395.287 748.617 -408.402 756.37 -421.392C757.648 -423.538 754.282 -425.483 753.004 -423.338C737.709 -397.688 723.427 -371.413 713.719 -343.131C704.268 -315.591 699.546 -286.923 695.572 -258.186C686.955 -195.895 682.42 -133.071 678.135 -70.3714C673.211 1.61429 670.741 73.6694 666.642 145.694C662.606 216.707 656.147 288.237 637.393 357.12C621.373 415.961 596.612 475.125 555.395 521.207C536.258 542.603 513.499 560.117 487.616 572.791C461.732 585.466 432.397 593.385 403.444 598.727C338.322 610.737 272.078 614.211 207.899 631.439C142.224 649.061 79.1667 677.273 21.4702 712.896C-78.2696 774.461 -181.064 873.447 -179.918 998.654C-179.817 1009.99 -178.687 1021.29 -176.622 1032.44C-176.171 1034.88 -172.415 1033.84 -172.867 1031.41Z" fill="#FF0000"/>
<path d="M-157.67 1045.28C-173.908 987.617 -165.135 926.075 -139.797 872.298C-111.474 812.184 -64.6859 763.161 -11.493 723.772C41.7 684.383 106.16 650.976 171.858 630.491C238.912 609.588 307.945 605.621 377.469 599.669C436.14 594.644 496.166 584.849 544.59 549.18C590.109 515.65 621.283 466.087 642.881 414.888C697.477 285.467 693.62 140.43 697.609 2.81157C699.643 -67.229 701.185 -137.285 703.157 -207.326C704.878 -268.405 704.66 -330.811 722.043 -389.945C726.547 -405.267 732.055 -420.257 738.078 -435.046C739.013 -437.346 735.25 -438.35 734.323 -436.073C722.254 -406.456 712.834 -376.02 707.808 -344.427C703.032 -314.417 701.933 -284.004 700.772 -253.693C698.256 -187.897 697.297 -122.048 695.49 -56.2297C693.479 16.9293 692.646 90.2658 688.376 163.34C684.231 234.314 676.135 305.868 654.015 373.793C635.424 430.897 607.055 487.623 562.488 529.266C516.182 572.538 455.868 587.998 394.081 594.258C326.559 601.105 258.936 602.78 192.973 620.348C127.088 637.9 64.1163 667.41 7.77552 705.417C-44.6305 740.777 -92.4939 784.327 -125.748 838.258C-157.257 889.372 -175.194 949.664 -168.563 1009.79C-167.2 1022.14 -164.815 1034.33 -161.441 1046.3C-160.771 1048.68 -157.008 1047.67 -157.686 1045.27L-157.67 1045.28Z" fill="#FF0000"/>
<path d="M-142.465 1059.15C-163.62 1000.36 -162.17 935.931 -141.375 877.237C-118.857 813.704 -75.6138 760.374 -23.7298 717.774C29.1437 674.364 90.8917 640.74 156.162 619.637C190.943 608.391 226.831 601.166 263.218 597.476C298.241 593.926 333.435 593.44 368.599 592.506C430.323 590.877 494.697 587.072 548.965 554.683C598.263 525.267 633.745 477.148 658.273 426.443C719.99 298.835 717.59 151.205 717.66 12.9224C717.699 -59.1173 716.328 -131.08 713.149 -203.058C710.321 -267.093 702.576 -332.333 709.986 -396.252C712.019 -413.789 715.346 -431.126 719.624 -448.254C720.224 -450.662 716.468 -451.697 715.868 -449.281C707.742 -416.73 703.698 -383.593 703.262 -350.078C702.833 -317.296 705.272 -284.538 706.931 -251.81C710.399 -183.545 712.985 -115.241 713.624 -46.8907C714.325 28.2057 714.957 103.657 710.282 178.638C705.856 249.574 695.976 321.05 670.623 387.895C648.923 445.115 615.661 501.354 565.756 538.744C513.841 577.647 449.428 585.844 386.2 588.09C315.328 590.614 244.798 590.56 175.913 609.641C111.306 627.541 49.9081 657.93 -3.93152 697.505C-55.4337 735.358 -100.703 782.373 -129.492 839.608C-157.371 895.029 -168.606 958.262 -157.308 1019.46C-154.753 1033.3 -151.005 1046.89 -146.236 1060.15C-145.403 1062.47 -141.632 1061.47 -142.481 1059.12L-142.465 1059.15Z" fill="#FF0000"/>
<path d="M-127.263 1073.01C-153.357 1011.57 -158.102 942.755 -140.673 878.341C-123.243 813.928 -83.9499 756.338 -33.858 711.005C16.569 665.371 77.2185 630.104 141.857 608.314C176.397 596.674 212.153 589.248 248.477 585.96C285.463 582.618 322.613 583.297 359.693 584.169C425.182 585.705 493.919 587.712 554.28 558.381C607.192 532.669 646.851 485.893 674.402 435.242C742.968 309.186 741.542 158.275 737.896 19.0434C735.948 -55.3738 731.444 -129.629 723.123 -203.621C719.664 -234.42 715.612 -265.156 710.992 -295.8C705.405 -332.927 699.507 -370.14 698.673 -407.738C698.276 -425.854 699.141 -443.947 701.221 -461.947C701.509 -464.409 697.606 -464.394 697.325 -461.947C689.066 -390.54 704.314 -320.23 713.594 -249.71C722.944 -178.72 729.146 -107.337 732.2 -35.8064C735.426 39.7145 737.358 115.791 732.309 191.274C727.463 263.684 715.456 336.735 685.708 403.526C661.18 458.592 624.521 511.226 572.465 543.877C513.624 580.781 443.126 582.124 375.729 580.696C302.971 579.16 230.728 578.071 160.175 598.542C96.6896 616.959 36.8738 648.436 -14.5817 689.562C-64.5178 729.468 -106.382 779.193 -131.034 838.265C-156.396 899.035 -162.014 966.961 -145.737 1030.8C-141.966 1045.58 -137.003 1060.01 -131.042 1074.06C-130.084 1076.31 -126.313 1075.33 -127.287 1073.03L-127.263 1073.01Z" fill="#FF0000"/>
<path d="M-112.261 1086.42C-142.944 1022.39 -153.4 949.447 -139.624 879.715C-126.161 811.558 -90.4363 750.787 -40.9366 702.143C7.38668 654.657 67.0545 617.954 131.304 595.747C165.812 583.822 201.677 576.381 238.118 573.571C276.398 570.622 314.795 572.467 353.044 574.999C422.724 579.615 496.167 587.156 562.465 560.048C617.263 537.64 659.984 493.511 690.192 443.895C766.76 318.124 765.56 161.679 757.955 19.8075C753.896 -55.8369 745.98 -131.211 732.703 -205.837C726.82 -238.92 719.894 -271.817 711.923 -304.476C702.783 -341.904 692.631 -379.225 687.029 -417.387C684.224 -436.529 682.759 -455.811 682.782 -475.154C682.782 -477.64 678.887 -477.64 678.887 -475.154C678.824 -400.66 703.399 -329.384 718.733 -257.182C734.207 -184.317 744.515 -110.409 750.413 -36.1848C756.608 41.7058 760.043 120.53 754.722 198.568C749.704 272.097 736.03 346.198 702.908 412.749C675.396 468.024 634.405 519.315 578.531 548.369C513.83 582.015 438.852 576.975 368.346 572.182C293.688 567.103 219.457 564.748 147.043 586.608C84.0167 605.627 25.0813 638.494 -24.3873 681.573C-74.1286 724.883 -113.484 779.061 -133.812 841.869C-155.059 907.518 -154.405 979.002 -133.204 1044.57C-128.358 1059.56 -122.428 1074.16 -115.619 1088.38C-114.543 1090.62 -111.185 1088.66 -112.253 1086.43L-112.261 1086.42Z" fill="#FF0000"/>
<path d="M-97.0544 1100.28C-132.046 1033.73 -147.98 957.412 -138.427 882.686C-129.327 811.457 -96.8752 745.932 -47.765 693.475C-1.31953 643.874 57.7404 605.457 122.052 582.725C156.327 570.607 192.075 563.197 228.384 560.781C268.424 558.118 308.52 561.174 348.334 565.343C420.422 572.884 495.961 585.28 566.654 562.718C624.343 544.309 671.224 502.635 704.783 453.559C790.248 328.56 789.664 166.334 777.875 21.6752C771.556 -55.868 760.064 -132.987 741.761 -208.677C733.245 -243.906 723.241 -278.757 711.779 -313.16C698.939 -351.715 684.556 -389.869 674.715 -429.335C669.869 -448.764 666.277 -468.439 664.313 -488.361C664.072 -490.808 660.176 -490.839 660.418 -488.361C668.116 -410.424 701.557 -338.199 723.171 -263.589C744.831 -188.794 759.596 -112.077 768.494 -34.7881C777.649 44.7544 782.698 125.678 777.127 205.661C771.93 280.202 756.503 355.182 720.077 421.255C689.106 477.433 642.793 528.053 582.175 552.969C512.503 581.606 435.117 570.916 362.422 562.988C289.726 555.061 212.107 550.939 138.819 573.162C75.2091 592.443 16.196 626.931 -32.0493 672.248C-81.1829 718.399 -117.85 776.151 -134.501 841.46C-152.6 912.489 -146.71 988.149 -120.974 1056.59C-115.1 1072.22 -108.189 1087.43 -100.413 1102.22C-99.2517 1104.42 -95.8935 1102.47 -97.0466 1100.27L-97.0544 1100.28Z" fill="#FF0000"/>
<path d="M-81.8556 1114.14C-120.019 1046.73 -140.97 969.469 -137.113 891.964C-133.428 817.918 -106.087 747.144 -58.5277 689.94C-14.2249 636.641 44.7883 595.021 110.011 570.746C143.951 558.11 179.582 550.299 215.766 547.89C257.685 545.104 299.658 549.164 341.156 554.891C416.165 565.25 494.065 582.633 569.347 564.926C631.461 550.314 683.626 510.138 721.189 459.919C814.602 335.029 813.753 166.774 797.157 19.1359C788.118 -61.271 772.286 -140.96 748.319 -218.333C737.021 -254.805 723.83 -290.636 709.003 -325.849C692.75 -364.466 674.954 -402.535 661.552 -442.256C654.945 -461.839 649.553 -481.769 645.774 -502.07C645.323 -504.509 641.567 -503.474 642.019 -501.043C657.173 -419.602 699.147 -346.327 727.188 -269.015C754.412 -193.965 773.603 -116.144 785.758 -37.3426C798.543 45.5189 805.579 130.511 799.401 214.268C793.791 290.375 775.987 366.683 735.331 432.278C700.526 488.425 648.985 536.69 584.572 556.775C508.518 580.487 427.486 563.336 350.794 552.383C274.102 541.43 199.209 537.539 125.431 561.306C61.2441 581.984 2.41781 619.158 -43.9264 667.725C-91.6964 717.782 -124.14 779.756 -136.069 847.774C-149.019 921.636 -137.97 998.368 -109.165 1067.37C-102.192 1084.09 -94.1661 1100.33 -85.237 1116.1C-84.0137 1118.26 -80.6479 1116.32 -81.8712 1114.15L-81.8556 1114.14Z" fill="#FF0000"/>
<path d="M-66.6593 1128.01C-108.251 1058.85 -133.823 979.481 -134.68 898.626C-135.482 822.997 -113.572 748.511 -68.6149 687.123C-26.6964 629.888 32.3091 584.648 98.662 558.612C132.064 545.506 167.415 537.254 203.271 534.753C245.837 531.782 288.433 536.413 330.391 543.306C408.634 556.158 488.56 578.55 568.415 566.786C635.89 556.852 694.631 518.59 737.126 466.588C838.541 342.485 837.949 169.005 816.35 18.7811C804.227 -65.5547 783.688 -148.571 753.512 -228.383C739.191 -266.244 722.602 -303.148 704.355 -339.303C684.743 -378.182 663.722 -416.483 647.141 -456.775C639.295 -475.849 632.555 -495.331 627.311 -515.269C626.68 -517.669 622.925 -516.65 623.556 -514.242C645.022 -432.639 692.122 -361.047 726.241 -284.514C760.36 -207.982 785.714 -126.202 801.952 -43.4326C818.594 41.4281 828.162 129.098 822.28 215.557C816.935 294.158 797.386 372.921 752.787 439.063C714.133 496.391 657.044 543.09 588.354 559.114C507.064 578.079 423.196 555.424 343.021 541.554C302.224 534.499 260.89 528.98 219.377 530.122C183.45 531.11 147.85 537.432 113.84 548.971C48.991 570.978 -9.64067 610.876 -54.037 662.577C-100.171 716.3 -128.415 781.848 -136.261 851.958C-144.91 929.247 -129.202 1008.04 -97.1241 1078.62C-89.1144 1096.25 -80.0218 1113.36 -70.0331 1129.97C-68.7475 1132.1 -65.3815 1130.16 -66.6671 1128.02L-66.6593 1128.01Z" fill="#FF0000"/>
<path d="M-51.4567 1141.88C-136.494 1007.37 -168.104 825.583 -78.174 685.324C-39.8006 625.473 16.8441 577.276 82.3633 548.74C116.311 533.958 152.729 524.572 189.692 521.531C233.161 517.957 276.778 523.098 319.484 531.017C401.739 546.27 484.579 573.957 569.273 567.257C639.912 561.661 703.452 527.405 750.645 475.627C863.662 351.624 862.026 169.143 834.537 14.2268C819.281 -71.73 793.849 -155.904 758.561 -235.878C740.937 -275.808 720.601 -314.348 698.629 -352.085C676.555 -389.992 653.446 -427.39 634.224 -466.833C624.469 -486.848 615.859 -507.357 608.854 -528.476C608.075 -530.822 604.312 -529.819 605.099 -527.449C632.79 -443.947 685.734 -372.216 726.047 -294.688C766.727 -216.45 797.379 -133.164 817.762 -47.5161C838.604 40.0771 850.923 131.414 844.759 221.485C839.22 302.44 817.076 383.248 767.654 449.051C724.208 506.896 661.12 550.407 588.316 561.26C502.04 574.112 415.967 546.023 332.223 529.543C290.46 521.33 247.918 515.194 205.228 516.768C169.356 518.088 133.795 525.128 100.136 537.493C35.3491 561.298 -21.9656 603.875 -63.8452 658.262C-160.18 783.376 -151.633 953.26 -85.0538 1089.78C-76 1108.35 -65.8556 1126.35 -54.8071 1143.83C-53.4826 1145.93 -50.1088 1143.99 -51.4411 1141.88L-51.4567 1141.88Z" fill="#FF0000"/>
<path d="M-36.2559 1155.74C-126.093 1019.54 -170.169 832.183 -86.1609 682.762C-50.4989 619.328 5.4056 567.288 71.9221 536.66C106.61 520.69 144.15 510.709 182.297 507.722C226.616 504.248 271.035 510.292 314.333 519.37C398.895 537.092 482.81 568.376 570.317 566.887C645.03 565.613 714.219 534.313 766.399 481.679C889.615 357.382 886.195 165.747 851.499 6.7396C832.409 -80.7378 802.03 -165.768 761.553 -245.774C740.897 -286.599 717.266 -325.664 692.231 -363.972C667.197 -402.281 641.563 -439.848 619.637 -479.808C608.651 -499.839 598.733 -520.417 590.38 -541.667C589.484 -543.96 585.713 -542.964 586.625 -540.64C619.746 -456.359 677.053 -384.983 723.086 -307.663C769.119 -230.344 807.032 -143.067 832.137 -54.463C878.364 108.667 899.814 314.034 784.928 455.242C736.698 514.522 667.618 555.725 590.279 562.055C500.583 569.395 413.348 537.347 327.111 518.189C284.608 508.749 241.123 501.678 197.428 503.037C160.909 504.179 124.648 511.55 90.5829 524.634C25.3675 549.681 -31.2459 594.736 -71.1076 651.57C-165.339 785.924 -144.434 964.19 -71.8555 1103.13C-62.0693 1121.86 -51.2625 1140.04 -39.6219 1157.69C-38.2584 1159.76 -34.8846 1157.83 -36.2559 1155.75V1155.74Z" fill="#FF0000"/>
<path d="M-21.0472 1169.6C-115.972 1030.85 -171.37 837.455 -92.6437 678.957C-59.4828 612.196 -4.3264 556.374 63.39 523.831C98.2884 507.058 136.319 496.715 175.004 493.79C219.86 490.393 264.771 497.171 308.364 507.228C395.614 527.359 480.955 562.271 571.376 565.775C649.455 568.801 723.748 541.253 780.977 488.564C915.872 364.36 910.184 162.807 867.689 -0.554479C843.972 -91.7292 807.398 -179.608 760.236 -261.319C713.183 -342.846 651.45 -414.6 603.212 -495.3C591.603 -514.728 580.983 -534.705 571.727 -555.345C570.714 -557.606 567.356 -555.646 568.361 -553.4C606.75 -467.767 668.685 -395.951 720.343 -318.269C773.887 -237.754 816.748 -150.207 846.667 -58.4379C901.014 108.25 926.804 323.273 799.038 464.79C745.86 523.685 671.786 560.419 591.588 562.101C498.619 564.054 410.021 528 321.111 506.287C278.328 495.835 234.313 487.947 190.081 489.151C152.977 490.162 116.139 497.811 81.7234 511.574C14.903 538.296 -41.7883 587.126 -79.6319 647.703C-168.923 790.632 -136.534 974.695 -59.1712 1115.21C-48.5279 1134.54 -36.8875 1153.31 -24.4132 1171.54C-23.0107 1173.59 -19.6369 1171.66 -21.0472 1169.6V1169.6Z" fill="#FF0000"/>
<path d="M393.919 1193.74C478.107 1103.64 569.463 1006.47 600.691 884.108C614.685 829.273 615.705 769.777 593.063 717.026C571.769 667.417 531.401 629.001 486.724 599.584C382.847 531.18 256.172 509.382 150.067 445.277C103.995 417.443 60.7829 380.686 35.6006 332.606C8.93789 281.708 9.52228 223.771 28.0272 170.31C69.0654 51.7566 177.251 -27.8784 277.684 -95.5956C290.774 -104.418 303.934 -113.148 317.094 -121.878C319.167 -123.252 317.219 -126.595 315.131 -125.213C214.222 -58.3061 104.603 12.5063 45.5426 121.396C19.55 169.314 3.81892 224.936 13.2779 279.423C22.1057 330.259 53.1004 373.863 91.4582 407.532C184.583 489.275 311.289 514.415 420.691 567.034C471.538 591.495 521.287 622.517 557.378 666.352C595.159 712.225 610.54 769.669 606.122 828.301C596.421 957.159 507.964 1063.83 423.971 1155.61C413.109 1167.47 402.147 1179.24 391.168 1191C389.47 1192.82 392.213 1195.55 393.927 1193.73L393.919 1193.74Z" fill="#FF0000"/>
<path d="M299.987 -120.775C203.987 -53.3745 104.824 20.1549 52.8617 128.095C29.6974 176.222 15.9842 230.647 23.7524 284.061C30.9751 333.755 57.8093 377.807 93.518 412.673C179.256 496.399 301.732 525.884 406.684 577.909C456.277 602.494 504.866 632.497 541.93 673.939C580.802 717.404 600.46 772.092 599.93 830.06C598.777 955.136 516.849 1059.52 437.928 1149.56C427.745 1161.17 417.468 1172.71 407.191 1184.25C405.539 1186.11 408.281 1188.85 409.949 1186.99C488.425 1098.92 574.538 1004.41 597.998 885.357C608.789 830.608 605.291 772.354 579.797 721.919C555.986 674.811 515.158 638.471 471.268 609.927C370.126 544.155 248.095 518.552 147.856 451.405C104.683 422.491 65.6788 384.885 43.6988 337.414C20.1995 286.663 21.4304 229.706 37.6836 177.04C73.7507 60.1463 170.273 -22.9315 266.693 -92.424C278.388 -100.853 290.169 -109.166 301.966 -117.448C303.991 -118.876 302.051 -122.219 300.002 -120.783L299.987 -120.775Z" fill="#FF0000"/>
<path d="M284.845 -116.344C193.847 -48.0401 105.927 28.469 60.557 134.981C39.5977 184.181 27.4662 238.861 34.611 292.306C41.0079 340.209 64.071 383.813 96.8033 419.227C133.478 458.909 180.204 487.5 228.278 511.659C282.359 538.837 338.793 561.137 392.68 588.716C441.572 613.741 489.56 643.211 527.575 683.125C566.907 724.421 590.017 776.461 593.157 833.264C599.834 953.832 525.565 1055.17 451.841 1143.5C442.343 1154.88 432.767 1166.18 423.207 1177.5C421.61 1179.39 424.353 1182.14 425.965 1180.23C498.785 1094.02 579.241 1002.25 594.824 886.601C602.039 833.048 594.442 777.264 567.53 729.778C541.865 684.499 500.873 649.556 457.537 621.406C408.17 589.342 354.135 565.467 300.56 541.307C247.671 517.464 193.979 493.289 147.152 458.731C106.418 428.674 70.8651 389.949 51.9004 342.718C31.5022 291.92 33.154 236.074 47.4983 183.949C78.7191 70.4902 161.769 -15.7677 252.572 -86.8426C263.885 -95.6961 275.323 -104.387 286.816 -113.009C288.787 -114.491 286.847 -117.841 284.853 -116.344H284.845Z" fill="#FF0000"/>
<path d="M269.3 -111.605C227.132 -77.3489 186.398 -41.1245 151.663 0.680622C116.765 42.7019 88.3881 89.7094 69.0885 140.715C50.2641 190.479 39.2234 244.881 44.958 298.117C50.0303 345.264 69.5639 389.277 99.8029 425.879C132.216 465.106 174.727 494.361 219.006 519.015C271.085 548.007 325.984 571.619 378.67 599.468C426.822 624.917 474.296 653.886 513.083 692.341C551.877 730.804 577.908 778.9 585.474 833.024C593.047 887.195 582.755 942.392 560.494 992.101C536.979 1044.62 502.182 1091.17 466.653 1136.21C457.544 1147.76 448.358 1159.24 439.203 1170.75C437.668 1172.68 440.411 1175.43 441.961 1173.49C509.639 1088.32 584.648 998.516 591.341 885.45C594.426 833.341 582.467 780.505 554.051 736.261C526.009 692.588 484.495 658.957 441.058 631.092C392.843 600.17 340.788 575.933 289.364 550.839C238.313 525.931 186.539 500.073 142.851 463.439C105.6 432.201 75.0024 392.928 59.4894 346.7C42.348 295.601 45.036 240.481 58.0245 188.773C71.6363 134.571 96.1954 83.1947 128.374 37.4221C160.289 -7.98001 199.605 -47.5157 241.718 -83.632C251.699 -92.1922 261.836 -100.575 272.043 -108.865C273.983 -110.44 271.209 -113.157 269.285 -111.597L269.3 -111.605Z" fill="#FF0000"/>
<path d="M254.161 -107.167C216.255 -73.2886 180.655 -36.8867 150.868 4.30862C119.336 47.92 94.6521 96.1626 77.7132 147.107C61.0471 197.233 50.9805 251.056 55.1957 303.961C58.8967 350.413 74.916 395.035 102.607 432.772C131.506 472.138 170.628 502.265 212.125 527.652C261.43 557.817 313.938 582.386 364.622 610.112C412.189 636.133 459.289 664.793 498.847 702.051C538.405 739.31 565.909 783.67 577.261 835.757C588.208 885.968 583.378 938.571 565.558 986.652C546.064 1039.24 513.332 1085.65 480.14 1130.51C471.771 1141.82 463.325 1153.08 454.957 1164.39C453.469 1166.39 456.851 1168.31 458.323 1166.33C491.733 1121.23 526.788 1076.65 552.25 1026.47C574.823 982.005 588.255 933.701 586.923 883.675C585.567 832.793 569.337 782.782 539.168 741.448C509.077 700.23 467.728 668.258 424.874 640.941C377.057 610.468 325.999 585.559 275.907 559.06C227.903 533.658 179.564 506.618 139.983 469.097C106.02 436.902 80.0507 397.197 67.553 352.096C53.2243 300.387 56.785 245.429 68.6905 193.62C80.7441 141.132 101.431 90.4274 129.216 44.1763C157.024 -2.10579 192.101 -43.3706 231.168 -80.6911C239.614 -88.7573 248.232 -96.6537 256.942 -104.442C258.805 -106.109 256.046 -108.834 254.184 -107.174L254.161 -107.167Z" fill="#FF0000"/>
<path d="M239.01 -102.736C205.366 -68.889 174.956 -32.0703 150.046 8.60018C122.566 53.462 101.653 102.175 86.9114 152.541C59.7111 245.437 50.104 352.512 103.975 438.106C128.939 477.781 164.64 508.926 203.309 535.108C250.035 566.748 300.587 592.382 349.658 620.17C440.181 671.423 536.149 733.127 567.985 837.493C582.236 884.192 582.992 934.704 569.489 981.658C554.475 1033.89 524.353 1079.93 493.818 1124.41C486.213 1135.49 478.538 1146.53 470.965 1157.63C469.555 1159.69 472.928 1161.63 474.331 1159.58C504.679 1115.11 537.232 1071.34 558.955 1021.86C578.169 978.076 586.833 931.053 581.449 883.436C575.855 834.02 556.033 787.004 524.703 748.179C492.883 708.736 451.252 677.891 408.633 650.79C361.914 621.088 312.609 595.763 264.59 568.261C219.313 542.333 174.005 514.237 138.211 475.952C106.639 442.174 84.6751 401.179 75.0915 356.07C64.1521 304.586 68.4766 250.755 79.1354 199.602C100.484 97.081 148.254 1.30583 219.196 -76.3764C226.544 -84.4194 234.094 -92.2772 241.776 -100.004C243.537 -101.771 240.787 -104.504 239.018 -102.736H239.01Z" fill="#FF0000"/>
<path d="M223.865 -98.2979C161.143 -24.8842 120.837 63.3881 96.7691 156.114C83.6325 206.727 74.8359 259.161 75.1631 311.533C75.4436 356.109 83.3443 400.863 103.883 440.862C124.421 480.86 156.998 514.074 193.221 541.453C236.495 574.165 284.304 600.548 331.053 627.966C419.714 679.967 516.228 738.028 556.775 836.937C574.477 880.116 581.147 928.367 572.794 974.425C563.351 1026.5 536.042 1072.65 508.226 1116.98C501.135 1128.28 493.991 1139.53 486.97 1150.87C485.654 1152.99 489.027 1154.94 490.336 1152.81C517.685 1108.64 547.846 1065.28 565.494 1016.11C581.022 972.827 584.154 926.908 574.711 881.938C564.66 834.066 541.036 789.659 508.218 753.281C474.301 715.682 432.313 685.888 389.63 658.872C343.559 629.71 295.508 603.79 249.281 574.891C207.082 548.508 165.343 519.277 134.075 480.22C106.072 445.246 88.9619 403.711 82.5105 359.636C74.9293 307.835 80.1576 254.429 90.0529 203.299C108.979 105.471 145.918 8.50732 206.965 -71.3207C213.284 -79.5798 219.86 -87.6461 226.616 -95.5502C228.228 -97.4336 225.486 -100.181 223.857 -98.2827L223.865 -98.2979Z" fill="#FF0000"/>
<path d="M208.423 -93.4731C155.83 -18.0217 126.604 72.0028 106.517 160.746C95.188 210.787 86.9445 261.909 85.2303 313.231C83.7266 358.255 87.8016 404.26 105.364 446.235C142.826 535.757 233.683 587.25 313.056 635.809C399.542 688.721 494.692 743.208 543.499 835.525C564.941 876.08 577.174 922.378 574.244 968.335C570.979 1019.47 547.145 1065.53 522.43 1109.47C515.94 1121.01 509.379 1132.51 502.998 1144.11C501.798 1146.29 505.164 1148.24 506.364 1146.05C530.954 1101.35 559.277 1057.4 571.891 1007.49C582.589 965.148 579.62 920.965 566.297 879.538C551.407 833.256 524.308 791.621 489.799 757.311C453.896 721.619 411.541 692.781 368.835 665.735C324.143 637.437 278.118 611.163 234.47 581.26C194.382 553.796 155.378 522.689 128.598 481.749C75.1248 400.022 84.9733 295 101.686 203.694C110.701 154.448 123.191 105.688 139.21 58.217C154.1 14.0885 172.48 -29.1215 196.961 -68.9274C201.683 -76.6076 206.639 -84.1333 211.797 -91.5357C213.222 -93.5812 209.849 -95.5186 208.431 -93.4808L208.423 -93.4731Z" fill="#FF0000"/>
<path d="M193.279 -89.0352C175.413 -54.5784 162.556 -17.7134 151.563 19.3833C137.631 66.4063 126.481 114.317 116.991 162.398C107.182 212.107 99.2656 262.349 95.588 312.899C92.3311 357.645 92.2298 403.788 105.304 447.152C132.832 538.435 217.931 593.772 294.397 642.91C379.622 697.675 474.289 749.746 530.069 836.999C554.324 874.937 571.535 918.78 573.966 963.943C576.654 1013.81 557.207 1059.35 535.647 1103.27C530.076 1114.62 524.435 1125.94 519.02 1137.36C517.96 1139.6 521.319 1141.56 522.386 1139.31C543.509 1094.78 569.112 1050.87 576.171 1001.41C582.023 960.385 573.756 918.765 557.658 880.857C538.538 835.826 508.408 796.19 472.255 763.2C435.183 729.368 393.054 701.38 350.847 674.31C308.64 647.24 261.899 618.919 220.12 587.411C182.643 559.145 147.083 526.641 124.939 484.844C104.237 445.763 97.7151 401.874 97.6995 358.178C97.6761 306.902 104.494 255.548 113.088 205.067C121.199 157.411 131.437 110.079 143.506 63.2492C154.796 19.4295 167.761 -24.4134 186.367 -65.8017C189.601 -72.9879 193.021 -80.0816 196.644 -87.0825C197.79 -89.2901 194.424 -91.2428 193.279 -89.0275V-89.0352Z" fill="#FF0000"/>
<path d="M177.938 -84.1414C166.944 -49.1442 159.83 -12.9429 152.849 23.0036C143.749 69.9032 135.342 116.957 127.418 164.065C119.12 213.388 111.538 262.881 106.209 312.614C101.363 357.869 97.4434 404.514 106.334 449.538C114.39 490.347 134.453 526.572 162.487 557.269C195.438 593.355 235.79 622.409 276.112 649.826C359.247 706.351 452.294 756.091 514.214 837.216C541.562 873.046 563.511 914.512 571.934 958.965C576.126 981.087 576.157 1003.66 571.973 1025.8C567.391 1050.09 558.431 1073.23 549.089 1096.04C544.313 1107.71 539.435 1119.33 534.838 1131.07C533.934 1133.39 537.698 1134.39 538.594 1132.1C556.545 1086.23 579.593 1040.81 579.047 990.427C578.619 950.227 564.15 910.784 544.538 876.034C495.023 788.317 409.776 733.004 327.209 679.049C283.981 650.806 240.356 622.532 201.11 588.917C166.975 559.685 136.206 525.676 120.023 483.323C104.3 442.174 103.474 397.636 106.373 354.257C109.777 303.305 117.141 252.561 125.111 202.15C132.552 155.08 140.975 108.173 149.577 61.3043C157.212 19.6922 164.903 -22.0974 175.858 -63.0071C177.665 -69.7457 179.59 -76.4533 181.678 -83.107C182.426 -85.4844 178.663 -86.5033 177.922 -84.1336L177.938 -84.1414Z" fill="#FF0000"/>
<path d="M162.728 -79.193C160.056 -44.7671 157.975 -10.3105 154.781 24.0769C150.378 71.4473 144.387 118.609 137.818 165.725C130.938 215.133 123.63 264.479 116.882 313.911C110.751 358.827 103.442 404.808 107.673 450.225C111.459 490.95 126.669 528.363 151.968 560.635C181.217 597.956 219.1 628.105 257.364 655.87C338.093 714.456 429.293 762.343 496.37 837.386C526.851 871.48 553.443 910.846 567.944 954.372C574.52 974.125 578.205 994.618 577.48 1015.47C576.616 1040.4 569.806 1064.51 562.302 1088.17C558.485 1100.21 554.511 1112.21 550.88 1124.31C550.163 1126.69 553.927 1127.71 554.636 1125.34C568.497 1079.07 587.259 1033.47 579.413 984.275C573.109 944.724 553.825 907.457 531.035 874.845C473.627 792.686 387.826 740.221 305.968 685.008C263.816 656.58 221.726 627.11 185.269 591.603C153.705 560.867 127.604 525.105 116.875 481.988C106.208 439.11 110.579 394.117 115.916 350.815C122.196 299.863 129.918 249.081 137.141 198.252C143.569 153.035 149.973 107.788 154.835 62.3777C159.206 21.5683 162.44 -19.3261 165.26 -60.2667C165.697 -66.573 166.133 -72.8868 166.624 -79.1853C166.819 -81.6631 162.923 -81.6476 162.728 -79.1853V-79.193Z" fill="#FF0000"/>
<path d="M147.649 -74.2456C154.139 -41.5873 156.235 -8.14168 156.562 25.0878C157.014 70.8604 153.633 116.51 148.747 161.997C143.433 211.42 136.491 260.674 128.544 309.743C121.157 355.392 110.709 401.365 109.774 447.755C108.963 488.233 118.547 527.243 140.66 561.515C165.616 600.194 200.927 631.733 236.979 660.03C315.253 721.472 405.463 768.264 476.935 838.08C510.205 870.576 540.538 907.403 561.264 949.108C569.951 966.583 576.948 985.17 579.932 1004.49C583.898 1030.2 579.994 1055.93 574.657 1081.14C572.086 1093.28 569.289 1105.38 566.881 1117.56C566.398 1119.98 570.154 1121.02 570.637 1118.58C575.444 1094.24 582.051 1070.15 584.545 1045.42C586.828 1022.75 584.693 1000.21 577.618 978.516C564.996 939.791 541.426 904.833 515.379 873.749C450.803 796.715 363.607 746.358 282.357 688.914C209.397 637.329 124.726 572.483 114.807 477.403C110.054 431.831 119.638 385.819 127.25 341.073C135.509 292.537 142.865 243.847 148.841 194.987C159.024 111.701 167.089 25.7439 154.466 -57.7429C153.578 -63.6092 152.557 -69.4523 151.404 -75.2646C150.921 -77.696 147.166 -76.6693 147.649 -74.2379V-74.2456Z" fill="#FF0000"/>
<path d="M132.697 -69.3518C147.929 -40.4294 154.357 -7.03789 158.105 25.0647C163.333 69.8647 162.461 115.074 159.157 159.974C155.573 208.834 149.192 257.525 140.527 305.752C132.167 352.258 119.155 398.123 113.28 445.046C108.192 485.685 112.026 526.201 131.123 563.02C151.95 603.166 185.095 636.372 219.323 665.518C295.166 730.102 384.964 776.5 459.67 842.442C495.643 874.197 529.614 909.464 555.584 949.864C565.853 965.834 575.094 982.831 580.906 1000.93C588.573 1024.81 588.596 1049.55 586.407 1074.26C585.308 1086.62 583.867 1098.95 582.831 1111.31C582.62 1113.79 586.524 1113.77 586.727 1111.31C588.776 1086.86 592.718 1062.34 591.433 1037.74C590.303 1016.15 584.412 995.637 574.985 976.216C556.511 938.178 528.625 904.647 499.142 874.505C464.29 838.883 425.309 808.216 384.473 779.649C342.765 750.464 299.802 722.985 259.123 692.364C218.443 661.744 181.347 630.035 152.511 590.09C140.107 572.9 129.58 554.198 123.16 533.982C116.74 513.766 114.363 492.864 115.002 471.83C116.444 424.475 130.321 378.046 139.538 331.826C148.997 284.394 156.009 236.429 160.637 188.302C164.969 143.217 167.393 97.7374 164.455 52.4897C162.079 15.887 156.968 -21.8116 143.075 -56.0677C140.971 -61.247 138.657 -66.3337 136.047 -71.2815C134.886 -73.4813 131.52 -71.5364 132.681 -69.3365L132.697 -69.3518Z" fill="#FF0000"/>
<path d="M117.864 -64.5274C140.561 -39.8966 152.155 -6.28129 159.416 25.6669C169.436 69.7722 171.01 115.29 169.218 160.314C167.27 209.244 161.372 258.104 151.944 306.169C142.618 353.732 127.011 399.705 117.061 447.091C108.771 486.596 107.532 527.166 123.022 565.174C139.789 606.315 170.325 641.011 202.628 671.045C276.539 739.758 367.342 786.619 445.367 850.153C483.125 880.889 519.519 914.234 549.929 952.265C561.609 966.877 572.548 982.361 581.025 999.041C592.144 1020.92 596.242 1044.6 597.512 1068.86C598.136 1080.74 598.323 1092.65 598.853 1104.55C598.962 1107.02 602.857 1107.04 602.748 1104.55C601.735 1081.83 602.109 1058.86 597.816 1036.43C593.749 1015.18 584.797 995.791 573.094 977.66C549.579 941.227 518.607 909.549 486.568 880.441C448.818 846.154 407.944 816.113 365.799 787.391C323.008 758.229 279.422 729.955 239.101 697.428C201.701 667.255 165.502 633.053 140.693 591.657C129.847 573.564 121.588 554.059 117.607 533.334C113.477 511.852 113.968 489.807 117.17 468.241C124.144 421.287 140.608 376.101 150.947 329.843C161.598 282.217 168.462 233.658 171.774 184.991C174.789 140.708 175.007 95.9314 168.307 51.9573C162.767 15.5707 152.91 -22.3981 131.764 -53.2194C128.383 -58.1517 124.674 -62.8524 120.622 -67.2599C118.931 -69.097 116.181 -66.3645 117.864 -64.5274Z" fill="#FF0000"/>
<path d="M103.109 -59.7889C131.486 -39.6273 149.001 -7.03837 160.05 25.0102C174.854 67.9809 179.264 113.661 179.139 158.839C179.007 207.769 173.74 256.829 163.821 304.756C153.801 353.168 136.176 399.033 122.066 446.288C110.309 485.646 103.74 526.903 115.685 567.072C128.408 609.858 157.222 646.777 188.318 678.192C259.797 750.41 351.231 798.081 431.858 858.905C471.533 888.839 510.335 920.656 544.867 956.394C558.113 970.11 570.891 984.49 581.783 1000.14C595.481 1019.8 603.522 1041.79 608.548 1065.02C610.932 1076.07 612.841 1087.2 614.952 1098.3C615.412 1100.74 619.167 1099.71 618.708 1097.28C614.493 1075.06 611.103 1052.46 602.828 1031.27C595.302 1011.98 583.708 995.065 570.548 979.157C541.813 944.414 507.436 914.249 472.476 885.844C432.622 853.471 390.571 824.379 347.889 795.835C304.35 766.712 260.467 737.612 220.871 703.263C184.43 671.647 149.703 634.982 129.055 591.047C119.744 571.232 114.111 550.052 113.184 528.177C112.272 506.657 115.708 485.299 121.045 464.489C133.107 417.458 152.032 372.504 163.283 325.203C174.589 277.655 180.986 228.81 182.661 180.004C184.196 135.351 181.874 90.049 170.623 46.6229C161.452 11.2321 146.228 -24.8536 119.627 -50.974C115.116 -55.4047 110.254 -59.457 105.096 -63.1312C103.055 -64.5823 101.107 -61.2323 103.132 -59.7966L103.109 -59.7889Z" fill="#FF0000"/>
<path d="M87.9674 -55.3504C120.591 -39.1872 143.934 -9.40019 159.354 22.6869C179.487 64.5847 187.123 111.175 188.814 157.21C190.629 206.75 185.97 256.714 175.451 305.165C164.855 353.94 145.563 399.327 127.837 445.794C112.862 485.044 101.174 526.502 109.207 568.67C117.544 612.466 143.934 651.369 173.394 684.097C242.007 760.336 334.726 809.281 417.909 867.635C459.523 896.828 500.632 927.186 539.083 960.408C553.973 973.275 568.512 986.636 581.898 1001.06C598.112 1018.52 610.321 1038.49 619.352 1060.41C623.575 1070.66 627.268 1081.11 630.977 1091.55C631.803 1093.87 635.566 1092.88 634.732 1090.52C627.424 1069.98 620.108 1049.27 608.895 1030.42C597.683 1011.57 583.588 996.486 568.286 981.727C534.915 949.54 497.858 921.119 460.537 893.617C418.337 862.533 374.627 833.873 330.885 804.997C287.057 776.059 243.3 746.28 204.833 710.449C169.28 677.328 135.878 638.039 119.554 591.803C104.532 549.265 110.703 506.101 125.18 464.358C141.215 418.122 162.221 373.924 174.438 326.376C186.772 278.342 192.928 228.532 193.083 178.978C193.224 133.66 188.385 87.6639 172.825 44.809C160.039 9.60348 139.774 -24.3593 109.083 -47.014C103.06 -51.4601 96.6707 -55.3582 89.9543 -58.685C87.7182 -59.7965 85.7391 -56.4619 87.9908 -55.3504H87.9674Z" fill="#FF0000"/>
<path d="M73.2855 -50.7264C157.824 -20.6616 191.959 74.6272 198.231 156.014C202.088 206.063 198.114 256.961 187.05 305.929C175.846 355.523 154.645 400.832 133.6 446.875C115.944 485.508 99.7535 526.456 103.501 569.689C107.413 614.798 131.333 656.07 159.577 690.612C225.268 770.95 319.771 821.4 405.416 877.624C448.504 905.913 491.419 934.627 533.112 964.908C569.421 991.283 605.535 1018.37 630.21 1056.36C636.296 1065.73 641.82 1075.45 647.172 1085.24C648.365 1087.43 651.731 1085.48 650.538 1083.3C639.934 1063.91 628.481 1044.97 613.957 1028.16C599.262 1011.17 581.778 996.972 564.029 983.24C525.92 953.747 485.872 926.731 445.831 899.893C401.466 870.152 356.096 841.994 311.466 812.662C266.836 783.331 223.421 752.594 186.317 714.618C152.432 679.945 121.702 638.109 110.701 590.291C100.4 545.514 113.506 501.879 131.527 460.908C151.419 415.691 173.913 371.948 186.621 323.991C199.493 275.425 205.017 224.642 203.163 174.47C200.132 92.3805 173.571 -2.65369 95.6004 -44.9991C88.7673 -48.7119 81.6379 -51.8535 74.3061 -54.4624C71.9452 -55.3038 70.9247 -51.5755 73.2699 -50.7419L73.2855 -50.7264Z" fill="#FF0000"/>
<path d="M58.1472 -46.2879C97.9465 -36.0373 132.385 -11.3217 157.053 21.0202C185.804 58.7035 200.904 104.453 206.958 150.913C213.519 201.201 210.776 252.979 199.759 302.456C188.508 352.991 166.185 398.61 142 444.097C121.656 482.359 100.923 522.18 98.8893 566.255C96.7467 612.622 117.301 657.128 144.034 694.063C205.782 779.379 302.265 832.037 390.465 886.215C436.272 914.35 482.195 942.292 528.002 970.443C567.037 994.433 607.865 1017.64 639.733 1050.92C648.093 1059.65 655.838 1068.93 663.201 1078.5C664.704 1080.45 668.086 1078.53 666.567 1076.55C652.378 1058.12 636.733 1040.98 618.703 1026.15C601.227 1011.78 582.067 999.658 562.931 987.594C519.883 960.447 476.125 934.411 432.758 907.781C386.367 879.291 339.415 851.503 293.928 821.616C248.776 791.945 204.745 759.418 168.881 718.871C136.406 682.153 108.247 636.936 103.338 587.358C98.7724 541.253 117.901 498.429 138.805 458.461C162.133 413.862 186.053 369.996 199.19 321.136C212.311 272.322 216.932 220.907 212.911 170.557C209.241 124.591 197.967 78.8342 173.93 38.9819C152.807 3.96934 121.882 -25.5165 83.7816 -41.672C75.7952 -45.0606 67.5829 -47.8317 59.1758 -49.993C56.7448 -50.6182 55.7085 -46.8977 58.1394 -46.2724L58.1472 -46.2879Z" fill="#FF0000"/>
<path d="M43.0014 -41.8497C85.4966 -33.992 124.267 -12.3638 153.673 18.9592C187.208 54.6741 206.733 100.431 215.382 148.033C224.63 198.939 222.947 252.129 211.65 302.572C205.744 328.939 196.924 354.535 185.431 379.027C174.803 401.666 162.127 423.263 149.278 444.714C126.122 483.37 101.306 523.129 95.2751 568.562C89.2444 613.995 106.23 661.921 131.63 700.917C189.849 790.309 288.428 844.819 378.841 897.029C426.806 924.724 475.269 951.454 524.457 976.98C567.248 999.187 612.704 1018.72 651.312 1047.84C661.246 1055.33 670.619 1063.5 679.54 1072.15C681.332 1073.88 684.091 1071.16 682.299 1069.41C665.04 1052.69 645.951 1038.18 625.35 1025.7C604.313 1012.97 582.123 1002.22 560.228 991.029C512.887 966.838 465.841 942.076 419.567 915.925C371.595 888.824 323.443 861.546 277.434 831.242C231.799 801.184 187.737 767.237 153.486 724.467C122.748 686.074 97.9554 638.834 97.8229 588.778C97.6982 541.122 121.673 498.522 145.453 458.662C171.889 414.356 197.718 370.166 211.33 320.063C224.677 270.948 228.472 218.907 222.371 168.403C216.691 121.403 201.902 75.2834 173.502 36.7588C148.172 2.38689 113.079 -24.3898 72.3368 -38.2451C63.096 -41.3867 53.6448 -43.8104 44.0456 -45.5857C41.5912 -46.0411 40.5471 -42.3206 43.0092 -41.8652L43.0014 -41.8497Z" fill="#FF0000"/>
<path d="M28.3769 -37.3495C74.012 -31.4678 117.45 -11.862 151.421 18.9747C188.166 52.3354 211.853 96.6801 223.213 144.444C235.313 195.327 235.126 249.374 224.062 300.418C218.273 327.125 209.273 353.007 197.22 377.568C185.79 400.863 171.905 422.839 157.592 444.475C132.106 482.999 103.706 521.894 92.9378 567.505C81.9283 614.126 93.9351 661.759 116.881 702.993C170.199 798.822 272.58 856.459 366.266 907.334C417.09 934.936 468.818 960.717 521.902 983.804C544.646 993.692 567.607 1003.07 590.694 1012.14C615.705 1021.97 640.778 1031.98 664.238 1045.12C675.248 1051.29 685.829 1058.15 695.942 1065.67C697.952 1067.16 699.892 1063.81 697.906 1062.34C656.003 1031.21 606.363 1014.79 558.491 995.12C506.015 973.561 454.56 949.586 404.32 923.319C354.383 897.214 304.557 870.129 257.753 838.767C210.949 807.406 167.667 771.683 135.745 725.841C106.978 684.522 86.6032 633.632 93.974 582.696C100.869 535.07 129.083 494.323 155.216 455.065C184.099 411.685 210.731 367.433 224.14 316.728C237.284 267.042 239.715 214.284 231.082 163.633C222.963 116.016 203.975 70.5441 171.664 33.9723C141.814 0.17929 101.883 -24.1736 58.0472 -35.5512C48.2844 -38.083 38.3812 -39.9199 28.3769 -41.2167C25.8992 -41.5331 25.9225 -37.6737 28.3769 -37.3573V-37.3495Z" fill="#FF0000"/>
<path d="M13.2274 -32.9113C61.1533 -28.859 107.848 -11.9779 146.12 17.0757C187.088 48.1749 215.933 91.9636 230.472 140.816C245.011 189.668 247.146 246.95 236.323 298.913C230.698 325.913 221.558 352.049 209.037 376.665C197.038 400.246 182.265 422.275 166.83 443.757C138.632 482.999 106.492 521.616 91.2132 568.084C75.8171 614.898 83.4683 664.214 104.591 708.041C153.039 808.571 257.758 868.755 353.781 917.823C406.795 944.916 461.133 969.316 517.162 989.647C542.43 998.817 567.994 1007.11 593.792 1014.66C620.891 1022.6 648.239 1030.05 674.442 1040.65C687.369 1045.87 699.913 1051.95 711.967 1058.92C714.133 1060.18 716.096 1056.85 713.93 1055.59C665.661 1027.66 610.217 1016.61 557.624 999.488C501.493 981.218 446.742 958.903 393.611 933.33C341.688 908.337 290.155 881.429 242.416 849.164C195.682 817.579 152.042 779.803 122.099 731.715C94.6648 687.648 78.5362 634.296 91.065 582.78C102.752 534.7 134.495 494.747 163.145 455.443C194.552 412.356 222.797 367.695 236.385 315.725C249.537 265.406 250.8 211.69 239.666 160.877C229.015 112.256 205.897 67.055 169.705 32.1891C135.719 -0.554169 92.1092 -22.6067 45.7806 -32.1317C35.036 -34.3393 24.1668 -35.8522 13.2352 -36.7785C10.7341 -36.9869 10.7497 -33.1275 13.2352 -32.9191L13.2274 -32.9113Z" fill="#FF0000"/>
<path d="M-1.91424 -28.4801C49.2529 -26.0023 99.9215 -10.9585 142.666 17.3156C186.423 46.2611 219.654 88.4522 237.31 137.536C255.425 187.894 258.947 243.485 248.873 295.911C243.567 323.506 234.365 350.244 221.384 375.222C209.027 398.996 193.576 421.01 177.253 442.252C146.523 482.228 110.946 520.374 90.9377 567.181C70.89 614.073 73.2977 665.087 92.3792 711.909C135.482 817.68 242.484 880.805 341.304 928.368C397.084 955.206 454.648 978.332 514.058 996.024C541.726 1004.26 569.729 1011.26 598.005 1017.12C627.363 1023.2 657.002 1028.35 685.823 1036.73C700.222 1040.92 714.333 1045.97 727.983 1052.16C730.243 1053.19 732.23 1049.86 729.947 1048.83C675.811 1024.27 615.613 1018.45 558.377 1004.16C497.579 988.968 438.293 968.012 381.103 942.594C327.606 918.812 274.725 892.213 226.433 859.107C178.904 826.526 135.435 786.496 107.845 735.56C82.3514 688.498 71.7316 633.277 89.4418 581.77C106.053 533.465 141.349 494.246 172.476 454.649C205.988 412.025 235.378 367.063 248.81 314.073C261.814 262.79 261.534 207.855 247.486 156.803C234.146 108.305 207.351 64.6553 168.635 31.9506C130.425 -0.329491 82.8734 -20.6918 33.4594 -28.6808C21.7409 -30.5719 9.92892 -31.776 -1.92204 -32.3472C-4.43092 -32.4707 -4.42313 -28.6113 -1.92204 -28.4878L-1.91424 -28.4801Z" fill="#FF0000"/>
<path d="M-17.0539 -24.0423C37.0507 -23.0465 91.2723 -9.83189 138.177 17.292C184.607 44.1458 222.163 84.4611 243.325 133.591C265.016 183.957 270.704 241.107 260.988 294.907C255.9 323.081 246.511 350.382 232.962 375.661C220.043 399.759 203.759 421.882 186.431 443.023C153.761 482.891 115.987 520.057 91.8177 565.992C80.0135 588.431 72.2453 612.629 70.3441 637.924C68.3807 664.075 72.3933 690.504 80.6524 715.359C117.74 827.019 228.224 893.579 330.364 939.699C389.338 966.329 450.588 987.987 513.66 1002.91C543.736 1010.02 574.138 1015.49 604.783 1019.55C636.494 1023.75 668.44 1026.77 699.793 1033.26C714.955 1036.4 729.899 1040.42 744.485 1045.61C746.846 1046.45 747.867 1042.72 745.522 1041.89C685.363 1020.5 620.186 1019.85 557.846 1008.3C494.142 996.494 431.833 977.691 371.893 953.361C314.835 930.204 258.549 902.949 208.208 867.427C160.617 833.843 118.309 791.574 93.8746 738.322C70.8817 688.212 66.2846 631.393 89.1139 580.411C110.743 532.099 149.171 493.628 182.8 453.475C217.947 411.5 248.124 366.345 261.206 312.684C273.836 260.898 271.982 205.384 255.409 154.664C239.218 105.086 208.192 62.1847 166.071 30.962C124.215 -0.0676177 73.6555 -18.4153 22.0209 -25.0767C9.06354 -26.7516 -3.97963 -27.6624 -17.0461 -27.9017C-19.555 -27.948 -19.555 -24.0886 -17.0461 -24.0423H-17.0539Z" fill="#FF0000"/>
<path d="M-32.2003 -19.6122C24.2807 -19.9981 81.3539 -8.6747 131.906 16.7434C181.281 41.5671 223.456 80.0687 248.483 129.361C273.618 178.87 282.049 236.591 273.478 291.263C268.99 319.9 259.843 347.796 246.137 373.415C232.892 398.177 215.844 420.677 197.534 441.958C162.519 482.667 121.878 519.486 93.4229 565.336C79.4137 587.905 69.0042 612.629 64.9525 638.927C60.8542 665.541 62.8178 692.796 69.5965 718.824C84.1901 774.878 119.727 822.604 163.656 859.832C209.969 899.082 264.502 927.974 320.375 951.446C382.381 977.498 446.871 997.412 513.162 1009.4C545.512 1015.25 578.159 1019.12 610.969 1021.34C643.78 1023.56 678.92 1024.61 712.61 1029.2C728.77 1031.41 744.782 1034.51 760.505 1038.85C762.92 1039.53 763.957 1035.8 761.541 1035.13C697.308 1017.37 629.583 1021.02 563.869 1013.15C495.919 1005.01 429.037 988.497 364.897 964.9C305.556 943.072 247.096 916.256 195.485 879.623C146.429 844.803 103.599 799.748 81.6266 743.277C71.295 716.717 65.7085 688.258 66.846 659.744C67.9524 631.879 75.9153 605.087 89.1298 580.534C114.896 532.639 155.826 494.909 191.651 454.593C209.938 434.015 227.422 412.549 241.728 389.014C256.415 364.847 267.268 338.557 273.618 311.054C285.835 258.18 281.994 201.563 262.328 150.904C243.036 101.218 208.107 59.7526 163.407 30.4288C117.6 0.379466 63.6749 -16.3395 9.2275 -21.6346C-4.53239 -22.9699 -18.3547 -23.5487 -32.1847 -23.4484C-34.6936 -23.4329 -34.6936 -19.5735 -32.1847 -19.589L-32.2003 -19.6122Z" fill="#FF0000"/>
<path d="M-47.3498 -15.1736C12.0998 -16.864 72.5155 -7.02248 126.932 17.2686C179.221 40.6104 225.736 77.8073 254.324 127.594C282.669 176.963 293.437 235.819 285.194 291.966C280.932 320.996 271.535 349.271 257.37 375.028C243.423 400.385 225.269 423.163 205.813 444.559C168.507 485.6 125.467 522.102 93.7164 567.852C78.1177 590.321 65.8149 615.091 59.8621 641.829C53.9094 668.567 54.0885 697.945 59.7998 725.478C71.8845 783.693 106.915 833.873 151.732 872.375C198.108 912.212 253.467 940.748 310.259 963.04C375.272 988.559 443.269 1006.36 512.606 1015.48C547.31 1020.04 582.208 1022.27 617.208 1022.68C652.815 1023.11 688.485 1022.22 724.03 1024.86C741.662 1026.17 759.201 1028.43 776.506 1032.09C778.953 1032.61 779.997 1028.89 777.542 1028.37C708.174 1013.71 636.609 1021.63 566.344 1016.95C495.332 1012.22 424.974 998.323 357.461 976.008C296.733 955.939 236.917 929.95 184.574 893.038C134.373 857.624 91.4412 810.786 71.2299 752.255C61.5684 724.282 57.283 694.441 60.1113 664.939C62.8851 636.001 72.9207 608.607 87.9896 583.776C117.223 535.58 160.903 498.074 199.276 457.334C218.397 437.026 236.684 415.745 251.69 392.226C267.266 367.811 278.727 340.996 285.225 312.83C297.59 259.192 292.292 201.926 270.522 151.329C248.519 100.169 209.289 58.8963 161.277 30.5991C111.466 1.24439 53.9716 -14.1471 -3.60804 -18.1763C-18.1627 -19.1952 -32.7562 -19.4498 -47.342 -19.033C-49.8431 -18.9635 -49.8508 -15.1041 -47.342 -15.1736H-47.3498Z" fill="#FF0000"/>
<path d="M-62.4875 -10.7351C-0.0848832 -13.6682 63.3929 -5.1545 121.572 17.8939C176.815 39.7845 227.694 75.8392 259.927 126.066C291.257 174.872 304.62 234.415 297.031 291.765C293.049 321.822 283.24 351.077 268.233 377.491C253.772 402.94 234.862 425.587 214.674 446.744C174.945 488.371 129.294 524.75 94.224 570.615C76.9502 593.208 62.7696 618.21 54.9859 645.604C46.9294 673.963 45.667 703.912 50.3575 732.965C60.0347 792.917 94.2474 845.29 139.781 884.918C186.757 925.797 243.721 954.195 302.134 975.321C369.835 999.813 440.832 1015.18 512.615 1021.36C549.532 1024.54 586.526 1025.05 623.544 1023.69C661.333 1022.31 699.137 1019.6 736.973 1020.58C755.579 1021.05 774.147 1022.47 792.535 1025.35C794.989 1025.73 796.041 1022.01 793.571 1021.63C719.489 1010.02 644.425 1021.81 569.946 1020.48C495.871 1019.16 421.976 1008.04 350.925 987.208C288.249 968.837 226.423 943.558 172.903 905.913C121.611 869.836 78.8513 821.053 60.6814 760.483C51.8301 730.974 49.0019 699.566 53.8093 669.084C58.4687 639.537 70.3741 612.019 87.0559 587.219C119.508 538.968 165.626 501.74 206.391 460.792C226.532 440.561 245.809 419.257 261.665 395.514C278.121 370.868 290.197 343.535 296.82 314.706C309.45 259.717 302.391 201.054 277.879 150.218C252.891 98.3936 209.757 58.0165 159.058 30.9929C105.296 2.34064 44.2723 -11.8312 -16.4707 -14.6486C-31.8045 -15.3587 -47.1615 -15.3046 -62.4953 -14.5868C-64.9886 -14.471 -65.0042 -10.6116 -62.4953 -10.7274L-62.4875 -10.7351Z" fill="#FF0000"/>
<path d="M-77.6339 -6.30494C-11.6317 -10.4808 55.7109 -3.06298 118.043 19.4142C176.02 40.3245 230.733 75.3755 266.293 126.158C300.654 175.218 316.37 236.521 308.259 295.825C304.098 326.245 293.696 355.7 277.879 382.091C262.53 407.702 242.537 430.264 221.367 451.274C178.841 493.473 130.198 529.968 92.3468 576.651C73.834 599.483 58.36 624.755 49.2984 652.766C39.7772 682.191 37.354 713.599 41.5069 744.181C49.9373 806.309 84.5629 860.627 132.006 901.065C180.758 942.624 240.347 970.296 301.176 989.739C372.204 1012.44 446.613 1024.67 521.163 1027.28C559.864 1028.63 598.447 1026.97 637.016 1023.8C675.833 1020.61 714.651 1016.49 753.64 1016.09C772.16 1015.91 790.673 1016.63 809.084 1018.66C811.57 1018.94 811.554 1015.07 809.084 1014.8C731.613 1006.25 654.196 1021.29 576.802 1023.57C500.78 1025.81 424.384 1018.11 350.59 999.735C285.032 983.417 220.066 959.219 164.232 920.856C111.421 884.578 68.1305 834.36 51.1293 772.007C42.6521 740.908 40.9304 707.964 47.2104 676.301C53.3033 645.588 66.9775 617.298 85.389 592.004C120.685 543.53 169.195 506.456 212.399 465.377C233.592 445.231 253.944 423.965 270.789 400.052C288.164 375.398 301.012 347.827 307.97 318.526C321.333 262.233 312.84 202.08 285.944 150.912C258.026 97.791 210.841 57.7998 157.04 31.6562C99.3748 3.64457 34.8606 -9.43104 -29.1081 -11.1137C-45.2912 -11.5383 -61.482 -11.191 -77.6339 -10.1721C-80.1272 -10.0177 -80.1428 -6.15057 -77.6339 -6.31266V-6.30494Z" fill="#FF0000"/>
</g>
</svg>
