<svg width="844" height="837" viewBox="0 0 844 837" fill="none" xmlns="http://www.w3.org/2000/svg">
<path d="M422.206 834.567C654.28 834.567 842.413 648.191 842.413 418.284C842.413 188.377 654.28 2 422.206 2C190.133 2 2 188.377 2 418.284C2 648.191 190.133 834.567 422.206 834.567Z" fill="url(#paint0_linear_349_3)" stroke="black" stroke-width="3.12467" stroke-miterlimit="10"/>
<path d="M423.638 731.204C597.473 731.204 738.394 591.423 738.394 418.993C738.394 246.564 597.473 106.783 423.638 106.783C249.804 106.783 108.883 246.564 108.883 418.993C108.883 591.423 249.804 731.204 423.638 731.204Z" stroke="black" stroke-width="7.81167" stroke-miterlimit="10"/>
<path d="M425.939 668.605C564.561 668.605 676.936 557.327 676.936 420.059C676.936 282.791 564.561 171.513 425.939 171.513C287.317 171.513 174.941 282.791 174.941 420.059C174.941 557.327 287.317 668.605 425.939 668.605Z" stroke="black" stroke-width="7.81167" stroke-miterlimit="10"/>
<path d="M428.997 453.691C447.647 453.691 462.766 438.475 462.766 419.705C462.766 400.935 447.647 385.719 428.997 385.719C410.347 385.719 395.229 400.935 395.229 419.705C395.229 438.475 410.347 453.691 428.997 453.691Z" fill="black" stroke="black" stroke-width="7.81167" stroke-miterlimit="10"/>
<path d="M424.554 385.364C422.793 375.8 421.134 361.212 423.72 344.3C425.84 330.491 426.946 320.958 427.601 309.017C428.504 292.429 425.684 285.629 422.934 269.072C420.97 257.216 421.508 248.185 423.292 226.063" stroke="black" stroke-width="7.81167" stroke-miterlimit="10"/>
<path d="M436.912 385.603C438.393 376.039 439.787 361.451 437.613 344.539C435.837 330.73 434.902 321.197 434.357 309.256C433.593 292.668 435.969 285.868 438.276 269.311C439.927 257.455 439.476 248.424 437.972 226.302" stroke="black" stroke-width="7.81167" stroke-miterlimit="10"/>
<path d="M434.706 323.242H427.92V385.541H434.706V323.242Z" stroke="black" stroke-width="7.81167" stroke-miterlimit="10"/>
<path d="M434.296 230.029H427.51V288.499H434.296V230.029Z" stroke="black" stroke-width="7.81167" stroke-miterlimit="10"/>
<path d="M435.99 452.116C437.805 461.664 439.55 476.245 437.057 493.172C435.024 506.997 433.964 516.529 433.387 528.47C432.577 545.058 435.444 551.843 438.28 568.384C440.314 580.233 439.831 589.264 438.171 611.394" stroke="black" stroke-width="7.81167" stroke-miterlimit="10"/>
<path d="M423.631 451.953C422.206 461.524 420.896 476.121 423.172 493.017C425.026 506.818 426.016 516.336 426.631 528.277C427.488 544.857 425.159 551.673 422.946 568.237C421.364 580.109 421.87 589.132 423.499 611.246" stroke="black" stroke-width="7.81167" stroke-miterlimit="10"/>
<path d="M426.2 514.301L432.986 514.263L432.624 451.965L425.838 452.004L426.2 514.301Z" stroke="black" stroke-width="7.81167" stroke-miterlimit="10"/>
<path d="M427.159 607.514L433.945 607.476L433.605 549.007L426.819 549.045L427.159 607.514Z" stroke="black" stroke-width="7.81167" stroke-miterlimit="10"/>
<path d="M464.555 414.44C474.232 412.835 488.981 411.399 506.014 414.216C519.921 416.516 529.521 417.752 541.566 418.57C558.295 419.712 565.198 417.011 581.95 414.533C593.949 412.757 603.05 413.421 625.357 415.513" stroke="black" stroke-width="7.81167" stroke-miterlimit="10"/>
<path d="M464.137 426.675C473.767 428.28 488.47 429.87 505.572 427.964C519.542 426.404 529.165 425.617 541.226 425.254C557.978 424.745 564.804 427.192 581.485 429.716C593.43 431.522 602.546 431.206 624.9 430.048" stroke="black" stroke-width="7.81167" stroke-miterlimit="10"/>
<path d="M527.224 425.485L527.322 418.762L464.443 417.86L464.345 424.582L527.224 425.485Z" stroke="black" stroke-width="7.81167" stroke-miterlimit="10"/>
<path d="M621.329 426.435L621.428 419.713L562.413 418.866L562.315 425.588L621.329 426.435Z" stroke="black" stroke-width="7.81167" stroke-miterlimit="10"/>
<path d="M395.564 423.895C385.895 425.547 371.153 427.052 354.105 424.327C340.182 422.097 330.582 420.908 318.529 420.151C301.8 419.094 294.905 421.826 278.168 424.389C266.177 426.218 257.077 425.609 234.762 423.625" stroke="black" stroke-width="7.81167" stroke-miterlimit="10"/>
<path d="M395.919 411.661C386.281 410.101 371.571 408.581 354.476 410.572C340.514 412.201 330.891 413.035 318.838 413.459C302.094 414.054 295.245 411.638 278.563 409.198C266.611 407.446 257.495 407.809 235.148 409.083" stroke="black" stroke-width="7.81167" stroke-miterlimit="10"/>
<path d="M332.967 413.256L332.902 419.979L395.785 420.577L395.85 413.854L332.967 413.256Z" stroke="black" stroke-width="7.81167" stroke-miterlimit="10"/>
<path d="M238.876 412.779L238.811 419.502L297.829 420.063L297.894 413.34L238.876 412.779Z" stroke="black" stroke-width="7.81167" stroke-miterlimit="10"/>
<path d="M327.51 823.422L373.246 663.418" stroke="black" stroke-width="7.81167" stroke-miterlimit="10"/>
<path d="M530.255 821.823L487.09 661.125" stroke="black" stroke-width="7.81167" stroke-miterlimit="10"/>
<path d="M689.879 741.525L577.236 618.24" stroke="black" stroke-width="7.81167" stroke-miterlimit="10"/>
<path d="M788.106 623.065L644.461 548.2" stroke="black" stroke-width="7.81167" stroke-miterlimit="10"/>
<path d="M840.625 477.047L676.551 456.229" stroke="black" stroke-width="7.81167" stroke-miterlimit="10"/>
<path d="M830.979 325.188L672.078 368.089" stroke="black" stroke-width="7.81167" stroke-miterlimit="10"/>
<path d="M779.527 196.692L642.068 291.271" stroke="black" stroke-width="7.81167" stroke-miterlimit="10"/>
<path d="M670.182 85.541L580.852 226.425" stroke="black" stroke-width="7.81167" stroke-miterlimit="10"/>
<path d="M537.981 18.6421L493.67 179.348" stroke="black" stroke-width="7.81167" stroke-miterlimit="10"/>
<path d="M355.031 9.78857L378.967 176.16" stroke="black" stroke-width="7.81167" stroke-miterlimit="10"/>
<path d="M193.16 70.3193L276.062 226.07" stroke="black" stroke-width="7.81167" stroke-miterlimit="10"/>
<path d="M72.0332 190.324L210.668 297.222" stroke="black" stroke-width="7.81167" stroke-miterlimit="10"/>
<path d="M10.9316 327.31L182.798 369.439" stroke="black" stroke-width="7.81167" stroke-miterlimit="10"/>
<path d="M7.71875 480.235L176.375 454.393" stroke="black" stroke-width="7.81167" stroke-miterlimit="10"/>
<path d="M59.1699 628.908L210.669 552.09" stroke="black" stroke-width="7.81167" stroke-miterlimit="10"/>
<path d="M275.707 615.099L167.436 746.782" stroke="black" stroke-width="7.81167" stroke-miterlimit="10"/>
<path d="M438.8 30.1971C437.632 32.7444 437.141 33.7401 435.707 36.3259C440.803 40.687 443.475 43.1956 447.706 47.1322C442.758 51.2541 441.325 52.2112 436.159 56.3717C441.699 60.1153 442.626 60.9258 447.496 64.515C445.283 68.8607 444.044 71.4388 442.104 76.101C459.456 106.629 497.556 82.6543 475.623 55.538L442.735 21.8994C442.252 22.5246 441.886 23.2734 441.52 24.0144C440.655 26.029 439.798 28.0204 438.8 30.1894V30.1971Z" fill="black"/>
<path d="M438.395 76.641C438.426 76.5252 438.535 76.0544 438.567 76.1084C440.522 71.6623 441.231 69.5783 443.265 64.754C438.341 61.3886 435.824 59.621 430.502 56.7805C434.866 52.8825 436.619 51.3773 441.855 47.3095C437.359 43.4038 435.037 41.3892 429.404 36.9508C431.102 34.3187 432.302 31.1 433.783 28.3057C434.85 26.2911 434.055 27.8349 435.847 24.8863C436.377 24.1221 436.12 24.4232 436.549 23.8057L436.315 23.5818C436.385 23.4352 435.871 23.219 435.785 23.0415L405.367 56.1167C382.249 82.8392 422.532 106.582 438.387 76.6487L438.395 76.641Z" fill="black"/>
<path d="M276.111 53.9938C275.854 56.7725 275.721 57.884 275.223 60.7863C281.479 63.2486 284.837 64.7461 290.136 67.0849C286.832 72.5807 285.796 73.9624 282.29 79.5662C288.757 81.303 289.91 81.7661 295.699 83.5723C295.052 88.3965 294.733 91.2294 294.452 96.2698C320.967 119.457 349.001 84.4213 319.299 65.9425L277.085 44.8701C276.835 45.6188 276.734 46.4447 276.641 47.2707C276.493 49.4551 276.337 51.6164 276.119 53.986L276.111 53.9938Z" fill="black"/>
<path d="M291.126 98.0062C291.118 97.8827 291.063 97.4041 291.11 97.4427C291.484 92.603 291.461 90.4109 291.788 85.1852C286.022 83.6029 283.054 82.7615 277.093 81.8044C279.921 76.7023 281.082 74.7108 284.674 69.1687C279.127 66.9457 276.267 65.7956 269.481 63.4336C270.213 60.4001 270.276 56.9653 270.751 53.8391C271.094 51.593 270.852 53.3065 271.569 49.9411C271.818 49.0535 271.678 49.4163 271.873 48.6984L271.577 48.5672C271.592 48.4128 271.039 48.3665 270.899 48.2275L253.134 89.3612C240.153 122.12 286.077 131.444 291.134 98.0062H291.126Z" fill="black"/>
<path d="M597.851 68.9465C595.724 70.7836 594.859 71.4937 592.475 73.2459C595.28 79.3052 596.667 82.686 598.864 88.0043C592.638 89.7179 590.932 90.0034 584.481 91.663C587.948 97.344 588.462 98.4633 591.384 103.735C587.55 106.784 585.338 108.614 581.629 112.064C584.629 146.976 629.337 140.824 620.742 107.139L604.91 63.0107C604.209 63.3812 603.562 63.9061 602.915 64.4387C601.287 65.9207 599.666 67.3796 597.859 68.9388L597.851 68.9465Z" fill="black"/>
<path d="M578.028 111.044C578.106 110.951 578.402 110.565 578.41 110.627C582.049 107.385 583.568 105.78 587.448 102.229C584.378 97.1425 582.828 94.5026 579.174 89.7324C584.776 87.9802 586.996 87.3318 593.471 85.7804C591.017 80.3772 589.747 77.5907 586.482 71.2381C589.131 69.5477 591.57 67.1085 594.094 65.1711C595.91 63.7817 594.539 64.8546 597.406 62.9095C598.208 62.4309 597.85 62.6007 598.497 62.2148L598.372 61.9138C598.497 61.8134 598.123 61.3966 598.115 61.2036L556.586 78.7871C524.36 93.5918 551.062 131.754 578.028 111.044Z" fill="black"/>
<path d="M715.893 153.018C713.221 153.906 712.145 154.23 709.255 154.948C709.496 161.609 709.465 165.261 709.434 171.011C703.021 170.224 701.331 169.838 694.739 168.919C695.736 175.488 695.775 176.715 696.438 182.69C691.716 184.048 688.966 184.889 684.197 186.665C673.437 220.041 717.101 231.372 722.22 197L724.705 150.232C723.911 150.309 723.108 150.548 722.313 150.788C720.233 151.536 718.176 152.262 715.901 153.018H715.893Z" fill="black"/>
<path d="M681.267 184.342C681.376 184.28 681.796 184.041 681.781 184.103C686.401 182.489 688.419 181.586 693.382 179.788C692.518 173.922 692.112 170.896 690.593 165.099C696.445 165.608 698.751 165.863 705.327 166.89C705.155 160.962 705.062 157.913 704.516 150.804C707.618 150.248 710.812 148.928 713.898 148.094C716.11 147.5 714.435 147.971 717.832 147.268C718.752 147.137 718.362 147.153 719.102 147.045V146.72C719.258 146.674 719.071 146.149 719.149 145.972L673.989 146.412C638.491 147.824 648.355 193.219 681.282 184.35L681.267 184.342Z" fill="black"/>
<path d="M793.874 270.168C791.054 270.168 789.932 270.137 786.963 269.905C785.054 276.304 783.854 279.754 781.984 285.188C776.156 282.425 774.676 281.53 768.723 278.581C767.57 285.119 767.204 286.3 765.918 292.174C761.009 291.973 758.126 291.912 753.039 292.097C732.134 320.363 769.907 344.84 785.779 313.856L803.123 270.291C802.351 270.114 801.51 270.09 800.668 270.067C798.456 270.121 796.274 270.168 793.866 270.168H793.874Z" fill="black"/>
<path d="M751 288.979C751.117 288.956 751.6 288.863 751.561 288.909C756.462 288.832 758.667 288.616 763.941 288.462C765.001 282.626 765.586 279.631 765.999 273.657C771.382 275.98 773.486 276.945 779.392 279.986C781.13 274.313 782.026 271.388 783.779 264.479C786.895 264.927 790.347 264.68 793.542 264.857C795.832 264.989 794.087 264.911 797.539 265.313C798.458 265.475 798.076 265.367 798.816 265.498L798.926 265.197C799.089 265.197 799.081 264.649 799.206 264.495L756.243 250.701C722.132 240.875 716.935 287.018 751 288.971V288.979Z" fill="black"/>
<path d="M823.619 406.797C821.032 405.678 820.019 405.207 817.393 403.817C813.061 408.92 810.568 411.613 806.657 415.851C802.434 411.011 801.436 409.606 797.174 404.535C793.473 410.07 792.671 411.011 789.11 415.882C784.692 413.752 782.074 412.555 777.337 410.703C746.763 428.317 771.493 465.722 798.553 443.623L832.042 410.579C831.403 410.108 830.647 409.753 829.883 409.406C827.834 408.58 825.816 407.754 823.611 406.797H823.619Z" fill="black"/>
<path d="M776.73 407.036C776.847 407.067 777.322 407.168 777.276 407.199C781.795 409.074 783.906 409.746 788.799 411.699C792.126 406.774 793.879 404.258 796.669 398.947C800.666 403.208 802.201 404.929 806.385 410.062C810.265 405.554 812.267 403.223 816.67 397.589C819.35 399.233 822.614 400.375 825.458 401.811C827.508 402.838 825.942 402.073 828.941 403.81C829.713 404.319 829.409 404.072 830.04 404.489L830.258 404.25C830.406 404.319 830.617 403.81 830.796 403.717L796.996 374.046C769.702 351.515 746.304 391.745 776.738 407.044L776.73 407.036Z" fill="black"/>
<path d="M799.146 551.002C797.307 548.879 796.598 548.015 794.845 545.637C788.705 548.37 785.277 549.721 779.893 551.851C778.21 545.668 777.937 543.978 776.316 537.579C770.551 540.968 769.421 541.469 764.076 544.325C761.029 540.504 759.198 538.305 755.747 534.592C720.482 537.293 726.341 581.63 760.414 573.379L805.075 558.042C804.709 557.339 804.179 556.699 803.649 556.05C802.169 554.421 800.712 552.808 799.146 551.002Z" fill="black"/>
<path d="M756.805 531.025C756.898 531.103 757.288 531.396 757.226 531.404C760.475 535.039 762.08 536.552 765.633 540.419C770.791 537.417 773.471 535.904 778.317 532.322C780.047 537.88 780.678 540.095 782.19 546.517C787.667 544.124 790.488 542.897 796.924 539.709C798.614 542.341 801.053 544.78 802.985 547.297C804.38 549.103 803.305 547.744 805.245 550.593C805.72 551.388 805.549 551.033 805.938 551.673L806.242 551.558C806.344 551.681 806.764 551.311 806.959 551.311L789.537 510.03C774.842 477.989 736.118 504.141 756.813 531.018L756.805 531.025Z" fill="black"/>
<path d="M726.717 672.342C725.665 669.748 725.276 668.706 724.388 665.897C717.687 666.53 714.009 666.707 708.212 667.016C708.625 660.632 708.914 658.934 709.459 652.358C702.898 653.732 701.667 653.84 695.684 654.843C694.04 650.258 693.027 647.588 690.962 642.972C656.702 634.28 647.843 678.131 682.781 681.18L730.052 680.894C729.935 680.115 729.639 679.335 729.351 678.555C728.478 676.541 727.621 674.549 726.725 672.342H726.717Z" fill="black"/>
<path d="M693.123 639.938C693.186 640.038 693.458 640.447 693.396 640.432C695.289 644.909 696.318 646.854 698.43 651.647C704.289 650.451 707.32 649.872 713.07 648.027C712.898 653.839 712.781 656.14 712.127 662.701C718.088 662.183 721.157 661.913 728.294 660.956C729.035 663.99 730.554 667.069 731.575 670.072C732.307 672.226 731.731 670.597 732.642 673.916C732.829 674.819 732.79 674.433 732.946 675.159L733.273 675.143C733.328 675.29 733.842 675.082 734.029 675.143L730.944 630.505C727.437 595.485 682.278 607.897 693.139 639.945L693.123 639.938Z" fill="black"/>
<path d="M606.069 765.763C605.976 762.968 605.968 761.857 606.093 758.916C599.571 757.249 596.049 756.184 590.502 754.516C593.088 748.65 593.938 747.16 596.712 741.155C590.073 740.237 588.873 739.92 582.905 738.847C582.936 733.977 582.905 731.128 582.539 726.096C553.305 706.374 529.915 744.621 561.72 759.263L606.264 774.933C606.42 774.161 606.412 773.327 606.404 772.501C606.272 770.317 606.155 768.148 606.069 765.77V765.763Z" fill="black"/>
<path d="M585.607 723.965C585.631 724.081 585.748 724.552 585.693 724.521C585.935 729.368 586.239 731.545 586.574 736.763C592.495 737.612 595.542 738.09 601.58 738.291C599.422 743.702 598.518 745.817 595.651 751.768C601.432 753.289 604.416 754.076 611.452 755.574C611.109 758.677 611.475 762.088 611.405 765.253C611.351 767.522 611.374 765.793 611.086 769.228C610.953 770.139 611.047 769.761 610.946 770.502L611.257 770.594C611.257 770.757 611.818 770.726 611.974 770.849L624.402 727.832C633.136 693.715 586.402 690.172 585.615 723.965H585.607Z" fill="black"/>
<path d="M251.399 772.647C253.698 771.034 254.633 770.417 257.188 768.904C255.015 762.59 253.978 759.085 252.334 753.582C258.7 752.501 260.43 752.385 267.014 751.382C264.138 745.384 263.749 744.219 261.372 738.684C265.494 736.037 267.878 734.439 271.93 731.375C272.499 696.339 227.393 697.991 232.512 732.363L243.771 777.842C244.512 777.541 245.205 777.086 245.898 776.623C247.675 775.31 249.428 774.021 251.391 772.647H251.399Z" fill="black"/>
<path d="M275.412 732.749C275.327 732.834 274.992 733.189 274.992 733.127C271.041 735.991 269.366 737.434 265.151 740.584C267.683 745.956 268.961 748.735 272.109 753.845C266.359 755.033 264.076 755.45 257.484 756.346C259.377 761.965 260.351 764.867 262.954 771.513C260.149 772.933 257.476 775.11 254.765 776.793C252.817 777.997 254.289 777.063 251.235 778.707C250.394 779.101 250.76 778.969 250.082 779.286L250.176 779.595C250.043 779.687 250.37 780.127 250.355 780.328L293.458 766.982C327.031 755.473 304.35 714.834 275.405 732.749H275.412Z" fill="black"/>
<path d="M125.574 681.357C128.285 680.585 129.368 680.3 132.282 679.705C132.313 673.036 132.5 669.393 132.773 663.65C139.147 664.692 140.814 665.148 147.367 666.336C146.642 659.737 146.658 658.502 146.245 652.512C151.013 651.346 153.803 650.613 158.641 649.038C170.78 616.133 127.623 603.034 121.078 637.167L116.66 683.788C117.455 683.75 118.265 683.541 119.076 683.325C121.187 682.669 123.275 682.021 125.581 681.357H125.574Z" fill="black"/>
<path d="M161.47 651.469C161.361 651.523 160.925 651.747 160.948 651.686C156.266 653.106 154.209 653.924 149.183 655.529C149.799 661.427 150.079 664.468 151.365 670.319C145.537 669.57 143.246 669.223 136.724 667.926C136.654 673.854 136.615 676.911 136.872 684.035C133.748 684.467 130.507 685.656 127.39 686.358C125.154 686.86 126.853 686.459 123.424 687.022C122.497 687.123 122.894 687.115 122.146 687.2L122.131 687.524C121.975 687.563 122.131 688.095 122.061 688.273L167.197 689.67C202.727 689.701 194.748 643.951 161.478 651.469H161.47Z" fill="black"/>
<path d="M47.1627 558.38C49.9832 558.411 51.1052 558.45 54.066 558.705C56.0294 552.329 57.2684 548.886 59.1929 543.468C64.9976 546.285 66.4623 547.196 72.3917 550.198C73.6072 543.668 73.9812 542.495 75.3292 536.636C80.2378 536.883 83.1129 536.968 88.2086 536.837C109.378 508.772 71.8464 483.94 55.6789 514.769L37.9219 558.164C38.6932 558.35 39.5347 558.38 40.3684 558.411C42.5812 558.38 44.7707 558.357 47.1705 558.38H47.1627Z" fill="black"/>
<path d="M90.2096 539.971C90.0927 539.994 89.6097 540.079 89.6486 540.033C84.7477 540.064 82.5427 540.257 77.26 540.365C76.138 546.185 75.5303 549.18 75.055 555.154C69.6944 552.777 67.5985 551.796 61.7237 548.693C59.9316 554.351 59.0122 557.269 57.189 564.162C54.0723 563.683 50.6207 563.899 47.4339 563.691C45.1432 563.537 46.8885 563.637 43.4446 563.197C42.5252 563.027 42.907 563.135 42.1668 562.996L42.0578 563.297C41.8942 563.297 41.902 563.845 41.7695 563.992L84.5997 578.187C118.618 588.337 124.251 542.24 90.2096 539.963V539.971Z" fill="black"/>
<path d="M25.295 414.656C27.9675 415.551 29.0193 415.93 31.7541 417.087C35.6187 411.63 37.8705 408.736 41.4 404.182C46.036 408.643 47.1424 409.955 51.8408 414.641C55.0431 408.805 55.7677 407.81 58.8844 402.646C63.4736 404.39 66.185 405.355 71.0626 406.791C99.9848 386.621 72.0754 351.478 47.0489 375.815L16.5684 411.607C17.2462 412.024 18.0332 412.31 18.8201 412.595C20.9316 413.244 23.0198 413.892 25.295 414.656Z" fill="black"/>
<path d="M71.983 410.396C71.8583 410.38 71.3753 410.318 71.4298 410.28C66.7627 408.798 64.6044 408.312 59.5555 406.783C56.6648 411.978 55.1455 414.633 52.8314 420.16C48.4759 416.254 46.7929 414.672 42.1803 409.925C38.7052 414.749 36.9132 417.242 33.0252 423.24C30.2124 421.827 26.8621 420.97 23.9013 419.789C21.7742 418.94 23.4026 419.566 20.2626 418.091C19.4445 417.644 19.7718 417.867 19.1095 417.512L18.9069 417.767C18.7588 417.713 18.5874 418.238 18.416 418.338L54.6858 444.999C83.8418 465.107 103.64 423.016 71.9908 410.388L71.983 410.396Z" fill="black"/>
<path d="M57.2474 273.587C59.1251 275.671 59.8575 276.52 61.6573 278.859C67.7347 275.995 71.1319 274.583 76.4691 272.337C78.2845 278.481 78.5962 280.171 80.3493 286.531C86.0371 283.019 87.1669 282.502 92.4418 279.531C95.5662 283.282 97.444 285.451 100.974 289.086C136.168 285.652 129.374 241.446 95.4883 250.407L51.1621 266.671C51.5439 267.366 52.0893 267.999 52.6269 268.632C54.1385 270.229 55.6345 271.812 57.2396 273.587H57.2474Z" fill="black"/>
<path d="M99.9969 292.675C99.9034 292.598 99.506 292.312 99.5684 292.304C96.2414 288.738 94.6051 287.256 90.9742 283.466C85.8786 286.577 83.2295 288.144 78.4689 291.826C76.6223 286.299 75.9444 284.107 74.2926 277.716C68.8697 280.217 66.0724 281.514 59.7067 284.825C57.9614 282.224 55.4681 279.846 53.4813 277.369C52.0554 275.593 53.154 276.929 51.1594 274.119C50.6685 273.332 50.8399 273.687 50.4425 273.054L50.1466 273.177C50.0453 273.054 49.6323 273.432 49.4375 273.44L67.7321 314.342C83.1048 346.074 121.268 319.12 100.005 292.675H99.9969Z" fill="black"/>
<path d="M137.69 145.076C138.789 147.654 139.194 148.689 140.137 151.483C146.822 150.734 150.499 150.487 156.288 150.086C155.985 156.477 155.727 158.175 155.307 164.759C161.836 163.27 163.075 163.138 169.035 162.035C170.765 166.589 171.825 169.244 173.975 173.821C208.39 181.903 216.455 137.913 181.471 135.474L134.215 136.586C134.347 137.365 134.651 138.137 134.963 138.909C135.875 140.908 136.763 142.884 137.698 145.076H137.69Z" fill="black"/>
<path d="M171.861 176.886C171.791 176.785 171.518 176.384 171.581 176.399C169.609 171.961 168.542 170.031 166.352 165.269C160.517 166.566 157.493 167.199 151.782 169.151C151.852 163.331 151.93 161.039 152.46 154.462C146.507 155.088 143.445 155.404 136.332 156.493C135.537 153.474 133.963 150.418 132.888 147.438C132.116 145.293 132.724 146.921 131.758 143.618C131.555 142.714 131.602 143.108 131.431 142.375L131.103 142.398C131.041 142.251 130.535 142.475 130.348 142.413L134.236 186.99C138.365 221.948 183.299 208.734 171.861 176.886Z" fill="black"/>
<path d="M437.807 808.478C438.999 805.862 439.498 804.827 440.978 802.172C435.532 797.803 432.664 795.287 428.145 791.335C433.303 787.043 434.799 786.04 440.191 781.702C434.285 777.974 433.288 777.155 428.091 773.574C430.358 769.097 431.628 766.449 433.599 761.648C414.798 730.75 374.952 755.882 398.53 783.215L433.779 817.023C434.277 816.375 434.659 815.611 435.033 814.839C435.914 812.762 436.794 810.717 437.807 808.486V808.478Z" fill="#FF0000"/>
<path d="M430.172 762.019C430.141 762.143 430.032 762.621 430.001 762.567C428.006 767.145 427.289 769.283 425.217 774.246C430.468 777.604 433.156 779.364 438.813 782.173C434.271 786.226 432.44 787.792 426.978 792.038C431.785 795.951 434.271 797.974 440.286 802.412C438.533 805.129 437.317 808.433 435.798 811.319C434.707 813.396 435.517 811.806 433.671 814.847C433.125 815.634 433.39 815.326 432.954 815.958L433.203 816.182C433.133 816.329 433.679 816.545 433.772 816.723L465.367 782.428C489.357 754.741 446.457 731.167 430.18 762.012L430.172 762.019Z" fill="#FF0000"/>
<defs>
<linearGradient id="paint0_linear_349_3" x1="414.812" y1="11.1314" x2="429.165" y2="816.201" gradientUnits="userSpaceOnUse">
<stop stop-color="white"/>
<stop offset="0.09" stop-color="#F8F8F8"/>
<stop offset="0.22" stop-color="#E7E7E7"/>
<stop offset="0.36" stop-color="#CACACA"/>
<stop offset="0.52" stop-color="#A2A2A2"/>
<stop offset="0.69" stop-color="#6F6F6F"/>
<stop offset="0.87" stop-color="#323232"/>
<stop offset="1"/>
</linearGradient>
</defs>
</svg>
