<svg width="381" height="388" viewBox="0 0 381 388" fill="none" xmlns="http://www.w3.org/2000/svg">
<path d="M180.176 379.41L10.7642 228.345C-2.1386 216.836 -3.41644 196.891 7.91248 183.776L156.614 11.6775C167.943 -1.42907 187.578 -2.72584 200.481 8.7752L369.893 159.84C382.795 171.349 384.073 191.294 372.744 204.409L224.042 376.507C212.714 389.614 193.079 390.911 180.176 379.41Z" fill="#0000FF"/>
<path d="M132.712 256.611C139.49 253.94 142.217 252.944 149.526 250.683C149.097 233.524 149.276 224.107 149.526 209.279C165.701 210.375 169.955 211.124 186.582 212.552C184.237 195.756 184.183 192.591 182.679 177.277C194.639 173.093 201.605 170.515 213.705 165.243C241.809 77.5958 131.831 54.6865 117.954 144.086L110.389 265.078C112.391 264.777 114.425 264.036 116.458 263.287C121.733 261.064 126.954 258.88 132.727 256.603L132.712 256.611Z" fill="#FF0000"/>
<path d="M221.037 170.809C220.765 170.978 219.689 171.658 219.736 171.503C208.018 176.327 202.891 178.944 190.323 184.316C192.333 199.322 193.284 207.079 196.969 221.799C182.204 221.328 176.392 221.012 159.811 219.306C160.084 234.566 160.224 242.431 161.424 260.686C153.578 262.57 145.467 266.445 137.668 269.031C132.058 270.891 136.312 269.424 127.702 271.732C125.372 272.211 126.362 272.11 124.484 272.504L124.469 273.338C124.079 273.484 124.531 274.804 124.344 275.283L238.428 267.618C328.132 258.842 304.461 143.175 221.045 170.809H221.037Z" fill="#FF0000"/>
</svg>
