<svg width="289" height="293" viewBox="0 0 289 293" fill="none" xmlns="http://www.w3.org/2000/svg">
<path d="M260.604 -0.00878906H28.4002C13.1068 -0.00878906 0.708984 12.2732 0.708984 27.4238V264.716C0.708984 279.866 13.1068 292.149 28.4002 292.149H260.604C275.898 292.149 288.295 279.866 288.295 264.716V27.4238C288.295 12.2732 275.898 -0.00878906 260.604 -0.00878906Z" fill="#0600FF"/>
<path d="M198.969 90.2405C201.587 91.3983 202.616 91.8846 205.273 93.3203C209.613 87.9634 212.114 85.1383 216.033 80.6846C220.326 85.7173 221.339 87.1838 225.679 92.4558C229.38 86.6512 230.19 85.671 233.743 80.5612C238.215 82.761 240.864 83.996 245.656 85.9102C276.41 67.3388 251.212 28.3819 224.035 51.6233L190.438 86.3348C191.084 86.8211 191.856 87.1916 192.619 87.5544C194.692 88.4111 196.741 89.2602 198.962 90.2405H198.969Z" fill="#FF0000"/>
<path d="M245.283 82.5445C245.158 82.5136 244.683 82.4133 244.738 82.3824C240.164 80.445 238.029 79.758 233.074 77.7434C229.739 82.9073 227.994 85.5471 225.212 91.1124C221.153 86.674 219.586 84.891 215.332 79.5496C211.444 84.2812 209.434 86.7282 205.032 92.6408C202.32 90.9349 199.017 89.7616 196.134 88.2796C194.061 87.2144 195.651 88.0094 192.612 86.2109C191.825 85.6783 192.137 85.933 191.498 85.5085L191.28 85.7555C191.132 85.6861 190.914 86.2187 190.742 86.3113L225.048 117.14C252.74 140.536 276.107 98.3681 245.291 82.5522L245.283 82.5445Z" fill="#FF0000"/>
<path d="M31.9155 84.8134C34.4244 86.1874 35.4139 86.7585 37.9462 88.418C42.7068 83.4471 45.4338 80.8459 49.7114 76.7395C53.576 82.1195 54.4642 83.671 58.3522 89.2903C62.5207 83.8176 63.4012 82.9068 67.3671 78.1212C71.6446 80.6915 74.1769 82.1504 78.805 84.4583C110.976 68.5652 89.0666 27.6015 60.0742 48.4501L23.7344 80.1898C24.3421 80.7302 25.0745 81.1624 25.8069 81.5869C27.8015 82.6135 29.7728 83.6324 31.9077 84.8057L31.9155 84.8134Z" fill="#FF0000"/>
<path d="M78.6967 81.0773C78.5799 81.0387 78.1046 80.8921 78.167 80.8689C73.7725 78.5533 71.6999 77.681 66.9237 75.2573C63.176 80.1202 61.2203 82.6057 57.9868 87.9085C54.3092 83.146 52.8911 81.2317 49.0966 75.5506C44.8346 79.9349 42.6297 82.2042 37.7522 87.7231C35.1887 85.7934 31.9942 84.3423 29.2437 82.621C27.2647 81.386 28.784 82.3046 25.9011 80.2591C25.1609 79.6648 25.4492 79.9426 24.8493 79.464L24.6078 79.6956C24.4676 79.6185 24.2104 80.1278 24.0234 80.205L55.6727 113.836C81.3459 139.501 108.102 99.4635 78.6889 81.085L78.6967 81.0773Z" fill="#FF0000"/>
<path d="M116.142 193.202C118.651 194.576 119.64 195.147 122.173 196.806C126.933 191.835 129.66 189.234 133.938 185.128C137.803 190.508 138.691 192.059 142.579 197.679C146.747 192.206 147.628 191.295 151.594 186.509C155.871 189.08 158.403 190.539 163.032 192.847C195.203 176.954 173.293 135.99 144.301 156.838L107.961 188.578C108.569 189.118 109.301 189.551 110.034 189.975C112.028 191.002 113.999 192.021 116.134 193.194L116.142 193.202Z" fill="#FF0000"/>
<path d="M162.933 189.466C162.816 189.427 162.341 189.281 162.403 189.257C158.009 186.942 155.936 186.069 151.16 183.646C147.412 188.509 145.457 190.994 142.223 196.297C138.546 191.534 137.127 189.62 133.333 183.939C129.071 188.323 126.866 190.593 121.988 196.112C119.425 194.182 116.23 192.731 113.48 191.01C111.501 189.775 113.02 190.693 110.138 188.648C109.397 188.053 109.686 188.331 109.086 187.853L108.844 188.084C108.704 188.007 108.447 188.516 108.26 188.594L139.909 222.224C165.582 247.889 192.338 207.852 162.925 189.473L162.933 189.466Z" fill="#FF0000"/>
<path d="M120.474 87.8779C123.037 89.0512 124.042 89.5452 126.637 90.9809C131.07 85.9637 133.61 83.3238 137.607 79.1711C141.737 84.0957 142.703 85.5237 146.871 90.6722C150.681 85.2149 151.507 84.2964 155.154 79.4953C159.533 81.7106 162.12 82.9611 166.818 84.9139C197.735 67.9248 173.745 30.0254 146.256 51.5686L112.121 83.9259C112.752 84.4122 113.5 84.7749 114.256 85.1455C116.29 86.0177 118.292 86.8822 120.474 87.8779Z" fill="#FF0000"/>
<path d="M167.358 88.5873C167.242 88.5564 166.766 88.4483 166.821 88.4174C162.341 86.4491 160.245 85.739 155.383 83.6858C151.955 88.5409 150.162 91.0264 147.264 96.2752C143.353 91.9295 141.849 90.1851 137.766 84.9671C133.8 89.3977 131.751 91.6825 127.24 97.2324C124.598 95.5342 121.357 94.3224 118.536 92.8327C116.511 91.7598 118.061 92.5547 115.1 90.764C114.337 90.2391 114.633 90.4861 114.017 90.0615L113.791 90.2931C113.643 90.2237 113.418 90.7253 113.246 90.8102L146.454 121.161C173.296 144.24 197.488 104.496 167.366 88.5873H167.358Z" fill="#FF0000"/>
<path d="M197.509 189.449C200.095 190.569 201.108 191.039 203.734 192.429C208.066 187.327 210.559 184.641 214.479 180.403C218.702 185.243 219.691 186.655 223.961 191.719C227.662 186.184 228.472 185.25 232.025 180.38C236.443 182.51 239.053 183.707 243.798 185.559C274.38 167.96 249.665 130.539 222.597 152.631L189.086 185.659C189.725 186.13 190.481 186.485 191.244 186.84C193.293 187.666 195.311 188.492 197.516 189.449H197.509Z" fill="#FF0000"/>
<path d="M244.398 189.225C244.281 189.194 243.806 189.094 243.852 189.063C239.333 187.188 237.222 186.516 232.329 184.555C228.994 189.48 227.248 191.996 224.451 197.307C220.462 193.038 218.919 191.325 214.743 186.192C210.863 190.7 208.853 193.023 204.45 198.665C201.778 197.021 198.505 195.879 195.661 194.443C193.612 193.417 195.178 194.181 192.186 192.444C191.415 191.927 191.719 192.182 191.088 191.765L190.87 192.004C190.722 191.935 190.511 192.444 190.332 192.537L224.124 222.223C251.402 244.762 274.824 204.547 244.405 189.241L244.398 189.225Z" fill="#FF0000"/>
<path d="M34.6746 194.335C37.2614 195.454 38.2743 195.925 40.9 197.315C45.2321 192.213 47.7255 189.526 51.6446 185.289C55.8676 190.128 56.8572 191.541 61.127 196.605C64.828 191.07 65.6383 190.136 69.1912 185.266C73.609 187.396 76.2192 188.592 80.9642 190.445C111.546 172.846 86.8313 135.425 59.7635 157.516L26.252 190.545C26.8909 191.016 27.6467 191.371 28.4102 191.726C30.4594 192.552 32.4774 193.378 34.6824 194.335H34.6746Z" fill="#FF0000"/>
<path d="M81.5637 194.119C81.4468 194.088 80.9716 193.988 81.0183 193.957C76.4992 192.081 74.3877 191.41 69.4946 189.449C66.1598 194.374 64.4145 196.89 61.6173 202.201C57.628 197.932 56.0852 196.219 51.909 191.086C48.0288 195.593 46.0186 197.917 41.6163 203.559C38.9438 201.915 35.6714 200.773 32.8274 199.337C30.7783 198.31 32.3444 199.075 29.3524 197.338C28.5811 196.821 28.8849 197.075 28.2538 196.659L28.0357 196.898C27.8877 196.828 27.6773 197.338 27.498 197.43L61.29 227.117C88.5683 249.656 111.99 209.441 81.5715 194.135L81.5637 194.119Z" fill="#FF0000"/>
</svg>
