<svg width="648" height="236" viewBox="0 0 648 236" fill="none" xmlns="http://www.w3.org/2000/svg">
<path d="M625.138 2H22.4217C11.1431 2 2 11.0577 2 22.231V213.341C2 224.515 11.1431 233.572 22.4217 233.572H625.138C636.416 233.572 645.559 224.515 645.559 213.341V22.231C645.559 11.0577 636.416 2 625.138 2Z" fill="url(#paint0_linear_480_749)" stroke="#231F20" stroke-width="3.12467" stroke-miterlimit="10"/>
<path d="M571.123 42.4016H72.3157C61.3427 42.4016 52.4473 51.214 52.4473 62.0846V172.394C52.4473 183.265 61.3427 192.077 72.3157 192.077H571.123C582.096 192.077 590.992 183.265 590.992 172.394V62.0846C590.992 51.214 582.096 42.4016 571.123 42.4016Z" stroke="#231F20" stroke-width="10.1552" stroke-miterlimit="10"/>
<path d="M612.032 43.4036C612.702 41.9524 612.983 41.3812 613.809 39.9147C610.879 37.4292 609.336 36.0088 606.897 33.7626C609.741 31.4161 610.567 30.8604 613.544 28.4908C610.357 26.3604 609.819 25.8972 607.014 23.8595C608.284 21.3817 609.001 19.9151 610.115 17.2521C600.119 -0.138381 578.186 13.547 590.816 28.9847L609.757 48.1351C610.038 47.7801 610.248 47.3555 610.458 46.9232C610.957 45.7731 611.448 44.6386 612.024 43.4036H612.032Z" fill="#FF0000"/>
<path d="M612.258 16.936C612.242 17.0054 612.18 17.2678 612.157 17.2369C611.035 19.7764 610.622 20.9575 609.453 23.7131C612.289 25.6274 613.739 26.6307 616.801 28.2517C614.292 30.4747 613.279 31.3315 610.263 33.6549C612.858 35.8779 614.19 37.0279 617.432 39.552C616.458 41.0494 615.764 42.8866 614.915 44.4844C614.299 45.6345 614.759 44.7546 613.723 46.4373C613.419 46.8695 613.567 46.6998 613.318 47.0548L613.45 47.1783C613.411 47.2632 613.707 47.3866 613.754 47.4869L631.262 28.6222C644.57 13.3852 621.374 -0.122606 612.242 16.9437L612.258 16.936Z" fill="#FF0000"/>
<defs>
<linearGradient id="paint0_linear_480_749" x1="322.623" y1="-131.574" x2="324.251" y2="225.83" gradientUnits="userSpaceOnUse">
<stop offset="0.4" stop-color="white"/>
<stop offset="1"/>
</linearGradient>
</defs>
</svg>
