<svg width="289" height="294" viewBox="0 0 289 294" fill="none" xmlns="http://www.w3.org/2000/svg">
<path d="M260.618 0.940918H28.4137C13.1203 0.940918 0.722656 13.223 0.722656 28.3736V265.666C0.722656 280.816 13.1203 293.098 28.4137 293.098H260.618C275.911 293.098 288.309 280.816 288.309 265.666V28.3736C288.309 13.223 275.911 0.940918 260.618 0.940918Z" fill="#0000FF"/>
<path d="M153.065 130.564C154.249 127.932 154.756 126.89 156.213 124.219C151.023 119.711 148.289 117.118 143.98 113.05C149.021 108.781 150.478 107.785 155.745 103.471C150.104 99.6035 149.153 98.7622 144.19 95.0495C146.442 90.5494 147.712 87.8864 149.676 83.0467C131.981 51.4612 93.1633 76.3159 115.517 104.358L149.044 139.147C149.535 138.499 149.909 137.727 150.283 136.955C151.164 134.863 152.036 132.802 153.049 130.564H153.065Z" fill="#FF0000"/>
<path d="M146.37 83.3789C146.338 83.5024 146.229 83.9886 146.198 83.9346C144.211 88.5427 143.487 90.6963 141.406 95.6981C146.424 99.1793 148.995 101.001 154.418 103.934C149.977 107.971 148.185 109.53 142.856 113.752C147.445 117.789 149.806 119.873 155.548 124.466C153.818 127.191 152.595 130.525 151.083 133.42C150 135.504 150.803 133.906 148.98 136.963C148.442 137.75 148.699 137.441 148.271 138.082L148.512 138.314C148.442 138.46 148.964 138.692 149.05 138.869L180.037 104.606C203.591 76.9182 162.529 52.3878 146.377 83.3866L146.37 83.3789Z" fill="#FF0000"/>
<path d="M150.286 238.912C151.424 236.303 151.899 235.276 153.301 232.629C148.33 228.16 145.72 225.597 141.598 221.56C146.421 217.33 147.816 216.342 152.857 212.074C147.458 208.237 146.546 207.411 141.801 203.737C143.951 199.276 145.167 196.636 147.052 191.85C130.121 160.558 92.9712 185.181 114.367 212.969L146.452 247.426C146.928 246.785 147.286 246.021 147.637 245.249C148.478 243.18 149.32 241.135 150.286 238.912Z" fill="#FF0000"/>
<path d="M150.663 191.28C150.632 191.403 150.531 191.882 150.5 191.828C148.598 196.39 147.905 198.528 145.918 203.475C150.718 206.926 153.18 208.732 158.369 211.634C154.115 215.633 152.408 217.176 147.305 221.36C151.692 225.358 153.959 227.427 159.452 231.973C157.792 234.667 156.631 237.971 155.182 240.85C154.146 242.919 154.917 241.336 153.164 244.354C152.65 245.134 152.899 244.825 152.486 245.458L152.72 245.682C152.65 245.828 153.149 246.052 153.234 246.238L182.881 212.29C205.414 184.865 166.129 160.559 150.671 191.272L150.663 191.28Z" fill="#FF0000"/>
</svg>
