<svg width="288" height="293" viewBox="0 0 288 293" fill="none" xmlns="http://www.w3.org/2000/svg">
<path d="M260.006 0.349121H27.8026C12.5091 0.349121 0.111328 12.6312 0.111328 27.7818V265.074C0.111328 280.224 12.5091 292.506 27.8026 292.506H260.006C275.3 292.506 287.698 280.224 287.698 265.074V27.7818C287.698 12.6312 275.3 0.349121 260.006 0.349121Z" fill="#0000FF"/>
<path d="M141.034 128.52C139.779 131.121 139.25 132.148 137.722 134.78C142.795 139.427 145.459 142.09 149.659 146.273C144.509 150.403 143.028 151.368 137.645 155.528C143.184 159.55 144.119 160.406 148.981 164.25C146.613 168.689 145.28 171.321 143.184 176.099C160.061 208.147 199.51 184.327 177.88 155.698L145.257 120.029C144.743 120.662 144.353 121.426 143.963 122.191C143.028 124.252 142.101 126.297 141.034 128.512V128.52Z" fill="#FF0000"/>
<path d="M146.512 175.867C146.543 175.744 146.668 175.265 146.699 175.319C148.81 170.765 149.582 168.635 151.787 163.695C146.862 160.082 144.338 158.191 138.993 155.111C143.535 151.19 145.366 149.685 150.805 145.609C146.325 141.449 144.011 139.303 138.393 134.564C140.193 131.885 141.494 128.589 143.084 125.726C144.221 123.673 143.372 125.247 145.281 122.245C145.842 121.473 145.569 121.774 146.021 121.148L145.787 120.909C145.857 120.763 145.343 120.523 145.265 120.338L113.406 153.768C89.1504 180.815 129.557 206.434 146.504 175.875L146.512 175.867Z" fill="#FF0000"/>
<path d="M138.275 39.0985C137.13 41.7538 136.654 42.7958 135.236 45.4974C140.503 49.9126 143.277 52.4599 147.656 56.4506C142.693 60.8117 141.251 61.8305 136.054 66.2302C141.766 69.997 142.732 70.8229 147.757 74.443C145.583 78.9894 144.36 81.6679 142.475 86.5385C160.715 117.8 199.096 92.258 176.259 64.6169L142.132 30.438C141.649 31.0941 141.29 31.8738 140.932 32.6534C140.09 34.7529 139.249 36.8369 138.275 39.0985Z" fill="#FF0000"/>
<path d="M145.788 86.1602C145.819 86.0367 145.921 85.5502 145.952 85.6042C147.861 80.9575 148.546 78.7964 150.533 73.7637C145.453 70.3751 142.858 68.592 137.381 65.7592C141.752 61.6373 143.513 60.055 148.772 55.7402C144.121 51.7804 141.713 49.7428 135.901 45.2582C137.584 42.5025 138.744 39.1524 140.209 36.2193C141.261 34.112 140.482 35.7253 142.251 32.6378C142.773 31.8428 142.523 32.1516 142.944 31.5109L142.703 31.287C142.773 31.1404 142.243 30.9165 142.157 30.739L111.77 65.5508C88.6992 93.6473 130.174 117.452 145.788 86.1679V86.1602Z" fill="#FF0000"/>
<path d="M139.159 214.957C137.928 217.573 137.414 218.6 135.91 221.248C141.029 225.84 143.717 228.48 147.964 232.617C142.86 236.801 141.38 237.781 136.05 242.003C141.629 245.963 142.572 246.82 147.473 250.61C145.151 255.079 143.842 257.719 141.801 262.52C158.996 294.383 198.204 270.162 176.286 241.756L143.304 206.435C142.798 207.076 142.416 207.84 142.027 208.612C141.115 210.688 140.203 212.734 139.159 214.964V214.957Z" fill="#FF0000"/>
<path d="M145.12 262.242C145.151 262.119 145.268 261.632 145.299 261.694C147.364 257.117 148.12 254.979 150.27 250.015C145.307 246.457 142.767 244.589 137.391 241.571C141.894 237.604 143.71 236.075 149.109 231.946C144.59 227.832 142.253 225.709 136.588 221.031C138.365 218.338 139.635 215.026 141.185 212.147C142.307 210.078 141.474 211.661 143.344 208.643C143.897 207.863 143.632 208.172 144.076 207.539L143.842 207.307C143.912 207.161 143.398 206.921 143.313 206.744L111.796 240.506C87.8132 267.807 128.485 293.002 145.12 262.265V262.242Z" fill="#FF0000"/>
</svg>
